<svg width="200" height="200" viewBox="0 0 200 200" fill="none" xmlns="http://www.w3.org/2000/svg">
<circle cx="100" cy="100" r="100" fill="#FFDC64"/>
<path d="M78.0664 99.1626C78.0664 98.2887 77.3583 97.5806 76.4844 97.5806C75.6105 97.5806 74.9023 98.2887 74.9023 99.1626V102.306C74.9023 103.179 75.6105 103.888 76.4844 103.888C77.3583 103.888 78.0664 103.179 78.0664 102.306V99.1626ZM91.4643 99.1626C91.4643 98.2887 90.7562 97.5806 89.8823 97.5806C89.0084 97.5806 88.3003 98.2887 88.3003 99.1626V102.306C88.3003 103.179 89.0084 103.888 89.8823 103.888C90.7562 103.888 91.4643 103.179 91.4643 102.306V99.1626ZM103.28 103.888C104.154 103.888 104.862 103.18 104.862 102.306V99.1628C104.862 98.2889 104.154 97.5808 103.28 97.5808C102.406 97.5808 101.698 98.2889 101.698 99.1628V102.306C101.698 102.725 101.864 103.128 102.161 103.424C102.458 103.721 102.86 103.888 103.28 103.888ZM78.0664 111.946C78.0664 111.072 77.3583 110.364 76.4844 110.364C75.6105 110.364 74.9023 111.072 74.9023 111.946V115.089C74.9023 115.963 75.6105 116.671 76.4844 116.671C77.3583 116.671 78.0664 115.963 78.0664 115.089V111.946ZM91.4643 111.946C91.4643 111.072 90.7562 110.364 89.8823 110.364C89.0084 110.364 88.3003 111.072 88.3003 111.946V115.089C88.3003 115.963 89.0084 116.671 89.8823 116.671C90.7562 116.671 91.4643 115.963 91.4643 115.089V111.946ZM101.698 115.089C101.698 115.963 102.406 116.671 103.28 116.671C104.154 116.671 104.862 115.963 104.862 115.089V111.946C104.862 111.072 104.154 110.364 103.28 110.364C102.406 110.364 101.698 111.072 101.698 111.946V115.089ZM116.678 116.671C117.552 116.671 118.26 115.963 118.26 115.089V111.946C118.26 111.072 117.552 110.364 116.678 110.364C115.804 110.364 115.096 111.072 115.096 111.946V115.089C115.096 115.963 115.804 116.671 116.678 116.671ZM130.075 116.671C130.949 116.671 131.657 115.963 131.657 115.089V111.946C131.657 111.072 130.949 110.364 130.075 110.364C129.201 110.364 128.493 111.072 128.493 111.946V115.089C128.493 115.508 128.66 115.911 128.957 116.207C129.253 116.504 129.656 116.671 130.075 116.671ZM78.0664 124.729C78.0664 123.855 77.3583 123.147 76.4844 123.147C75.6105 123.147 74.9023 123.855 74.9023 124.729V127.872C74.9023 128.746 75.6105 129.454 76.4844 129.454C77.3583 129.454 78.0664 128.746 78.0664 127.872V124.729ZM91.4643 124.729C91.4643 123.855 90.7562 123.147 89.8823 123.147C89.0084 123.147 88.3003 123.855 88.3003 124.729V127.872C88.3003 128.746 89.0084 129.454 89.8823 129.454C90.7562 129.454 91.4643 128.746 91.4643 127.872V124.729ZM101.698 127.872C101.698 128.746 102.406 129.454 103.28 129.454C104.154 129.454 104.862 128.746 104.862 127.872V124.729C104.862 123.855 104.154 123.147 103.28 123.147C102.406 123.147 101.698 123.855 101.698 124.729V127.872ZM115.096 127.872C115.096 128.746 115.804 129.454 116.678 129.454C117.552 129.454 118.26 128.746 118.26 127.872V124.729C118.26 123.855 117.552 123.147 116.678 123.147C115.804 123.147 115.096 123.855 115.096 124.729V127.872ZM128.493 127.872C128.493 128.746 129.201 129.454 130.075 129.454C130.949 129.454 131.657 128.746 131.657 127.872V124.729C131.657 123.855 130.949 123.147 130.075 123.147C129.201 123.147 128.493 123.855 128.493 124.729V127.872ZM76.4844 135.93C76.2766 135.93 76.0709 135.971 75.8789 136.05C75.687 136.13 75.5126 136.246 75.3656 136.393C75.2187 136.54 75.1022 136.714 75.0227 136.906C74.9432 137.098 74.9023 137.304 74.9023 137.512V140.655C74.9023 141.529 75.6105 142.237 76.4844 142.237C77.3583 142.237 78.0664 141.529 78.0664 140.655V137.512C78.0664 137.092 77.8997 136.69 77.603 136.393C77.3064 136.097 76.904 135.93 76.4844 135.93ZM89.8823 135.93C89.6745 135.93 89.4688 135.971 89.2768 136.05C89.0849 136.13 88.9105 136.246 88.7636 136.393C88.6166 136.54 88.5001 136.714 88.4206 136.906C88.3411 137.098 88.3002 137.304 88.3003 137.512V140.655C88.3003 141.529 89.0084 142.237 89.8823 142.237C90.7562 142.237 91.4643 141.529 91.4643 140.655V137.512C91.4643 137.092 91.2976 136.69 91.0009 136.393C90.7043 136.097 90.3019 135.93 89.8823 135.93ZM101.698 140.655C101.698 141.529 102.406 142.237 103.28 142.237C104.154 142.237 104.862 141.529 104.862 140.655V137.512C104.862 136.638 104.154 135.93 103.28 135.93C102.406 135.93 101.698 136.638 101.698 137.512V140.655ZM115.096 140.655C115.096 141.529 115.804 142.237 116.678 142.237C117.552 142.237 118.26 141.529 118.26 140.655V137.512C118.26 136.638 117.552 135.93 116.678 135.93C115.804 135.93 115.096 136.638 115.096 137.512V140.655ZM128.493 140.655C128.493 141.529 129.201 142.237 130.075 142.237C130.949 142.237 131.657 141.529 131.657 140.655V137.512C131.657 136.638 130.949 135.93 130.075 135.93C129.201 135.93 128.493 136.638 128.493 137.512V140.655Z" fill="white"/>
<path d="M94.4514 88.7822C94.4514 87.9083 93.7433 87.2002 92.8694 87.2002H66.0913C65.8835 87.2002 65.6778 87.2411 65.4859 87.3206C65.2939 87.4001 65.1195 87.5166 64.9726 87.6635C64.8257 87.8104 64.7091 87.9848 64.6296 88.1768C64.5502 88.3687 64.5092 88.5745 64.5093 88.7822V131.892C64.5093 132.766 65.2174 133.474 66.0913 133.474C66.9652 133.474 67.6733 132.766 67.6733 131.892V90.3643H92.8692C93.077 90.3643 93.2827 90.3234 93.4747 90.2439C93.6666 90.1644 93.8411 90.0479 93.988 89.901C94.1349 89.7541 94.2515 89.5796 94.331 89.3877C94.4105 89.1957 94.4514 88.99 94.4514 88.7822Z" fill="white"/>
<path d="M155.418 146.836H139.381V105.216C139.381 104.342 138.673 103.634 137.799 103.634H131.093V62.0072H135.533C136.407 62.0072 137.115 61.2991 137.115 60.4252V51.6791C137.115 50.8047 136.397 50.097 135.533 50.097H131.093V46.2143C131.093 43.8904 129.202 42 126.878 42H119.841C118.967 42 118.259 42.7081 118.259 43.582C118.259 44.4559 118.967 45.1641 119.841 45.1641H126.878C127.157 45.1643 127.424 45.2751 127.62 45.472C127.817 45.6689 127.928 45.9359 127.928 46.2143V50.097H107.87V46.2143C107.87 45.9359 107.981 45.6689 108.178 45.472C108.375 45.2752 108.642 45.1644 108.92 45.1641H113.515C114.389 45.1641 115.097 44.4559 115.097 43.582C115.097 42.7081 114.389 42 113.515 42H108.92C106.596 42 104.706 43.8904 104.706 46.2143V50.097H58.119C57.2612 50.097 56.537 50.7938 56.537 51.6791V60.4252C56.537 61.2991 57.2451 62.0072 58.119 62.0072H70.6103V63.2157C70.6103 65.4482 72.4265 67.2644 74.6591 67.2644H78.8434V74.0823H73.4065C73.1988 74.0823 72.993 74.1232 72.8011 74.2027C72.6091 74.2822 72.4347 74.3987 72.2878 74.5456C72.1409 74.6925 72.0244 74.867 71.9449 75.0589C71.8654 75.2509 71.8245 75.4566 71.8245 75.6644V84.0327C71.8245 84.9066 72.5326 85.6147 73.4065 85.6147H87.4444C88.3183 85.6147 89.0264 84.9066 89.0264 84.0327V75.6644C89.0264 74.7904 88.3183 74.0823 87.4444 74.0823H82.0075V67.2644H86.1919C88.4242 67.2644 90.2404 65.4482 90.2404 63.2157V62.0072H118.22V103.634H111.409V88.7824C111.409 87.9084 110.701 87.2003 109.827 87.2003H99.1947C98.3208 87.2003 97.6127 87.9084 97.6127 88.7824C97.6127 89.6563 98.3208 90.3644 99.1947 90.3644H108.245V105.216C108.245 106.09 108.953 106.798 109.827 106.798H136.217V146.836H67.6735V138.217C67.6735 137.344 66.9653 136.635 66.0914 136.635C65.2175 136.635 64.5094 137.344 64.5094 138.217V146.836H50.582C49.7081 146.836 49 147.544 49 148.418C49 149.292 49.7081 150 50.582 150H155.418C156.292 150 157 149.292 157 148.418C157 147.544 156.292 146.836 155.418 146.836ZM85.8624 82.4509H74.9886V77.2466H85.8624V82.4509ZM71.9053 58.8431L77.4721 53.8114L83.0388 58.8431H71.9053ZM67.7954 58.2926L62.2287 53.2609H73.3622L67.7954 58.2926ZM81.5816 53.2611H92.7149L87.1483 58.2928L81.5816 53.2611ZM96.8246 53.8114L102.391 58.8431H91.258L96.8246 53.8114ZM110.611 58.8431L116.178 53.8114L121.746 58.8431H110.611ZM126.915 67.8896L121.384 72.1423V63.6369L126.915 67.8896ZM127.929 79.6072L122.398 75.3543L127.929 71.1016V79.6072ZM126.915 82.8194L121.384 87.0723V78.5664L126.915 82.8194ZM122.397 90.284L127.929 86.0311V94.5374L122.397 90.284ZM126.915 97.7499L121.384 102.003V93.4966L126.915 97.7499ZM127.929 64.6779L124.455 62.0072H127.929V64.6779ZM129.965 58.8431L133.951 55.2412V58.8431H129.965ZM131.423 53.2611L125.855 58.2928L120.288 53.2611H131.423ZM112.068 53.2611L106.501 58.2928L100.934 53.2611H112.068ZM59.7011 55.2416L63.6857 58.8431H59.7011V55.2416ZM87.0765 63.2157C87.0763 63.4502 86.9831 63.6751 86.8173 63.8409C86.6514 64.0068 86.4266 64.1001 86.1921 64.1003H74.6593C74.4247 64.1001 74.1999 64.0068 74.034 63.8409C73.8682 63.6751 73.7749 63.4502 73.7746 63.2157V62.0072H87.0767L87.0765 63.2157ZM124.455 103.634L127.929 100.962V103.634H124.455Z" fill="white"/>
</svg>
