<svg width="1371" height="707" viewBox="0 0 1371 707" fill="none" xmlns="http://www.w3.org/2000/svg">
<path d="M0 707C0 707 138.5 606.19 310 598.641C481.5 591.091 518.5 670.584 686 676.802C853.5 683.019 845.5 573.772 994 564.886C1142.5 556 1182.5 647.488 1280 641.27C1377.5 635.053 1370 598.637 1370 598.637V0H0V707Z" fill="url(#paint0_linear_716_762)"/>
<path d="M0 0H316.021C333.947 183.632 601.786 209.368 450 269.588C288 333.861 238 421.343 282 510.611C301.387 549.944 314.951 578.534 324.058 598.209C319.478 598.288 314.784 598.431 310 598.642C138.5 606.191 0 707 0 707V0Z" fill="url(#paint1_linear_716_762)"/>
<path d="M970 291.013C1068 183.891 770 282.086 736 187.462C710.473 116.419 741.034 52.4198 784.3 0H1016.48C1068.31 49.1356 1179.1 90.2443 1314 82.1263C1341.56 80.4677 1359.6 84.9632 1370 94.4068V169.096C1335 254.305 1225.9 386.076 1152 490.972C1123.37 531.614 1092.77 548.067 1063.94 548.062C969.954 548.045 895 372.994 970 291.013Z" fill="url(#paint2_linear_716_762)"/>
<path opacity="0.2" d="M496.5 520.431C503.956 520.431 510 515.035 510 508.38C510 501.724 503.956 496.328 496.5 496.328C489.044 496.328 483 501.724 483 508.38C483 515.035 489.044 520.431 496.5 520.431Z" fill="white"/>
<path opacity="0.2" d="M337.5 67.8434C346.06 67.8434 353 61.6486 353 54.0069C353 46.3652 346.06 40.1704 337.5 40.1704C328.94 40.1704 322 46.3652 322 54.0069C322 61.6486 328.94 67.8434 337.5 67.8434Z" fill="white"/>
<path opacity="0.2" d="M1155 54.4532C1159.42 54.4532 1163 51.2559 1163 47.3118C1163 43.3677 1159.42 40.1704 1155 40.1704C1150.58 40.1704 1147 43.3677 1147 47.3118C1147 51.2559 1150.58 54.4532 1155 54.4532Z" fill="white"/>
<g opacity="0.2">
<path d="M69.1962 348.167C69.0037 347.526 68.3229 345.981 66.1647 345.474L27.6806 336.439C25.539 335.936 24.0974 336.967 23.577 337.434C23.0566 337.901 21.9081 339.192 22.4816 341.102L32.7072 375.147C33.2807 377.057 34.999 377.662 35.7112 377.834C36.4234 378.006 38.2495 378.255 39.8221 376.863L68.0807 351.853C69.6654 350.451 69.3887 348.808 69.1962 348.167ZM76.9242 346.318C77.9979 349.893 77.0826 353.944 73.7138 356.925L45.4553 381.935C38.7696 387.852 27.4173 385.114 24.9792 376.997L14.7536 342.951C12.3155 334.834 20.6107 327.393 29.7157 329.531L68.1999 338.567C72.7876 339.644 75.8505 342.743 76.9242 346.318Z" fill="white"/>
</g>
<path opacity="0.2" d="M1256.5 538.284C1253.41 538.292 1250.35 537.752 1247.5 536.698C1244.65 535.643 1242.06 534.094 1239.88 532.14C1237.69 530.197 1235.96 527.885 1234.78 525.339C1233.59 522.792 1232.99 520.062 1233 517.306C1232.99 514.55 1233.59 511.82 1234.78 509.274C1235.96 506.727 1237.69 504.415 1239.88 502.472C1242.06 500.518 1244.65 498.969 1247.5 497.914C1250.35 496.86 1253.41 496.321 1256.5 496.328C1259.59 496.321 1262.64 496.86 1265.5 497.915C1268.35 498.97 1270.94 500.519 1273.12 502.473C1275.31 504.416 1277.04 506.728 1278.22 509.274C1279.4 511.82 1280.01 514.55 1280 517.306C1280.01 520.062 1279.4 522.792 1278.22 525.339C1277.04 527.885 1275.31 530.197 1273.12 532.14C1270.94 534.094 1268.35 535.643 1265.5 536.698C1262.64 537.752 1259.59 538.292 1256.5 538.284ZM1256.5 502.322C1252.05 502.327 1247.78 503.907 1244.64 506.716C1241.49 509.525 1239.72 513.334 1239.71 517.306C1239.72 521.279 1241.49 525.089 1244.63 527.898C1247.78 530.707 1252.05 532.287 1256.5 532.291C1260.95 532.288 1265.22 530.708 1268.36 527.898C1271.51 525.089 1273.28 521.279 1273.29 517.306C1273.28 513.334 1271.51 509.525 1268.36 506.716C1265.22 503.907 1260.95 502.326 1256.5 502.322Z" fill="white"/>
<defs>
<linearGradient id="paint0_linear_716_762" x1="1370.13" y1="7.06998" x2="790.547" y2="1119.05" gradientUnits="userSpaceOnUse">
<stop stop-color="#1BBFEB"/>
<stop offset="1" stop-color="#00D1FF"/>
</linearGradient>
<linearGradient id="paint1_linear_716_762" x1="496.379" y1="7.06998" x2="-166.33" y2="467.7" gradientUnits="userSpaceOnUse">
<stop stop-color="white" stop-opacity="0.07"/>
<stop offset="1" stop-color="white" stop-opacity="0"/>
</linearGradient>
<linearGradient id="paint2_linear_716_762" x1="1370" y1="5.4806" x2="828.031" y2="635.269" gradientUnits="userSpaceOnUse">
<stop stop-color="white" stop-opacity="0.09"/>
<stop offset="1" stop-color="white" stop-opacity="0"/>
</linearGradient>
</defs>
</svg>
