<svg width="200" height="200" viewBox="0 0 200 200" fill="none" xmlns="http://www.w3.org/2000/svg">
<circle cx="100" cy="100" r="100" fill="#E61686"/>
<path d="M117.72 113.066H82.2771C81.5554 113.066 80.8511 113.288 80.2602 113.702C79.6692 114.116 79.2204 114.703 78.9748 115.381C78.7293 116.06 78.699 116.798 78.888 117.494C79.077 118.19 79.4762 118.812 80.0312 119.273L85.3249 123.683C85.9558 124.21 86.7518 124.499 87.574 124.5H112.423C113.245 124.499 114.041 124.21 114.671 123.683L119.966 119.273C120.521 118.812 120.921 118.191 121.11 117.494C121.299 116.798 121.269 116.06 121.023 115.381C120.778 114.702 120.329 114.116 119.738 113.702C119.147 113.287 118.442 113.066 117.72 113.066ZM117.884 116.764L112.588 121.174C112.542 121.212 112.484 121.231 112.425 121.23H87.5772C87.5176 121.231 87.4594 121.211 87.4139 121.172L82.1186 116.762C82.0762 116.733 82.0456 116.69 82.0321 116.64C82.0186 116.591 82.0233 116.538 82.0451 116.491C82.0574 116.441 82.0872 116.397 82.1291 116.367C82.1711 116.337 82.2224 116.323 82.2737 116.328H117.717C117.768 116.323 117.82 116.337 117.862 116.367C117.904 116.397 117.933 116.441 117.946 116.491C117.992 116.587 117.962 116.703 117.875 116.764H117.884V116.764ZM129.448 113.883L124.136 118.293C123.579 118.753 123.178 119.375 122.988 120.072C122.798 120.769 122.828 121.508 123.074 122.187C123.32 122.866 123.769 123.453 124.362 123.867C124.954 124.281 125.659 124.502 126.382 124.5H139.2C141.004 124.5 142.467 123.037 142.467 121.233V116.333C142.467 114.529 141.004 113.066 139.2 113.066H131.695C130.874 113.069 130.079 113.357 129.448 113.883ZM139.2 116.333V121.233H126.382C126.33 121.238 126.279 121.224 126.236 121.194C126.194 121.164 126.164 121.12 126.152 121.07C126.13 121.024 126.125 120.973 126.139 120.924C126.152 120.876 126.183 120.834 126.225 120.807L131.538 116.387C131.584 116.348 131.642 116.327 131.702 116.329L139.2 116.333ZM70.5531 113.883C69.9243 113.359 69.1325 113.07 68.3138 113.066H60.8004C58.9962 113.066 57.5337 114.529 57.5337 116.333V121.233C57.5337 123.037 58.9962 124.5 60.8004 124.5H73.6155C74.3377 124.502 75.043 124.281 75.6349 123.867C76.2268 123.453 76.6765 122.866 76.9224 122.187C77.1683 121.508 77.1985 120.769 77.0089 120.072C76.8193 119.375 76.4191 118.754 75.863 118.293L70.5531 113.883ZM73.8492 121.07C73.8369 121.12 73.8068 121.164 73.7645 121.194C73.7222 121.224 73.6705 121.238 73.6188 121.233H60.8004V116.333H68.3138C68.3734 116.331 68.4318 116.351 68.4771 116.39L73.792 120.81C73.8302 120.84 73.8568 120.882 73.8672 120.929C73.8776 120.977 73.8713 121.026 73.8492 121.07Z" fill="white"/>
<path fill-rule="evenodd" clip-rule="evenodd" d="M72.2336 129.4H60.8003C59.8983 129.4 59.167 130.132 59.167 131.034C59.167 131.936 59.8983 132.667 60.8003 132.667H72.2336C73.1356 132.667 73.8669 131.936 73.8669 131.034C73.8669 130.132 73.1356 129.4 72.2336 129.4ZM139.2 129.4H127.767C126.865 129.4 126.134 130.132 126.134 131.034C126.134 131.936 126.865 132.667 127.767 132.667H139.2C140.102 132.667 140.834 131.936 140.834 131.034C140.834 130.132 140.102 129.4 139.2 129.4ZM114.7 129.4H85.3003C84.3983 129.4 83.667 130.132 83.667 131.034C83.667 131.936 84.3983 132.667 85.3003 132.667H114.7C115.602 132.667 116.334 131.936 116.334 131.034C116.334 130.132 115.602 129.4 114.7 129.4Z" fill="white"/>
<path d="M149 98.3666C149 95.6605 146.806 93.4667 144.1 93.4667H140.833C140.13 93.4691 139.436 93.6238 138.798 93.9201C138.16 94.2165 137.594 94.6474 137.139 95.1834L134.071 85.9829C132.962 82.6467 129.84 80.3966 126.324 80.4002H73.6755C70.1598 80.3966 67.0376 82.6467 65.9285 85.9829L62.8612 95.1834C62.4058 94.6475 61.8397 94.2165 61.2019 93.9202C60.5642 93.6239 59.8698 93.4691 59.1665 93.4667H55.9C53.1938 93.4667 51 95.6605 51 98.3666C51 101.073 53.1938 103.267 55.9 103.267H58.4904L52.4357 109.321C51.9789 109.775 51.6167 110.315 51.3703 110.91C51.1238 111.505 50.998 112.143 51 112.787V134.3C51.0042 135.31 51.3203 136.294 51.9051 137.117C52.4898 137.94 53.3146 138.563 54.2667 138.899V144.1C54.2667 146.806 56.4606 149 59.1667 149H70.6001C73.3062 149 75.5001 146.806 75.5001 144.1V139.2H124.5V144.1C124.5 146.806 126.694 149 129.4 149H140.833C143.539 149 145.733 146.806 145.733 144.1V138.899C146.685 138.563 147.51 137.94 148.095 137.117C148.68 136.294 148.996 135.31 149 134.3V112.787C149.002 112.143 148.876 111.505 148.63 110.91C148.383 110.315 148.021 109.775 147.564 109.321L141.51 103.267H144.1C146.806 103.267 149 101.073 149 98.3666ZM69.0271 87.0167C69.3524 86.0411 69.9763 85.1927 70.8106 84.5915C71.6449 83.9902 72.6471 83.6667 73.6755 83.6667H126.324C127.353 83.6667 128.355 83.9902 129.189 84.5915C130.023 85.1927 130.647 86.0411 130.973 87.0167L135.299 100H64.7004L69.0271 87.0167ZM55.9 99.9999C54.998 99.9999 54.2667 99.2686 54.2667 98.3666C54.2667 97.4646 54.998 96.7334 55.9 96.7334H59.1667C60.0687 96.7334 60.8 97.4646 60.8 98.3666V99.9999H55.9ZM72.2334 144.1C72.2334 145.002 71.5021 145.733 70.6001 145.733H59.1667C58.2647 145.733 57.5334 145.002 57.5334 144.1V139.2H72.2334V144.1ZM142.467 144.1C142.467 145.002 141.735 145.733 140.833 145.733H129.4C128.498 145.733 127.767 145.002 127.767 144.1V139.2H142.467V144.1ZM145.255 111.631C145.407 111.783 145.527 111.963 145.609 112.162C145.691 112.36 145.733 112.573 145.733 112.787V134.3C145.733 135.202 145.002 135.933 144.1 135.933H55.9C54.998 135.933 54.2667 135.202 54.2667 134.3V112.787C54.2666 112.573 54.3088 112.36 54.3909 112.161C54.473 111.963 54.5934 111.783 54.7453 111.631L63.1095 103.267H136.89L145.255 111.631ZM139.2 99.9999V98.3666C139.2 97.4646 139.931 96.7334 140.833 96.7334H144.1C145.002 96.7334 145.733 97.4646 145.733 98.3666C145.733 99.2686 145.002 99.9999 144.1 99.9999H139.2ZM145.733 51H54.2667C52.4626 51 51 52.4625 51 54.2667V57.5334C51 61.1417 53.9251 64.0668 57.5334 64.0668H65.7001V65.7001C65.7001 66.6021 66.4314 67.3334 67.3334 67.3334C68.2354 67.3334 68.9666 66.6021 68.9666 65.7001V64.0668H78.7666V65.7001C78.7666 66.6021 79.4979 67.3334 80.3999 67.3334C81.3019 67.3334 82.0331 66.6021 82.0331 65.7001V64.0668H91.8331V65.7001C91.8331 66.6021 92.5644 67.3334 93.4664 67.3334C94.3683 67.3334 95.0996 66.6021 95.0996 65.7001V64.0668H104.9V65.7001C104.9 66.6021 105.631 67.3334 106.533 67.3334C107.435 67.3334 108.166 66.6021 108.166 65.7001V64.0668H117.966V65.7001C117.966 66.6021 118.697 67.3334 119.599 67.3334C120.501 67.3334 121.233 66.6021 121.233 65.7001V64.0668H131.033V65.7001C131.033 66.6021 131.764 67.3334 132.666 67.3334C133.568 67.3334 134.299 66.6021 134.299 65.7001V64.0668H142.466C146.074 64.0668 148.999 61.1417 148.999 57.5334V54.2667C149 52.4625 147.537 51 145.733 51ZM145.733 57.5334C145.733 59.3376 144.271 60.8001 142.467 60.8001H57.5334C55.7293 60.8001 54.2667 59.3376 54.2667 57.5334V54.2667H145.733V57.5334Z" fill="white"/>
<path fill-rule="evenodd" clip-rule="evenodd" d="M75.5002 72.233V68.9663C75.5002 68.0643 74.7689 67.333 73.8669 67.333C72.9649 67.333 72.2336 68.0643 72.2336 68.9663V72.233C72.2336 73.135 72.9649 73.8663 73.8669 73.8663C74.7689 73.8663 75.5002 73.135 75.5002 72.233ZM62.4335 72.233V68.9663C62.4335 68.0643 61.7023 67.333 60.8003 67.333C59.8983 67.333 59.167 68.0643 59.167 68.9663V72.233C59.167 73.135 59.8983 73.8663 60.8003 73.8663C61.7023 73.8663 62.4335 73.135 62.4335 72.233ZM140.833 72.233V68.9663C140.833 68.0643 140.102 67.333 139.2 67.333C138.298 67.333 137.567 68.0643 137.567 68.9663V72.233C137.567 73.135 138.298 73.8663 139.2 73.8663C140.102 73.8663 140.833 73.135 140.833 72.233ZM88.5668 72.233V68.9663C88.5668 68.0643 87.8356 67.333 86.9336 67.333C86.0316 67.333 85.3003 68.0643 85.3003 68.9663V72.233C85.3003 73.135 86.0316 73.8663 86.9336 73.8663C87.8356 73.8663 88.5668 73.135 88.5668 72.233ZM101.633 72.233V68.9663C101.633 68.0643 100.902 67.333 100 67.333C99.0982 67.333 98.3669 68.0643 98.3669 68.9663V72.233C98.3669 73.135 99.0982 73.8663 100 73.8663C100.902 73.8663 101.633 73.135 101.633 72.233ZM114.7 72.233V68.9663C114.7 68.0643 113.969 67.333 113.067 67.333C112.165 67.333 111.434 68.0643 111.434 68.9663V72.233C111.434 73.135 112.165 73.8663 113.067 73.8663C113.969 73.8663 114.7 73.135 114.7 72.233ZM127.767 72.233V68.9663C127.767 68.0643 127.035 67.333 126.134 67.333C125.232 67.333 124.5 68.0643 124.5 68.9663V72.233C124.5 73.135 125.232 73.8663 126.134 73.8663C127.035 73.8663 127.767 73.135 127.767 72.233ZM82.0334 75.4997V72.233C82.0334 71.331 81.3021 70.5997 80.4002 70.5997C79.4982 70.5997 78.7669 71.331 78.7669 72.233V75.4997C78.7669 76.4017 79.4982 77.133 80.4002 77.133C81.3021 77.133 82.0334 76.4017 82.0334 75.4997ZM67.3335 77.133C68.2355 77.133 68.9668 76.4017 68.9668 75.4997V72.233C68.9668 71.331 68.2355 70.5997 67.3335 70.5997C66.4315 70.5997 65.7002 71.331 65.7002 72.233V75.4997C65.7002 76.4017 66.4315 77.133 67.3335 77.133ZM95.1001 75.4997V72.233C95.1001 71.331 94.3688 70.5997 93.4668 70.5997C92.5648 70.5997 91.8335 71.331 91.8335 72.233V75.4997C91.8335 76.4017 92.5648 77.133 93.4668 77.133C94.3688 77.133 95.1001 76.4017 95.1001 75.4997ZM108.167 75.4997V72.233C108.167 71.331 107.435 70.5997 106.533 70.5997C105.631 70.5997 104.9 71.331 104.9 72.233V75.4997C104.9 76.4017 105.631 77.133 106.533 77.133C107.435 77.133 108.167 76.4017 108.167 75.4997ZM121.233 75.4997V72.233C121.233 71.331 120.502 70.5997 119.6 70.5997C118.698 70.5997 117.967 71.331 117.967 72.233V75.4997C117.967 76.4017 118.698 77.133 119.6 77.133C120.502 77.133 121.233 76.4017 121.233 75.4997ZM134.3 75.4997V72.233C134.3 71.331 133.569 70.5997 132.667 70.5997C131.765 70.5997 131.033 71.331 131.033 72.233V75.4997C131.033 76.4017 131.765 77.133 132.667 77.133C133.569 77.133 134.3 76.4017 134.3 75.4997Z" fill="white"/>
</svg>
