<svg width="469" height="348" viewBox="0 0 469 348" fill="none" xmlns="http://www.w3.org/2000/svg">
<path opacity="0.24" d="M55.136 321.462C41.905 322.221 17.37 326.371 18.436 337.742C19.502 349.113 34.249 345.8 48.317 340.963C62.385 336.126 80.276 346.884 82.936 339.363C85.596 331.842 73.425 320.413 55.136 321.462Z" fill="#A1F4FF"/>
<path opacity="0.24" d="M115.184 334.006C115.184 334.006 106.454 336.365 115.656 342.973C124.858 349.581 134.769 334.006 145.387 336.601C156.005 339.196 173.938 340.612 168.987 326.928C164.036 313.244 123.443 325.747 115.184 334.006Z" fill="#A1F4FF"/>
<path opacity="0.24" d="M412.161 325.387C406.129 321.501 378.891 329.163 379.361 337.658C379.831 346.153 401.069 339.545 407.912 347.568C414.755 355.591 453.93 352.286 412.161 325.387Z" fill="#A1F4FF"/>
<path opacity="0.24" d="M180.87 321.846C180.87 321.846 153.07 349.455 159.439 357.946C165.808 366.437 273.407 345.677 294.408 357.946C315.409 370.215 341.836 352.283 316.352 321.609C290.868 290.935 180.87 321.846 180.87 321.846Z" fill="#A1F4FF"/>
<path opacity="0.24" d="M158.855 248.248C130.536 268.639 83.3391 296.196 33.6261 233.248C-13.2649 173.874 23.9211 42.9326 107.012 19.5736C188.237 -3.26039 246.681 115.715 276.746 76.3736C306.811 37.0326 341.846 -28.8654 398.661 13.9186C455.476 56.7026 519.861 225.134 403.869 282.919C321.855 323.772 321.671 131.009 158.855 248.248Z" fill="#A1F4FF"/>
<path d="M305.462 28.4268H176.163C167.56 28.4268 160.586 35.4008 160.586 44.0038V314.079C160.586 322.682 167.56 329.656 176.163 329.656H305.462C314.065 329.656 321.039 322.682 321.039 314.079V44.0038C321.039 35.4008 314.065 28.4268 305.462 28.4268Z" fill="url(#paint0_linear_741_2613)"/>
<path d="M315.044 49.6037V308.364C315.033 312.34 313.448 316.151 310.636 318.962C307.824 321.774 304.014 323.359 300.037 323.371H181.688C177.712 323.359 173.901 321.774 171.089 318.962C168.278 316.151 166.693 312.34 166.681 308.364V49.6037C166.693 45.6272 168.278 41.817 171.09 39.0052C173.901 36.1935 177.712 34.6086 181.688 34.5967H213.688C214.285 34.5968 214.869 34.7747 215.365 35.1077C215.861 35.4407 216.246 35.9138 216.472 36.4667L218.757 42.0477C218.966 42.5593 219.322 42.9972 219.78 43.3057C220.238 43.6142 220.778 43.7792 221.33 43.7797H265.742C266.282 43.7801 266.811 43.6231 267.263 43.3279C267.715 43.0327 268.071 42.6122 268.288 42.1177L270.434 37.2327C270.778 36.4498 271.343 35.784 272.059 35.3165C272.775 34.849 273.612 34.5999 274.467 34.5997H300.04C304.016 34.6123 307.825 36.1972 310.636 39.0082C313.447 41.8193 315.032 45.6283 315.044 49.6037Z" fill="white"/>
<path d="M166.773 67.9238V54.9536H166.681V49.4067C166.693 45.43 168.278 41.6193 171.089 38.8071C173.901 35.995 177.711 34.4096 181.688 34.3975H213.688C214.285 34.3978 214.869 34.576 215.365 34.9092C215.86 35.2424 216.245 35.7156 216.471 36.2686L218.756 41.8506C218.966 42.3603 219.322 42.7964 219.779 43.1035C220.237 43.4106 220.775 43.575 221.326 43.5757H265.736C266.276 43.5755 266.804 43.4184 267.256 43.123C267.708 42.8277 268.064 42.407 268.281 41.9126L270.427 37.0269C270.772 36.2444 271.336 35.5788 272.052 35.1113C272.768 34.6439 273.604 34.3944 274.459 34.3936H300.036C304.013 34.4054 307.824 35.9905 310.636 38.8027C313.448 41.6149 315.033 45.4259 315.044 49.4028V53.9497H315.052V67.9199L166.773 67.9238Z" fill="white"/>
<path opacity="0.57" d="M266.756 144.759C266.756 149.89 265.235 154.906 262.384 159.172C259.533 163.439 255.481 166.764 250.741 168.728C246 170.691 240.783 171.205 235.751 170.204C230.718 169.203 226.095 166.732 222.467 163.104C218.839 159.475 216.368 154.853 215.367 149.82C214.366 144.787 214.879 139.571 216.843 134.83C218.807 130.09 222.132 126.038 226.398 123.187C230.665 120.336 235.681 118.815 240.812 118.815C244.221 118.807 247.599 119.472 250.75 120.774C253.901 122.075 256.764 123.985 259.175 126.396C261.585 128.807 263.496 131.67 264.797 134.821C266.098 137.972 266.764 141.349 266.756 144.759Z" fill="#E3DCE5"/>
<path opacity="0.65" d="M257.56 164.573C252.908 168.504 247.022 170.674 240.932 170.701C234.842 170.729 228.936 168.613 224.249 164.724C224.646 160.204 225.925 155.805 228.013 151.776C228.63 150.63 229.663 149.763 230.899 149.355C232.136 148.948 233.481 149.03 234.659 149.585C236.609 150.491 238.734 150.956 240.884 150.945C243.034 150.935 245.155 150.45 247.096 149.524C248.27 148.959 249.617 148.868 250.857 149.269C252.097 149.67 253.135 150.533 253.756 151.678C255.855 155.687 257.147 160.068 257.56 164.573Z" fill="#CAC2CE"/>
<path opacity="0.65" d="M251.589 136.376C251.589 138.507 250.956 140.59 249.772 142.362C248.588 144.134 246.905 145.515 244.936 146.33C242.966 147.145 240.8 147.358 238.71 146.942C236.619 146.526 234.699 145.5 233.193 143.993C231.686 142.486 230.66 140.566 230.244 138.475C229.828 136.385 230.042 134.218 230.858 132.249C231.673 130.28 233.054 128.598 234.826 127.414C236.599 126.23 238.682 125.598 240.813 125.598C242.228 125.598 243.63 125.877 244.937 126.418C246.245 126.96 247.433 127.754 248.433 128.755C249.434 129.756 250.228 130.944 250.769 132.251C251.311 133.559 251.589 134.96 251.589 136.376Z" fill="#CAC2CE"/>
<path d="M283.07 269.887C291.722 269.887 298.736 262.873 298.736 254.221C298.736 245.569 291.722 238.555 283.07 238.555C274.418 238.555 267.404 245.569 267.404 254.221C267.404 262.873 274.418 269.887 283.07 269.887Z" fill="#E83867"/>
<path d="M285.933 247.867C285.933 247.867 287.333 243.525 288.491 243.367C289.649 243.209 294.034 246.159 293.298 250.927C292.562 255.695 285.972 262.595 280.854 263.021C275.736 263.447 272.326 260.269 272.79 259.183C273.254 258.097 275.35 255.423 277.209 256.353C279.068 257.283 280.66 259.222 282.792 257.553C284.924 255.884 288.492 252.9 288.723 251.273C288.954 249.646 285.933 249.572 285.933 247.867Z" fill="white"/>
<path d="M198.653 269.887C207.305 269.887 214.319 262.873 214.319 254.221C214.319 245.569 207.305 238.555 198.653 238.555C190.001 238.555 182.987 245.569 182.987 254.221C182.987 262.873 190.001 269.887 198.653 269.887Z" fill="#00D0EC"/>
<path d="M201.515 247.867C201.515 247.867 202.915 243.525 204.073 243.367C205.231 243.209 209.617 246.159 208.88 250.927C208.143 255.695 201.554 262.597 196.44 263.022C191.326 263.447 187.911 260.27 188.376 259.184C188.841 258.098 190.934 255.424 192.795 256.354C194.656 257.284 196.245 259.223 198.377 257.554C200.509 255.885 204.077 252.901 204.309 251.274C204.541 249.647 201.515 249.572 201.515 247.867Z" fill="white"/>
<path opacity="0.61" d="M226.294 254.221C226.294 254.694 226.153 255.157 225.89 255.551C225.627 255.945 225.253 256.252 224.815 256.433C224.378 256.615 223.896 256.662 223.432 256.57C222.967 256.477 222.54 256.249 222.205 255.914C221.87 255.579 221.642 255.152 221.55 254.688C221.458 254.223 221.505 253.742 221.686 253.304C221.867 252.867 222.174 252.492 222.568 252.229C222.962 251.966 223.425 251.826 223.899 251.826C224.213 251.826 224.525 251.888 224.815 252.008C225.106 252.128 225.37 252.305 225.592 252.527C225.815 252.75 225.991 253.014 226.112 253.304C226.232 253.595 226.294 253.906 226.294 254.221Z" fill="#E3DCE5"/>
<path opacity="0.61" d="M236.871 254.32C236.871 254.794 236.731 255.257 236.467 255.65C236.204 256.044 235.83 256.351 235.393 256.533C234.955 256.714 234.473 256.761 234.009 256.669C233.544 256.576 233.117 256.348 232.783 256.013C232.448 255.678 232.219 255.252 232.127 254.787C232.035 254.322 232.082 253.841 232.263 253.403C232.445 252.966 232.752 252.592 233.145 252.328C233.539 252.065 234.002 251.925 234.476 251.925C235.111 251.925 235.72 252.177 236.17 252.626C236.619 253.075 236.871 253.685 236.871 254.32Z" fill="#E3DCE5"/>
<path opacity="0.61" d="M247.443 254.221C247.443 254.694 247.302 255.157 247.039 255.551C246.776 255.945 246.402 256.252 245.964 256.433C245.527 256.615 245.045 256.662 244.581 256.57C244.116 256.477 243.689 256.249 243.354 255.914C243.019 255.579 242.791 255.152 242.699 254.688C242.606 254.223 242.654 253.742 242.835 253.304C243.016 252.867 243.323 252.492 243.717 252.229C244.111 251.966 244.574 251.826 245.048 251.826C245.683 251.826 246.292 252.078 246.741 252.527C247.19 252.976 247.443 253.585 247.443 254.221Z" fill="#E3DCE5"/>
<path opacity="0.61" d="M258.024 254.32C258.024 254.794 257.883 255.257 257.62 255.65C257.357 256.044 256.983 256.351 256.545 256.533C256.108 256.714 255.626 256.761 255.162 256.669C254.697 256.576 254.27 256.348 253.935 256.013C253.6 255.678 253.372 255.252 253.28 254.787C253.187 254.322 253.235 253.841 253.416 253.403C253.597 252.966 253.904 252.592 254.298 252.328C254.692 252.065 255.155 251.925 255.629 251.925C256.264 251.925 256.873 252.177 257.322 252.626C257.772 253.075 258.024 253.685 258.024 254.32Z" fill="#E3DCE5"/>
<path opacity="0.57" d="M259.022 192.255H219.109C217.601 192.255 216.154 191.656 215.087 190.589C214.021 189.523 213.421 188.076 213.421 186.568C213.421 185.059 214.021 183.613 215.087 182.546C216.154 181.48 217.601 180.881 219.109 180.881H259.022C260.53 180.881 261.977 181.48 263.044 182.546C264.11 183.613 264.71 185.059 264.71 186.568C264.71 188.076 264.11 189.523 263.044 190.589C261.977 191.656 260.53 192.255 259.022 192.255Z" fill="#CAC2CE"/>
<path opacity="0.61" d="M218.097 209.219H206.15C205.316 209.219 204.64 209.895 204.64 210.729V211.301C204.64 212.135 205.316 212.811 206.15 212.811H218.097C218.931 212.811 219.607 212.135 219.607 211.301V210.729C219.607 209.895 218.931 209.219 218.097 209.219Z" fill="#E3DCE5"/>
<path opacity="0.61" d="M238.654 209.219H226.706C225.872 209.219 225.196 209.895 225.196 210.729V211.301C225.196 212.135 225.872 212.811 226.706 212.811H238.654C239.488 212.811 240.164 212.135 240.164 211.301V210.729C240.164 209.895 239.488 209.219 238.654 209.219Z" fill="#E3DCE5"/>
<path opacity="0.61" d="M259.009 209.219H247.062C246.228 209.219 245.552 209.895 245.552 210.729V211.301C245.552 212.135 246.228 212.811 247.062 212.811H259.009C259.843 212.811 260.519 212.135 260.519 211.301V210.729C260.519 209.895 259.843 209.219 259.009 209.219Z" fill="#E3DCE5"/>
<path opacity="0.61" d="M279.565 209.219H267.617C266.783 209.219 266.107 209.895 266.107 210.729V211.301C266.107 212.135 266.783 212.811 267.617 212.811H279.565C280.399 212.811 281.075 212.135 281.075 211.301V210.729C281.075 209.895 280.399 209.219 279.565 209.219Z" fill="#E3DCE5"/>
<path opacity="0.61" d="M281.574 202.035H200.15C199.383 202.033 198.648 201.728 198.105 201.186C197.563 200.643 197.257 199.908 197.256 199.141C197.256 198.374 197.561 197.638 198.104 197.095C198.647 196.553 199.383 196.248 200.15 196.248H281.574C282.341 196.248 283.077 196.553 283.62 197.095C284.162 197.638 284.467 198.374 284.467 199.141C284.467 199.908 284.162 200.644 283.62 201.187C283.077 201.73 282.341 202.035 281.574 202.035Z" fill="#E3DCE5"/>
<path opacity="0.61" d="M265.459 306.808H212.573C211.382 306.808 210.24 306.335 209.398 305.493C208.556 304.65 208.083 303.508 208.083 302.318C208.083 301.127 208.556 299.985 209.398 299.143C210.24 298.301 211.382 297.828 212.573 297.828H265.458C266.649 297.828 267.791 298.301 268.633 299.143C269.475 299.985 269.948 301.127 269.948 302.318C269.948 302.907 269.832 303.491 269.607 304.036C269.381 304.581 269.05 305.076 268.634 305.492C268.217 305.909 267.722 306.24 267.177 306.466C266.632 306.691 266.049 306.808 265.459 306.808Z" fill="#E3DCE5"/>
<path d="M370.561 149.845L371.496 155.459H371.033L367.67 156.159L366.511 156.4C365.888 152.5 364.905 151.036 363.237 147.2C362.609 145.588 362.182 143.904 361.966 142.188C361.53 139.271 361.484 136.536 361.677 136.44C361.989 136.283 363.393 143.301 363.393 143.301C363.393 143.301 362.301 133.789 362.925 133.789C363.525 133.789 364.719 141.983 364.793 142.496C364.743 141.952 363.88 132.696 364.484 132.542C365.088 132.388 367.072 142.21 367.134 142.514C367.102 142.226 366.192 134.04 366.668 133.945C367.173 133.845 367.703 137.365 368.227 140.027C368.423 140.979 368.684 141.918 369.007 142.835C370.566 140.652 369.63 137.064 370.099 137.064C370.568 137.064 371.499 140.339 371.499 142.21C371.499 142.387 371.488 142.624 371.467 142.9C371.461 142.988 371.453 143.078 371.445 143.173C371.413 143.535 371.367 143.955 371.316 144.401C371.033 146.745 370.561 149.845 370.561 149.845Z" fill="url(#paint1_linear_741_2613)"/>
<path d="M367.052 152.11C367.082 153.48 367.288 154.84 367.665 156.158L366.506 156.399C365.883 152.499 364.9 151.035 363.232 147.199C362.604 145.586 362.177 143.903 361.961 142.187C362.417 144.15 363.188 146.027 364.245 147.745C365.803 149.771 367.052 150.083 367.052 152.11Z" fill="#F17A99"/>
<path d="M371.461 142.903C371.455 142.991 371.447 143.081 371.439 143.176C371.436 143.084 371.443 142.993 371.461 142.903Z" fill="url(#paint2_linear_741_2613)" stroke="#04006A" stroke-width="0.413" stroke-miterlimit="10"/>
<path d="M371.497 155.462H371.029L367.666 156.162L370.951 155.389C370.951 155.389 369.235 150.555 369.551 149.151C369.807 148.001 370.932 146.263 371.315 144.41C371.042 146.752 370.565 149.853 370.565 149.853L371.497 155.462Z" fill="#F17A99"/>
<path d="M418.902 321.068L419.37 336.194H418.665L417.885 328.709C417.885 328.709 418.252 334.395 413.985 337.443C408.528 341.343 406.665 337.058 408.216 334.635C410.71 330.735 411.959 327.15 412.582 320.756C413.521 320.1 414.651 319.776 415.795 319.832C416.939 319.888 418.032 320.323 418.902 321.068Z" fill="#1ACAE1"/>
<path d="M413.051 322.628C414.318 323.005 415.658 323.059 416.951 322.785C416.951 322.785 416.586 330.574 413.52 332.765C410.245 335.104 411.082 331.701 411.649 330.426C412.895 327.619 413.051 322.628 413.051 322.628Z" fill="url(#paint3_linear_741_2613)"/>
<path d="M402.603 244.815C402.603 244.815 405.103 260.409 405.878 267.27C406.653 274.131 410.556 311.87 412.578 321.07C413.1 321.411 413.678 321.659 414.286 321.802C415.052 321.988 415.847 322.019 416.625 321.894C417.403 321.768 418.148 321.488 418.816 321.07C418.816 321.07 417.569 287.387 418.192 276.94C418.815 266.493 417.412 252.769 418.816 244.817C419.886 238.757 409.909 241.932 405.099 243.788C403.601 244.361 402.603 244.815 402.603 244.815Z" fill="url(#paint4_linear_741_2613)"/>
<path d="M396.915 321.146L397.383 336.272H396.678L395.898 328.788C395.898 328.788 396.265 334.473 391.998 337.52C386.541 341.42 384.678 337.135 386.229 334.712C388.723 330.812 389.972 327.228 390.595 320.834C391.534 320.179 392.664 319.854 393.808 319.91C394.952 319.967 396.045 320.401 396.915 321.146Z" fill="#1ACAE1"/>
<path d="M391.064 322.707C392.33 323.083 393.671 323.136 394.964 322.862C394.964 322.862 394.599 330.651 391.533 332.842C388.258 335.181 389.095 331.778 389.662 330.503C390.907 327.697 391.064 322.707 391.064 322.707Z" fill="url(#paint5_linear_741_2613)"/>
<path d="M396.247 251.282C395.973 259.067 396.687 269.004 396.208 277.016C395.584 287.464 396.832 321.146 396.832 321.146C395.886 321.726 394.8 322.037 393.691 322.046C393.223 322.046 392.756 321.988 392.302 321.876C391.694 321.733 391.116 321.485 390.594 321.144C388.567 311.944 384.668 274.207 383.888 267.344C383.108 260.481 380.614 244.889 380.614 244.889C380.614 244.889 381.614 244.439 383.114 243.86C387.923 242.005 397.899 238.829 396.831 244.889C396.491 247.004 396.295 249.14 396.247 251.282Z" fill="url(#paint6_linear_741_2613)"/>
<path d="M393.692 322.048C395.121 317.098 395.152 308.726 393.717 300.719C391.846 290.271 393.405 284.501 393.717 275.3C394.029 266.099 391.534 253.469 391.534 253.469L396.248 251.281C395.974 259.066 396.688 269.003 396.209 277.015C395.585 287.463 396.833 321.145 396.833 321.145C395.887 321.726 394.801 322.038 393.692 322.048Z" fill="#F17A99"/>
<path d="M415.679 322.048C417.108 317.098 417.139 308.726 415.704 300.719C413.833 290.271 415.392 284.501 415.704 275.3C416.016 266.099 413.521 253.469 413.521 253.469L418.235 251.281C417.961 259.066 418.675 269.003 418.196 277.015C417.572 287.463 418.82 321.145 418.82 321.145C417.875 321.726 416.789 322.038 415.679 322.048Z" fill="#F17A99"/>
<path d="M387.558 152.499C387.558 152.499 388.658 147.557 386.934 135.658C385.219 123.806 386.544 116.087 391.223 118.114C391.223 118.114 391.223 114.528 396.68 113.436C402.137 112.344 408.298 116.477 409.7 124.274C411.102 132.071 412.039 147.82 414.534 152.498C417.029 157.176 387.558 152.499 387.558 152.499Z" fill="#310810"/>
<path d="M421.189 230.789C420.941 241.523 420.383 252.534 420.383 252.534C398.395 260.334 380.462 253.47 380.462 253.47C379.062 242.399 378.636 226.28 381.375 215.123C383.082 208.165 384.439 203.335 384.439 203.335L419.839 202.088C421.304 208.267 421.432 220.254 421.189 230.789Z" fill="url(#paint7_linear_741_2613)"/>
<path d="M421.189 230.789C415.996 228.102 411.144 224.801 406.737 220.957C395.858 211.828 385.18 213.93 381.375 215.124C383.082 208.166 384.439 203.336 384.439 203.336L419.839 202.089C421.305 208.267 421.433 220.254 421.189 230.789Z" fill="url(#paint8_linear_741_2613)"/>
<path d="M420.612 208.949C420.653 210.225 420.441 211.497 419.988 212.692C419.501 214.155 418.164 215.392 417.182 216.747C416.85 217.235 416.65 217.801 416.6 218.389C416.569 218.672 416.555 218.957 416.558 219.242C416.558 220.191 418.118 223.297 417.338 222.985C416.816 222.776 415.851 220.675 415.468 219.399C415.236 217.949 415.288 216.467 415.622 215.037C414.963 216.335 414.693 217.795 414.844 219.243C415.468 221.894 416.403 223.922 415.936 223.922C415.469 223.922 414.636 222.237 413.753 220.022C413.469 219.062 413.363 218.058 413.441 217.06C413.438 216.174 413.49 215.288 413.598 214.409C413.221 215.835 413.012 217.3 412.974 218.775C412.974 219.867 413.442 223.142 413.129 222.985C412.729 222.785 412.037 220.334 411.882 219.242C411.595 217.229 411.682 214.094 412.037 213.473C412.661 212.381 417.028 205.988 417.028 205.988L420.087 207.463L421.287 208.043L420.612 208.949Z" fill="url(#paint9_linear_741_2613)"/>
<path d="M420.616 208.948C420.657 210.225 420.445 211.497 419.992 212.691C419.505 214.154 418.168 215.391 417.186 216.746C416.854 217.235 416.654 217.8 416.604 218.388C416.604 218.388 416.094 216.746 417.81 214.563C419.526 212.38 418.902 210.041 419.21 209.106C419.444 208.529 419.738 207.977 420.087 207.461L421.287 208.041L420.616 208.948Z" fill="#F17A99"/>
<path d="M434.495 177.297C434.338 175.581 417.495 150.319 416.25 149.851C415.005 149.383 402.527 148.451 399.72 149.228L396.254 149.281C396.254 149.281 386.154 150.476 384.282 152.502C382.982 153.911 379.344 164.745 377.246 171.216C376.486 173.567 375.927 175.344 375.759 175.88C375.725 175.991 375.706 176.048 375.706 176.048L375.021 171.94L372.121 154.53L364.792 155.93C364.792 155.93 366.663 173.707 367.443 180.413C368.223 187.119 369.937 193.668 371.965 195.072C373.993 196.476 379.449 195.54 380.697 193.512C382.472 190.54 383.906 187.377 384.972 184.084C385.782 181.768 386.483 179.609 386.899 178.053C386.971 177.779 387.035 177.527 387.09 177.295C387.09 177.295 387.108 178.101 387.09 179.529C387.09 179.65 387.09 179.775 387.083 179.904C386.914 188.371 385.872 196.798 383.974 205.052C388.875 207.147 394.149 208.23 399.479 208.235C404.81 208.241 410.086 207.168 414.991 205.082C415.591 204.82 416.193 204.537 416.796 204.235C416.876 204.196 416.954 204.157 417.034 204.116L416.256 205.516L421.869 208.324C421.869 208.324 428.731 194.133 431.226 188.364C433.721 182.595 434.651 179.009 434.495 177.297ZM423.424 178.232C423.324 178.951 421.733 186.353 420.659 191.332C420.322 192.891 420.037 194.214 419.859 195.016C419.744 195.546 419.678 195.853 419.678 195.853C419.678 195.853 419.671 195.811 419.657 195.73C419.437 194.297 417.337 180.911 417.337 178.697C417.503 176.081 417.816 173.477 418.273 170.897C418.273 170.897 418.311 170.94 418.379 171.023C419.137 171.916 423.567 177.23 423.424 178.229V178.232Z" fill="url(#paint10_linear_741_2613)"/>
<path d="M385.999 171.212C386.208 172.673 386.637 176.005 386.899 178.051C386.483 179.607 385.782 181.766 384.972 184.082C384.309 179.948 383.122 171.816 383.815 170.432C384.75 168.561 388.181 162.01 388.181 162.01C388.181 162.01 385.687 169.029 385.999 171.212Z" fill="url(#paint11_linear_741_2613)"/>
<path d="M387.087 179.529C387.105 179.681 387.117 179.763 387.117 179.763L387.08 179.904C387.082 179.774 387.086 179.649 387.087 179.529Z" stroke="#04006A" stroke-width="0.413" stroke-miterlimit="10"/>
<path d="M417.346 178.697C417.346 180.911 419.446 194.297 419.665 195.728C418.858 198.611 417.9 201.45 416.797 204.234C416.197 204.534 413.897 205.413 413.297 205.675C413.637 201.16 415.636 196.475 414.077 187.275C411.377 171.351 413.765 164.82 413.765 164.82L418.394 171.027C418.325 170.945 418.288 170.901 418.288 170.901C417.828 173.48 417.514 176.083 417.346 178.697Z" fill="url(#paint12_linear_741_2613)"/>
<path d="M420.694 191.823C420.418 192.949 420.141 194.013 419.862 195.015C420.037 194.215 420.322 192.89 420.662 191.331L420.694 191.823Z" fill="url(#paint13_linear_741_2613)"/>
<path d="M405.958 150.315C405.958 150.315 404.936 154.454 403.658 159.432C401.706 167.053 399.158 176.64 398.783 176.357C398.568 176.197 398.169 173.057 397.737 169.019C396.915 161.319 395.977 150.319 395.977 150.319L405.958 150.315Z" fill="#EBEFF7"/>
<path d="M377.889 187.273L375.759 175.873C375.927 175.337 376.486 173.56 377.246 171.209L377.889 187.273Z" fill="url(#paint14_linear_741_2613)"/>
<path d="M405.954 150.316C405.954 150.316 401.588 155.15 395.974 150.316C396.358 149.061 396.573 147.762 396.615 146.451C396.651 145.712 396.645 144.972 396.598 144.234C396.219 144.488 395.789 144.656 395.339 144.729C394.899 144.8 394.447 144.764 394.024 144.624C392.624 144.156 389.19 139.167 388.878 128.562C388.878 128.562 391.201 127.373 392.756 123.355C393.05 122.587 393.292 121.8 393.478 121C394.045 122.676 394.965 124.211 396.176 125.502C397.387 126.793 398.86 127.81 400.496 128.485L400.522 128.639C400.675 129.463 401.461 133.38 402.991 135.189C402.991 135.189 403.146 128.64 405.173 129.107C407.2 129.574 406.006 134.823 405.797 135.345C405.485 136.125 404.705 135.657 404.705 135.657C404.705 135.657 404.554 145.95 405.954 150.316Z" fill="url(#paint15_linear_741_2613)"/>
<path d="M400.656 141.583C399.996 143.669 398.548 145.415 396.62 146.45C396.655 145.711 396.65 144.971 396.603 144.233C396.224 144.487 395.794 144.655 395.344 144.728C397.286 144 399.084 142.935 400.656 141.583Z" fill="#F17A99"/>
<path d="M400.527 128.64C396.927 128.418 394.093 125.195 392.76 123.355C393.054 122.587 393.295 121.8 393.482 121C394.049 122.676 394.969 124.211 396.18 125.502C397.39 126.793 398.863 127.81 400.5 128.485L400.527 128.64Z" fill="#F17A99"/>
<path d="M403.663 159.432C401.711 167.053 399.163 176.64 398.788 176.357C398.573 176.197 398.174 173.057 397.742 169.019L403.663 159.432Z" fill="#D8DDE5"/>
<path d="M47.4082 157.511L54.2322 151.053L67.9562 157.511L65.5562 222.911H54.1562L47.4082 157.511Z" fill="#EBEFF7"/>
<path d="M38.858 331.048C37.9943 331.485 37.0597 331.764 36.098 331.873L24.957 329.196C28.606 328.096 31.508 326.249 32.408 324.896C32.9456 323.58 33.2414 322.178 33.281 320.756C33.422 319.207 33.458 317.847 33.458 317.847L39.458 316.947C39.458 316.947 39.493 318.581 39.503 320.735C39.521 324.779 39.444 330.657 38.858 331.048Z" fill="#0693C6"/>
<path d="M39.5032 320.735C37.4399 321.022 35.3474 321.029 33.2822 320.756C33.4232 319.207 33.4592 317.847 33.4592 317.847L39.4592 316.947C39.4592 316.947 39.4942 318.584 39.5032 320.735Z" fill="#F0668F"/>
<path d="M78.6052 331.349C78.6052 331.349 70.5053 334.049 68.7053 333.694C66.9053 333.339 68.1053 329.1 68.4053 326.699C68.5114 324.822 68.478 322.939 68.3053 321.066C68.1523 318.866 67.9563 316.951 67.9563 316.951H74.1063C74.1063 316.951 74.1943 318.868 74.3253 320.851C74.4323 322.509 74.5683 324.214 74.7063 324.897C75.0053 326.399 78.6052 331.349 78.6052 331.349Z" fill="#0693C6"/>
<path d="M74.326 320.854C72.718 320.973 70.6361 321.039 68.3051 321.065C68.1521 318.865 67.9561 316.95 67.9561 316.95H74.1061C74.1061 316.95 74.194 318.867 74.326 320.854Z" fill="#F0668F"/>
<path d="M76.0572 217.658V270.453C76.0572 274.653 75.1572 318.453 75.1572 318.453H67.6572C67.6572 318.453 63.1572 279.005 63.0082 272.105C62.8592 265.205 59.8572 234.759 59.8572 234.759L59.7912 234.981L50.1092 267.757C48.7193 273.035 47.6668 278.395 46.9582 283.806C45.6082 293.555 39.9092 318.454 39.9092 318.454H32.4092L35.7092 269.854L40.9582 217.054C50.6393 218.291 60.4133 218.642 70.1582 218.101C72.1248 217.993 74.0912 217.845 76.0572 217.658Z" fill="url(#paint16_linear_741_2613)"/>
<path d="M36.158 331.949C36.158 331.949 32.446 326.999 27.399 328.349C22.352 329.699 23.539 331.498 24.429 331.949C28.2706 332.981 32.3164 332.981 36.158 331.949Z" fill="#F2F2F7"/>
<path d="M78.3061 333.298C77.0931 333.541 67.9951 334.587 67.8061 333.298C67.7261 332.447 67.9778 331.597 68.5087 330.926C69.0396 330.256 69.8088 329.816 70.6561 329.698C73.2061 329.249 78.3061 330.898 79.0561 331.648C79.8061 332.398 79.0561 333.149 78.3061 333.298Z" fill="#F2F2F7"/>
<path d="M76.0562 217.658V270.453C76.0562 274.653 75.1562 318.453 75.1562 318.453H73.1812C73.7636 310.262 73.7225 302.038 73.0582 293.853C71.8582 280.053 71.1082 274.953 73.0582 258.605C74.6142 245.549 71.4852 225.61 70.1582 218.105C72.1249 217.994 74.0909 217.845 76.0562 217.658Z" fill="url(#paint17_linear_741_2613)"/>
<path d="M59.79 234.978L50.108 267.754C48.7185 273.032 47.6663 278.392 46.958 283.803C45.608 293.552 39.909 318.451 39.909 318.451H37.54C39.7768 310.382 41.4205 302.16 42.458 293.851C43.934 283.52 41.934 282.814 45.008 267.751C46.508 260.401 51.608 253.502 53.108 244.802C54.1643 238.102 55.8724 231.521 58.208 225.153L59.79 234.978Z" fill="url(#paint18_linear_741_2613)"/>
<path d="M61.356 140.262L61.181 145.506L61.066 148.974L60.907 153.76C55.058 162.31 50.858 153.76 50.858 153.76L50.268 148.26L50.076 146.46L49.957 145.353L61.356 140.262Z" fill="url(#paint19_linear_741_2613)"/>
<path d="M61.0539 145.315L61.0599 148.786C59.6389 150.711 57.7599 152.786 56.2389 152.842C54.2389 152.912 51.6279 150.124 50.2389 148.451L49.9849 146.663C52.6589 144.914 58.0549 145.066 61.0539 145.315Z" fill="#F17A99"/>
<path d="M45.3098 135.898C45.3098 135.898 43.9098 130.705 44.4678 128.178C45.0258 125.651 47.4158 126.778 47.4158 126.778C47.0621 126.081 46.9265 125.292 47.0265 124.517C47.1266 123.741 47.4577 123.013 47.9768 122.427C49.8008 120.321 57.2408 119.339 61.5918 121.164C65.9428 122.989 63.2768 126.919 63.2768 126.919C63.2768 126.919 68.7498 125.519 64.9608 135.201L56.5368 138.698L45.3098 136.034V135.898Z" fill="#310810"/>
<path d="M47.8341 135.754C47.8341 135.754 45.7281 133.508 45.0261 134.912C44.3241 136.316 45.8681 141.512 49.2371 141.228L47.8341 135.754Z" fill="url(#paint20_linear_741_2613)"/>
<path d="M62.547 135.754C62.547 135.754 64.653 133.508 65.355 134.912C66.057 136.316 64.513 141.512 61.144 141.228L62.547 135.754Z" fill="url(#paint21_linear_741_2613)"/>
<path d="M63.2292 135.682V135.689C63.1912 136.002 62.0902 144.921 61.5752 146.549C60.6014 148.479 58.9791 150.003 56.9932 150.855C56.5736 151.031 56.1217 151.115 55.6672 151.103C53.9457 150.878 52.368 150.025 51.2362 148.708C50.6022 148.051 50.0593 147.311 49.6222 146.508C48.6152 144.618 47.6792 134.718 47.6792 134.718C48.7358 133.282 49.3669 131.577 49.5002 129.799C49.5532 129.399 49.5902 128.965 49.6122 128.507C49.6122 128.507 57.3582 126.034 62.2122 129.426C62.2122 129.426 62.2122 129.447 62.2052 129.483C62.0485 131.602 62.3995 133.727 63.2292 135.682Z" fill="url(#paint22_linear_741_2613)"/>
<path d="M62.9921 135.199C62.9741 135.516 62.4261 144.485 62.0111 146.141C61.1587 148.127 59.6337 149.749 57.7041 150.722C61.4101 148.221 62.9491 135.522 62.9921 135.199Z" fill="#F17A99"/>
<path d="M61.5849 129.017C61.5849 129.017 61.5849 129.036 61.5849 129.074C56.3849 127.865 50.8129 129.518 48.9219 130.174C48.9489 129.767 48.9609 129.334 48.9529 128.874C48.9569 128.876 56.5369 125.926 61.5849 129.017Z" fill="#F17A99"/>
<path d="M56.5578 219.456C54.0554 219.501 51.5534 219.349 49.0748 219.002C46.3991 218.677 43.7737 218.023 41.2578 217.056L39.7578 178.809C39.7578 178.809 37.3688 186.497 36.6578 189.766C36.5387 190.204 36.4736 190.655 36.4638 191.108C36.6138 192.308 38.4128 200.708 38.4128 200.708L29.7128 204.008C29.7128 204.008 25.3628 195.458 25.3628 192.608C25.3628 189.758 31.6628 162.308 33.0128 160.208C34.3628 158.108 50.8618 153.758 50.8618 153.758L56.5578 219.456Z" fill="url(#paint23_linear_741_2613)"/>
<path d="M76.018 192.152C76.1153 191.459 76.1284 190.756 76.057 190.059C75.757 188.559 73.657 182.11 73.657 182.11C73.957 185.71 76.057 220.21 76.057 220.21C74.072 220.265 71.762 220.178 69.636 220.044C65.977 219.819 62.857 219.459 62.857 219.459L61.207 153.759C67.3967 154.466 73.4273 156.189 79.056 158.859C79.956 159.459 86.256 189.007 86.256 190.207C86.256 191.407 83.706 200.107 83.706 200.107L75.232 197.728L75.157 197.706C75.157 197.706 75.175 197.618 75.205 197.459C75.351 196.682 75.805 194.217 76.005 192.278V192.252L76.014 192.17L76.018 192.152Z" fill="url(#paint24_linear_741_2613)"/>
<path d="M49.0742 219.002C46.3985 218.677 43.7731 218.023 41.2572 217.056L39.7582 178.81C39.7582 178.81 37.3692 186.498 36.6582 189.767L34.6582 195.61L40.9582 167.41C42.8233 175.061 43.4313 182.964 42.7582 190.81C41.9402 201.31 48.9182 209.347 49.0742 219.002Z" fill="url(#paint25_linear_741_2613)"/>
<path d="M73.6548 182.11C73.9548 185.71 76.0548 220.21 76.0548 220.21C74.0698 220.265 71.7598 220.178 69.6338 220.044C73.3708 212.633 72.1628 197.444 70.9548 190.062C69.6048 181.812 70.9548 165.462 70.9548 165.462C70.9548 165.462 76.5038 186.312 76.5038 187.062C76.5038 187.736 76.0978 191.423 76.0158 192.155C76.1131 191.462 76.1262 190.759 76.0548 190.062C75.7548 188.56 73.6548 182.11 73.6548 182.11Z" fill="url(#paint26_linear_741_2613)"/>
<path d="M46.207 223.507C46.0057 224.113 45.679 224.671 45.248 225.142C44.4157 226.033 43.4169 226.751 42.308 227.257C38.108 220.657 29.708 204.008 29.708 204.008L35.651 201.754L38.407 200.708C38.779 201.55 40.134 206.626 41.857 212.108C43.58 217.59 46.207 223.507 46.207 223.507Z" fill="url(#paint27_linear_741_2613)"/>
<path d="M46.2079 223.506C46.0066 224.113 45.6798 224.67 45.2489 225.142C44.0489 219.736 41.3829 218.12 39.9089 211.957C39.0229 208.359 37.587 204.918 35.6519 201.757L38.4079 200.711C38.7799 201.553 40.1349 206.629 41.8579 212.111C43.5809 217.593 46.2079 223.506 46.2079 223.506Z" fill="#F17A99"/>
<path d="M39.7592 203.407C39.7592 203.407 30.6102 206.707 30.1592 207.007C29.7082 207.307 27.1592 202.207 27.1592 202.207L39.0082 198.007C39.0082 198.007 40.4142 202.417 39.7592 203.407Z" fill="#F28941"/>
<path d="M81.7551 225.306C82.0551 226.206 82.3551 231.306 81.0051 231.906C79.6551 232.506 76.5051 232.206 76.5051 232.206C76.5051 232.206 81.6051 237.756 80.8551 237.906C80.1051 238.056 75.4551 234.006 75.1551 233.106C74.8551 232.206 72.9051 224.706 73.0551 220.806C73.2051 216.906 75.1551 197.406 75.1551 197.406L80.4261 199.07L83.7051 200.106C82.7391 203.126 77.5561 221.106 77.5561 221.106C77.5661 221.128 77.5771 221.152 77.5861 221.176C78.6381 223.621 80.2561 229.505 80.2561 229.505C80.2561 229.505 81.4551 224.406 81.7551 225.306Z" fill="url(#paint28_linear_741_2613)"/>
<path d="M77.5562 221.107C77.5662 221.129 77.5772 221.153 77.5862 221.177L76.0562 222.907C77.8562 218.258 76.9562 213.307 79.0562 207.607C80.074 204.881 80.54 201.98 80.4272 199.072L83.7062 200.108C82.7392 203.129 77.5562 221.107 77.5562 221.107Z" fill="#F17A99"/>
<path d="M73.9561 196.358L85.8051 199.658C85.2026 201.25 84.5013 202.803 83.7051 204.307C80.4483 203.688 77.2401 202.836 74.105 201.758C73.956 201.459 73.9561 196.358 73.9561 196.358Z" fill="#F28941"/>
<path d="M119.399 337.925C121.23 339.146 135.112 331.825 136.179 331.06C137.143 330.372 136.366 324.838 136.206 323.766C136.189 323.651 136.179 323.587 136.179 323.587L136.216 320.156L128.331 318.629L128.537 323.67L128.553 324.044C128.717 324.887 128.553 325.76 128.095 326.485C127.331 327.552 117.568 336.704 119.399 337.925Z" fill="#0693C6"/>
<path d="M128.327 318.629L128.533 323.67C129.742 324.191 131.042 324.467 132.358 324.484C133.674 324.502 134.98 324.259 136.203 323.77C136.186 323.655 136.176 323.591 136.176 323.591L136.213 320.16L128.327 318.629Z" fill="#FF9ABA"/>
<path d="M151.89 330.603C152.652 331.519 155.398 331.213 157.534 331.365C159.67 331.517 174.314 333.5 175.077 331.365C175.815 329.298 160.277 324.09 159.264 323.755L159.213 323.738L159.268 319.923L151.777 317.71L151.891 323.89L151.882 323.967C151.794 324.65 151.179 329.749 151.89 330.603Z" fill="#0693C6"/>
<path d="M151.89 323.891L151.881 323.968C154.318 324.537 156.862 324.465 159.263 323.757L159.212 323.74L159.267 319.925L151.776 317.712L151.89 323.891Z" fill="#FF9ABA"/>
<path d="M123.366 254.945L125.196 272.487C125.196 272.487 126.417 300.097 128.552 320.843C129.235 321.16 129.952 321.4 130.689 321.56C132.542 322.057 134.517 321.8 136.18 320.843C136.18 320.843 138.773 272.643 139.23 268.064C139.608 264.284 140.299 245.823 140.53 239.519C140.578 238.192 140.605 237.403 140.605 237.403C140.605 237.403 148.232 268.368 148.843 270.809C149.454 273.25 150.826 307.877 152.043 320.843C152.556 321.012 153.082 321.137 153.616 321.219C155.486 321.533 157.404 321.405 159.216 320.843C159.216 320.843 162.267 269.589 162.572 266.386C162.877 263.183 159.826 245.03 159.826 245.03L147.47 214.37L146.761 214.428L128.861 215.895L123.366 254.945Z" fill="url(#paint29_linear_741_2613)"/>
<path d="M123.366 254.944L125.196 272.486C125.196 272.486 126.417 300.096 128.552 320.842C129.235 321.159 129.952 321.4 130.689 321.559C129.699 318.691 130.154 305.359 130.611 297.123C131.068 288.887 130.764 286.75 129.543 274.852C128.322 262.954 134.119 251.666 135.343 237.936C136.567 224.206 144.495 224.055 144.495 224.055L146.761 214.427L128.861 215.894L123.366 254.944Z" fill="url(#paint30_linear_741_2613)"/>
<path d="M140.526 230.461V239.517C140.574 238.19 140.601 237.401 140.601 237.401C140.601 237.401 148.228 268.367 148.839 270.807C149.45 273.247 150.822 307.875 152.039 320.841C152.552 321.01 153.078 321.136 153.612 321.217C154.022 316.339 153.359 307.144 152.878 296.205C152.429 287.374 152.992 278.519 154.556 269.815C155.166 266.001 150.437 261.578 147.539 252.12C144.641 242.662 140.526 230.461 140.526 230.461Z" fill="url(#paint31_linear_741_2613)"/>
<path d="M128.857 161.434L130.6 189.561L132.365 218.026C141.822 221.077 145.941 218.026 145.941 218.026L146.334 204.615L147.466 166.01L141.212 159.604C141.212 159.604 137.093 168.299 135.72 167.994C134.347 167.689 128.857 161.434 128.857 161.434Z" fill="#EBEFF7"/>
<path d="M130.6 189.563L132.365 218.028C141.822 221.079 145.941 218.028 145.941 218.028L146.334 204.617C145.556 204.202 144.686 203.988 143.805 203.995C134.652 203.843 131.449 178.521 131.449 178.521L130.6 189.563Z" fill="#D8DDE5"/>
<path d="M127.484 126.199C127.312 125.266 126.852 124.411 126.167 123.754C125.483 123.097 124.609 122.672 123.67 122.538C120.161 121.776 113.906 126.657 114.975 135.046C116.044 143.435 122.602 140.08 122.602 140.08L127.484 126.199Z" fill="#A02240"/>
<path d="M143.095 143.146L144.263 155.029C144.263 155.029 146.496 134.568 145.331 130.929C144.111 127.115 141.06 124.829 138.466 128.029C138.466 128.029 137.856 124.369 132.517 124.064C127.178 123.759 121.382 128.944 121.076 139.012C120.98 141.918 121.608 144.802 122.903 147.405C124.199 150.008 126.121 152.248 128.497 153.924L143.095 143.146Z" fill="#310810"/>
<path d="M169.776 188.434L174.376 191.319L177.759 193.44C177.759 193.44 186.518 166.471 187.738 165.861C188.958 165.251 197.348 164.793 198.264 164.336C198.498 164.218 199.07 163.903 199.784 163.492C201.86 162.302 205.12 160.331 204.665 160.218C204.055 160.065 201.465 161.743 199.173 161.896C196.881 162.049 188.343 160.523 186.36 161.438C184.377 162.353 182.089 166.93 179.343 171.964C176.597 176.998 169.776 188.434 169.776 188.434Z" fill="url(#paint32_linear_741_2613)"/>
<path d="M174.376 191.32L177.759 193.441C177.759 193.441 186.518 166.472 187.738 165.862C188.958 165.252 197.348 164.794 198.264 164.337C198.498 164.219 199.07 163.904 199.784 163.493C196.599 163.939 193.392 164.22 190.178 164.337C186.67 164.337 185.45 164.946 184.378 169.37C183.306 173.794 177.513 188.896 174.768 190.878C174.602 190.99 174.467 191.142 174.376 191.32Z" fill="#F17A99"/>
<path d="M164.704 194.996L168.896 189.545L166.996 191.945C166.996 191.945 166.579 190.581 165.886 188.434L164.704 194.996Z" fill="url(#paint33_linear_741_2613)"/>
<path d="M126.416 146.029C127.025 146.486 127.941 145.419 127.941 145.419C128.271 149.064 129.541 156.206 129.241 159.682C129.126 161.005 127.258 161.512 127.258 161.512C127.258 161.512 133.589 169.673 135.877 169.521C138.165 169.369 142.309 159.605 142.309 159.605C141.173 159.685 140.031 159.582 138.928 159.3C138.476 159.121 138.109 158.778 137.898 158.34C137.424 157.391 137.109 156.372 136.964 155.321C136.95 155.232 136.945 155.182 136.945 155.182C137.048 155.307 137.179 155.406 137.328 155.471H137.335C137.613 155.599 137.916 155.661 138.222 155.654H138.232C138.55 155.651 138.866 155.607 139.173 155.524C139.505 155.437 139.831 155.323 140.145 155.182C140.216 155.15 140.283 155.108 140.345 155.059C142.624 153.311 143.345 139.776 143.345 139.776C142.972 139.544 142.611 139.293 142.264 139.023C139.931 137.099 138.103 134.635 136.939 131.844C136.675 132.75 136.341 133.633 135.939 134.486C134.248 137.901 131.831 140.905 128.856 143.286C128.856 143.286 127.025 138.405 125.656 139.778C124.287 141.151 125.806 145.572 126.416 146.029Z" fill="url(#paint34_linear_741_2613)"/>
<path d="M128.857 143.283C128.857 143.283 129.314 152.588 131.144 156.402C131.144 156.402 130.229 144.046 131.906 138.402L128.857 143.283Z" fill="#310810"/>
<path d="M143.197 196.673C142.326 213.738 144.265 242.435 146.248 251.893C148.231 261.351 165.773 256.469 165.773 256.469C165.773 256.469 162.873 241.669 160.281 231.758C158.218 223.868 155.481 200.914 154.445 191.865C154.18 189.54 154.027 188.131 154.027 188.131C154.027 188.131 160.586 208.42 165.773 208.877C166.598 208.895 167.404 208.627 168.055 208.119C172.903 204.813 178.434 191.945 178.434 191.945L170.503 187.521L168.936 189.495L168.898 189.545L166.998 191.945C166.998 191.945 166.581 190.581 165.888 188.434C163.627 181.411 158.443 166.009 155.405 162.504C151.439 157.928 140.074 159.683 140.074 159.683C140.074 159.683 143.958 181.724 143.197 196.673Z" fill="url(#paint35_linear_741_2613)"/>
<path d="M154.444 191.864C154.179 189.539 154.026 188.13 154.026 188.13C154.026 188.13 160.585 208.419 165.772 208.876C166.597 208.894 167.403 208.626 168.054 208.118C167.199 207.752 166.431 207.209 165.801 206.524C165.171 205.84 164.693 205.03 164.399 204.147C162.264 198.503 161.958 193.012 158.299 189.657C154.64 186.302 153.876 180.504 152.961 176.843C153.079 181.88 153.574 186.901 154.444 191.864Z" fill="url(#paint36_linear_741_2613)"/>
<path d="M94.0769 198.047C94.5349 202.166 100.177 206.131 100.177 206.131L106.185 199.422L106.736 198.809L104.447 196.674L119.547 183.708C119.547 183.708 119.554 183.901 119.571 184.26C119.72 187.66 120.52 205.96 121.071 215.893C121.681 226.876 118.784 257.693 118.784 257.693C118.784 257.693 134.953 260.286 136.936 250.523C138.919 240.76 134.953 199.269 134.801 194.846C134.649 190.423 128.318 161.058 128.318 161.058C128.318 161.058 119.852 161.592 116.344 164.49C112.836 167.388 93.6199 193.928 94.0769 198.047Z" fill="url(#paint37_linear_741_2613)"/>
<path d="M100.942 195.3L106.188 199.421L106.739 198.808L104.45 196.673L119.55 183.707C119.55 183.707 119.557 183.9 119.574 184.259L121.685 173.029C118.712 176.585 116.01 180.357 113.601 184.316C109.026 191.638 100.942 195.3 100.942 195.3Z" fill="url(#paint38_linear_741_2613)"/>
<path d="M100.179 206.131C107.349 210.403 122.603 218.331 122.603 218.331C123.17 219.053 123.902 219.629 124.738 220.009C126.416 220.925 131.755 220.009 132.365 220.314C132.975 220.619 134.195 223.365 134.5 223.214C134.805 223.063 134.042 220.014 133.89 219.554C133.738 219.094 129.924 217.724 129.924 217.724C129.924 217.724 133.89 218.487 134.347 219.097C134.804 219.707 137.093 222.911 137.247 222.757C136.844 220.989 136.175 219.292 135.264 217.724C133.917 216.923 132.498 216.25 131.026 215.714C132.534 215.864 134.013 216.232 135.416 216.808C136.332 217.265 137.705 219.554 138.162 219.708C138.619 219.862 138.01 217.726 137.705 217.115C137.4 216.504 133.281 214.064 132.091 213.607C131.322 213.307 129.233 213.654 127.36 213.767C126.484 213.865 125.597 213.811 124.74 213.607C122.909 212.997 106.74 198.962 106.74 198.962L105.062 200.796L100.179 206.131Z" fill="url(#paint39_linear_741_2613)"/>
<path d="M105.06 200.795C107.68 202.774 117.998 210.545 120.897 212.526C121.819 213.191 122.874 213.647 123.99 213.861C125.106 214.075 126.256 214.043 127.358 213.766C126.482 213.864 125.596 213.81 124.738 213.606C122.907 212.996 106.738 198.961 106.738 198.961L105.06 200.795Z" fill="#F17A99"/>
<path d="M135.94 134.485C137.816 136.298 139.947 137.827 142.266 139.022C139.933 137.098 138.106 134.634 136.941 131.843C136.677 132.749 136.342 133.632 135.94 134.485Z" fill="#F17A99"/>
<path d="M139.174 155.524C139.506 155.436 139.831 155.322 140.145 155.182C140.216 155.149 140.284 155.108 140.345 155.059C140.171 154.993 140.064 154.954 140.064 154.954C139.818 155.214 139.513 155.409 139.174 155.524Z" fill="url(#paint40_linear_741_2613)"/>
<path d="M137.331 155.474C137.609 155.601 137.912 155.664 138.218 155.657C137.915 155.638 137.617 155.576 137.331 155.474Z" fill="url(#paint41_linear_741_2613)"/>
<path d="M133.357 151.902C133.357 151.902 133.472 157.622 137.895 158.34C137.422 157.391 137.106 156.372 136.961 155.321C135.492 154.502 134.252 153.326 133.357 151.902Z" fill="#F17A99"/>
<path opacity="0.66" d="M445.15 53.4238H395.4C394.793 53.4238 394.193 53.5434 393.632 53.7756C393.072 54.0079 392.562 54.3483 392.133 54.7774C391.704 55.2065 391.364 55.716 391.132 56.2766C390.9 56.8372 390.781 57.4381 390.781 58.0448V93.6378C390.781 94.468 391.004 95.2828 391.428 95.9968C391.851 96.7107 392.459 97.2973 393.188 97.6948L388.531 110.914C388.438 111.176 388.433 111.461 388.518 111.726C388.602 111.991 388.772 112.22 389 112.379C389.228 112.539 389.502 112.618 389.78 112.606C390.057 112.595 390.324 112.492 390.537 112.314L407.437 98.2618H445.15C446.376 98.2618 447.551 97.775 448.418 96.9084C449.284 96.0418 449.771 94.8664 449.771 93.6408V58.0448C449.771 57.438 449.652 56.837 449.42 56.2763C449.187 55.7156 448.847 55.2061 448.418 54.777C447.989 54.3479 447.479 54.0075 446.919 53.7753C446.358 53.5431 445.757 53.4237 445.15 53.4238Z" fill="#62DFF0"/>
<path d="M434.524 75.8179C434.529 78.6359 433.697 81.392 432.135 83.7375C430.573 86.083 428.351 87.9126 425.749 88.995C423.147 90.0774 420.283 90.3639 417.518 89.8183C414.753 89.2727 412.212 87.9196 410.217 85.9299C408.221 83.9403 406.86 81.4035 406.306 78.6405C405.752 75.8774 406.03 73.0122 407.105 70.407C408.179 67.8019 410.002 65.5739 412.343 64.0049C414.684 62.4358 417.437 61.596 420.255 61.5919C422.127 61.5852 423.982 61.9482 425.714 62.6603C427.445 63.3723 429.019 64.4192 430.345 65.741C431.671 67.0628 432.722 68.6334 433.439 70.3626C434.157 72.0919 434.525 73.9458 434.524 75.8179Z" fill="#62DFF0"/>
<path d="M429.491 86.7099C426.94 88.8727 423.709 90.0689 420.364 90.089C417.019 90.1091 413.774 88.9518 411.196 86.82C411.41 84.3367 412.108 81.9194 413.252 79.705C413.59 79.0748 414.157 78.5983 414.835 78.3735C415.514 78.1488 416.253 78.1929 416.9 78.497C417.972 78.9929 419.14 79.2462 420.321 79.2388C421.501 79.2314 422.666 78.9634 423.731 78.454C424.376 78.1424 425.115 78.0909 425.796 78.3101C426.478 78.5292 427.048 79.0022 427.39 79.631C428.546 81.8307 429.26 84.2357 429.491 86.7099Z" fill="white"/>
<path d="M426.188 71.2279C426.19 72.3985 425.844 73.5435 425.196 74.5178C424.547 75.4922 423.623 76.2522 422.543 76.7019C421.462 77.1515 420.272 77.2705 419.123 77.0439C417.975 76.8173 416.919 76.2551 416.09 75.4286C415.261 74.6021 414.696 73.5483 414.466 72.4004C414.235 71.2526 414.351 70.0623 414.797 68.9801C415.244 67.8979 416.001 66.9723 416.973 66.3204C417.946 65.6685 419.089 65.3197 420.26 65.3179C421.037 65.3167 421.807 65.4686 422.526 65.765C423.244 66.0614 423.898 66.4963 424.448 67.0451C424.999 67.5939 425.436 68.2458 425.734 68.9635C426.033 69.6811 426.187 70.4506 426.188 71.2279Z" fill="white"/>
<path opacity="0.66" d="M49.99 93.6817V58.0907C49.99 56.8652 49.5031 55.6898 48.6365 54.8232C47.7699 53.9566 46.5946 53.4697 45.369 53.4697H-4.379C-4.98588 53.4696 -5.58683 53.589 -6.14754 53.8212C-6.70824 54.0534 -7.21771 54.3938 -7.64683 54.8229C-8.07596 55.252 -8.41634 55.7615 -8.64852 56.3222C-8.8807 56.8829 -9.00013 57.4839 -9 58.0907V93.6827C-9.00013 94.2896 -8.8807 94.8906 -8.64852 95.4513C-8.41634 96.012 -8.07596 96.5214 -7.64683 96.9506C-7.21771 97.3797 -6.70824 97.7201 -6.14754 97.9522C-5.58683 98.1844 -4.98588 98.3039 -4.379 98.3037H31.931L47.215 114.521C47.343 114.656 47.5118 114.747 47.6958 114.778C47.8797 114.809 48.0689 114.78 48.2346 114.694C48.4004 114.609 48.5337 114.471 48.6144 114.303C48.6951 114.135 48.7189 113.945 48.682 113.762L45.557 98.2937C46.7486 98.2465 47.8756 97.7399 48.7019 96.8801C49.5283 96.0204 49.9899 94.8742 49.99 93.6817Z" fill="#62DFF0"/>
<path d="M28.6491 87.5253C35.0255 83.0696 36.5826 74.2883 32.1268 67.9119C27.6711 61.5354 18.8898 59.9784 12.5134 64.4341C6.13691 68.8899 4.57987 77.6711 9.03561 84.0476C13.4914 90.424 22.2726 91.9811 28.6491 87.5253Z" fill="#62DFF0"/>
<path d="M23.1456 70.27C23.1456 70.27 24.3996 66.37 25.4456 66.229C26.4916 66.088 30.4286 68.737 29.7666 73.023C29.1046 77.309 23.1806 83.51 18.5816 83.893C13.9826 84.276 10.9166 81.419 11.3356 80.444C11.7546 79.469 13.6356 77.064 15.3066 77.901C16.9776 78.738 18.4066 80.479 20.3236 78.98C22.2406 77.481 25.4446 74.8 25.6536 73.336C25.8626 71.872 23.1456 71.803 23.1456 70.27Z" fill="white"/>
<path opacity="0.66" d="M131.621 45.8037H81.871C80.6454 45.8037 79.4701 46.2906 78.6035 47.1572C77.7369 48.0238 77.25 49.1991 77.25 50.4247V86.0167C77.2501 86.6234 77.3698 87.2241 77.6021 87.7846C77.8344 88.3451 78.1748 88.8543 78.6039 89.2832C79.033 89.7122 79.5424 90.0524 80.1029 90.2844C80.6635 90.5165 81.2643 90.6358 81.871 90.6357H105.606L116.531 110.123C116.622 110.285 116.766 110.412 116.939 110.482C117.112 110.553 117.304 110.562 117.483 110.509C117.661 110.456 117.817 110.344 117.924 110.191C118.031 110.038 118.082 109.853 118.07 109.667L116.831 90.6357H131.621C132.228 90.6358 132.829 90.5165 133.389 90.2844C133.95 90.0524 134.459 89.7122 134.888 89.2832C135.317 88.8543 135.658 88.3451 135.89 87.7846C136.122 87.2241 136.242 86.6234 136.242 86.0167V50.4247C136.242 49.1991 135.755 48.0238 134.889 47.1572C134.022 46.2906 132.847 45.8037 131.621 45.8037Z" fill="#62DFF0"/>
<path d="M118.486 62.6036V75.4036C118.486 75.7895 118.332 76.1594 118.059 76.4322C117.786 76.705 117.416 76.8583 117.03 76.8586H96.4602C96.0757 76.8565 95.7077 76.7023 95.4365 76.4296C95.1654 76.157 95.0132 75.7881 95.0132 75.4036V62.6036C95.0127 62.5113 95.0211 62.4193 95.0382 62.3286L105.511 68.2286C105.889 68.4427 106.315 68.5553 106.749 68.5553C107.183 68.5553 107.61 68.4427 107.987 68.2286L118.452 62.3286C118.475 62.4184 118.487 62.5109 118.486 62.6036Z" fill="white"/>
<path d="M118.458 60.4068L107.993 66.3068C107.615 66.5204 107.189 66.6326 106.755 66.6326C106.321 66.6326 105.895 66.5204 105.517 66.3068L95.0439 60.4068C95.0519 60.3828 95.0519 60.3578 95.0599 60.3408C95.1335 60.0424 95.3011 59.7756 95.5379 59.5798C95.7581 59.3844 96.038 59.2695 96.3319 59.2538C96.3759 59.2436 96.4208 59.2379 96.4659 59.2368H117.036C117.372 59.2353 117.699 59.3514 117.958 59.5651C118.218 59.7787 118.395 60.0765 118.458 60.4068Z" fill="white"/>
<path d="M91.2298 59.3848C91.2207 59.414 91.213 59.4437 91.2068 59.4738L91.1738 59.4508C91.1968 59.4318 91.2068 59.4088 91.2298 59.3848Z" fill="#804ECE"/>
<defs>
<linearGradient id="paint0_linear_741_2613" x1="160.586" y1="179.041" x2="321.039" y2="179.041" gradientUnits="userSpaceOnUse">
<stop stop-color="#62DFF0"/>
<stop offset="1" stop-color="#0094FF"/>
</linearGradient>
<linearGradient id="paint1_linear_741_2613" x1="372.045" y1="166.874" x2="353.703" y2="151.93" gradientUnits="userSpaceOnUse">
<stop stop-color="#E85B7D"/>
<stop offset="1" stop-color="#FF78AF"/>
</linearGradient>
<linearGradient id="paint2_linear_741_2613" x1="371.438" y1="143.04" x2="371.461" y2="143.04" gradientUnits="userSpaceOnUse">
<stop stop-color="#F99393"/>
<stop offset="1" stop-color="#FFB0B4"/>
</linearGradient>
<linearGradient id="paint3_linear_741_2613" x1="4909.69" y1="328.097" x2="4915.53" y2="328.097" gradientUnits="userSpaceOnUse">
<stop stop-color="#E85B7D"/>
<stop offset="1" stop-color="#FF78AF"/>
</linearGradient>
<linearGradient id="paint4_linear_741_2613" x1="4917.07" y1="247.979" x2="4893.95" y2="252.222" gradientUnits="userSpaceOnUse">
<stop stop-color="#E85B7D"/>
<stop offset="1" stop-color="#FF78AF"/>
</linearGradient>
<linearGradient id="paint5_linear_741_2613" x1="4931.69" y1="328.174" x2="4937.53" y2="328.174" gradientUnits="userSpaceOnUse">
<stop stop-color="#E85B7D"/>
<stop offset="1" stop-color="#FF78AF"/>
</linearGradient>
<linearGradient id="paint6_linear_741_2613" x1="396.649" y1="247.326" x2="373.622" y2="251.552" gradientUnits="userSpaceOnUse">
<stop stop-color="#E85B7D"/>
<stop offset="1" stop-color="#FF78AF"/>
</linearGradient>
<linearGradient id="paint7_linear_741_2613" x1="412.566" y1="199.975" x2="385.029" y2="245.353" gradientUnits="userSpaceOnUse">
<stop stop-color="#00E0FF"/>
<stop offset="1" stop-color="#0094FF"/>
</linearGradient>
<linearGradient id="paint8_linear_741_2613" x1="416.019" y1="166.156" x2="405.97" y2="240.99" gradientUnits="userSpaceOnUse">
<stop stop-color="#0094FF"/>
<stop offset="1" stop-color="#0094FF"/>
</linearGradient>
<linearGradient id="paint9_linear_741_2613" x1="424.131" y1="198.222" x2="409.991" y2="206.847" gradientUnits="userSpaceOnUse">
<stop stop-color="#E85B7D"/>
<stop offset="1" stop-color="#FF78AF"/>
</linearGradient>
<linearGradient id="paint10_linear_741_2613" x1="407.53" y1="237.902" x2="400.277" y2="147.938" gradientUnits="userSpaceOnUse">
<stop stop-color="#F4BA38"/>
<stop offset="1" stop-color="#FFD349"/>
</linearGradient>
<linearGradient id="paint11_linear_741_2613" x1="389.622" y1="191.586" x2="372.218" y2="187.031" gradientUnits="userSpaceOnUse">
<stop stop-color="#FF911E"/>
<stop offset="1" stop-color="#FE931E" stop-opacity="0"/>
</linearGradient>
<linearGradient id="paint12_linear_741_2613" x1="422.662" y1="218.626" x2="399.713" y2="215.74" gradientUnits="userSpaceOnUse">
<stop stop-color="#FF911E"/>
<stop offset="1" stop-color="#FE931E" stop-opacity="0"/>
</linearGradient>
<linearGradient id="paint13_linear_741_2613" x1="419.862" y1="193.173" x2="420.694" y2="193.173" gradientUnits="userSpaceOnUse">
<stop stop-color="#FF911E"/>
<stop offset="1" stop-color="#FE931E" stop-opacity="0"/>
</linearGradient>
<linearGradient id="paint14_linear_741_2613" x1="373.688" y1="179.241" x2="380.913" y2="179.241" gradientUnits="userSpaceOnUse">
<stop stop-color="#FF911E"/>
<stop offset="1" stop-color="#FE931E" stop-opacity="0"/>
</linearGradient>
<linearGradient id="paint15_linear_741_2613" x1="408.902" y1="164.829" x2="385.739" y2="144.408" gradientUnits="userSpaceOnUse">
<stop stop-color="#E85B7D"/>
<stop offset="1" stop-color="#FF78AF"/>
</linearGradient>
<linearGradient id="paint16_linear_741_2613" x1="61.3478" y1="233.481" x2="31.8685" y2="289.498" gradientUnits="userSpaceOnUse">
<stop stop-color="#0094FF"/>
<stop offset="1" stop-color="#24DBF4"/>
</linearGradient>
<linearGradient id="paint17_linear_741_2613" x1="70.1582" y1="268.056" x2="76.0562" y2="268.056" gradientUnits="userSpaceOnUse">
<stop stop-color="#6D5BB8"/>
<stop offset="1" stop-color="#604AB7" stop-opacity="0"/>
</linearGradient>
<linearGradient id="paint18_linear_741_2613" x1="53.0483" y1="213.584" x2="-11.9398" y2="266.734" gradientUnits="userSpaceOnUse">
<stop stop-color="#6D5BB8"/>
<stop offset="1" stop-color="#604AB7" stop-opacity="0"/>
</linearGradient>
<linearGradient id="paint19_linear_741_2613" x1="55.9871" y1="151.679" x2="56.9542" y2="162.719" gradientUnits="userSpaceOnUse">
<stop stop-color="#E85B7D"/>
<stop offset="1" stop-color="#FF78AF"/>
</linearGradient>
<linearGradient id="paint20_linear_741_2613" x1="50.2044" y1="138.062" x2="43.0554" y2="137.839" gradientUnits="userSpaceOnUse">
<stop stop-color="#E85B7D"/>
<stop offset="1" stop-color="#FF78AF"/>
</linearGradient>
<linearGradient id="paint21_linear_741_2613" x1="61.144" y1="137.845" x2="65.5212" y2="137.845" gradientUnits="userSpaceOnUse">
<stop stop-color="#E85B7D"/>
<stop offset="1" stop-color="#FF78AF"/>
</linearGradient>
<linearGradient id="paint22_linear_741_2613" x1="-68.075" y1="354.167" x2="-87.2716" y2="343.385" gradientUnits="userSpaceOnUse">
<stop stop-color="#E85B7D"/>
<stop offset="1" stop-color="#FF78AF"/>
</linearGradient>
<linearGradient id="paint23_linear_741_2613" x1="41.709" y1="216.31" x2="23.2642" y2="159.754" gradientUnits="userSpaceOnUse">
<stop stop-color="#F4BA38"/>
<stop offset="1" stop-color="#FFD349"/>
</linearGradient>
<linearGradient id="paint24_linear_741_2613" x1="61.4074" y1="224.68" x2="119.222" y2="189.686" gradientUnits="userSpaceOnUse">
<stop stop-color="#F4BA38"/>
<stop offset="1" stop-color="#FFD349"/>
</linearGradient>
<linearGradient id="paint25_linear_741_2613" x1="30.2325" y1="224.058" x2="77.2209" y2="216.402" gradientUnits="userSpaceOnUse">
<stop stop-color="#FF911E"/>
<stop offset="1" stop-color="#FE931E" stop-opacity="0"/>
</linearGradient>
<linearGradient id="paint26_linear_741_2613" x1="85.4829" y1="220.72" x2="31.1842" y2="219.147" gradientUnits="userSpaceOnUse">
<stop stop-color="#FF911E"/>
<stop offset="1" stop-color="#FE931E" stop-opacity="0"/>
</linearGradient>
<linearGradient id="paint27_linear_741_2613" x1="32.2159" y1="198.08" x2="52.7728" y2="216.534" gradientUnits="userSpaceOnUse">
<stop stop-color="#E85B7D"/>
<stop offset="1" stop-color="#FF78AF"/>
</linearGradient>
<linearGradient id="paint28_linear_741_2613" x1="81.3709" y1="199.796" x2="62.8096" y2="206.674" gradientUnits="userSpaceOnUse">
<stop stop-color="#E85B7D"/>
<stop offset="1" stop-color="#FF78AF"/>
</linearGradient>
<linearGradient id="paint29_linear_741_2613" x1="6510.85" y1="212.758" x2="6490.94" y2="312.249" gradientUnits="userSpaceOnUse">
<stop stop-color="#0094FF"/>
<stop offset="1" stop-color="#24DBF4"/>
</linearGradient>
<linearGradient id="paint30_linear_741_2613" x1="6520.33" y1="225.035" x2="6451.33" y2="252.353" gradientUnits="userSpaceOnUse">
<stop stop-color="#6D5BB8"/>
<stop offset="1" stop-color="#604AB7" stop-opacity="0"/>
</linearGradient>
<linearGradient id="paint31_linear_741_2613" x1="6506.69" y1="223.654" x2="6468.8" y2="231.234" gradientUnits="userSpaceOnUse">
<stop stop-color="#6D5BB8"/>
<stop offset="1" stop-color="#604AB7" stop-opacity="0"/>
</linearGradient>
<linearGradient id="paint32_linear_741_2613" x1="6474.13" y1="194.703" x2="6456.86" y2="156.056" gradientUnits="userSpaceOnUse">
<stop stop-color="#E85B7D"/>
<stop offset="1" stop-color="#FF78AF"/>
</linearGradient>
<linearGradient id="paint33_linear_741_2613" x1="6483.31" y1="191.715" x2="6487.5" y2="191.715" gradientUnits="userSpaceOnUse">
<stop stop-color="#891531"/>
<stop offset="1" stop-color="#891531" stop-opacity="0"/>
</linearGradient>
<linearGradient id="paint34_linear_741_2613" x1="6523" y1="169.523" x2="6503.67" y2="157.024" gradientUnits="userSpaceOnUse">
<stop stop-color="#E85B7D"/>
<stop offset="1" stop-color="#FF78AF"/>
</linearGradient>
<linearGradient id="paint35_linear_741_2613" x1="151.275" y1="248.678" x2="194.327" y2="188.804" gradientUnits="userSpaceOnUse">
<stop stop-color="#F4BA38"/>
<stop offset="1" stop-color="#FFD349"/>
</linearGradient>
<linearGradient id="paint36_linear_741_2613" x1="6501.2" y1="209.261" x2="6473.26" y2="199.397" gradientUnits="userSpaceOnUse">
<stop stop-color="#FF911E"/>
<stop offset="1" stop-color="#FE931E" stop-opacity="0"/>
</linearGradient>
<linearGradient id="paint37_linear_741_2613" x1="124.116" y1="248.989" x2="69.9141" y2="189.289" gradientUnits="userSpaceOnUse">
<stop stop-color="#F4BA38"/>
<stop offset="1" stop-color="#FFD349"/>
</linearGradient>
<linearGradient id="paint38_linear_741_2613" x1="6523.51" y1="200.239" x2="6563.79" y2="175.849" gradientUnits="userSpaceOnUse">
<stop stop-color="#FF911E"/>
<stop offset="1" stop-color="#FE931E" stop-opacity="0"/>
</linearGradient>
<linearGradient id="paint39_linear_741_2613" x1="6556.89" y1="194.523" x2="6537.72" y2="228.615" gradientUnits="userSpaceOnUse">
<stop stop-color="#E85B7D"/>
<stop offset="1" stop-color="#FF78AF"/>
</linearGradient>
<linearGradient id="paint40_linear_741_2613" x1="6489.91" y1="155.752" x2="6489.86" y2="155.1" gradientUnits="userSpaceOnUse">
<stop stop-color="#E85B7D"/>
<stop offset="1" stop-color="#FF78AF"/>
</linearGradient>
<linearGradient id="paint41_linear_741_2613" x1="6513.7" y1="155.646" x2="6513.7" y2="155.54" gradientUnits="userSpaceOnUse">
<stop stop-color="#E85B7D"/>
<stop offset="1" stop-color="#FF78AF"/>
</linearGradient>
</defs>
</svg>
