<svg width="200" height="200" viewBox="0 0 200 200" fill="none" xmlns="http://www.w3.org/2000/svg">
<circle cx="100" cy="100" r="100" fill="#FFC500"/>
<path d="M144.644 56.7827C144.408 56.1688 143.951 55.665 143.363 55.3696L101.181 34.2787C100.815 34.0954 100.411 34 100.001 34C99.5918 34 99.1878 34.0954 98.8216 34.2787L56.6397 55.3696C56.0519 55.665 55.5951 56.1688 55.3585 56.7827L42.1767 91.0554C42.0588 91.357 41.9989 91.6781 42 92.0019V102.547C42 103.247 42.2778 103.917 42.7722 104.412C43.2666 104.906 43.9372 105.184 44.6364 105.184H52.5455V147.366C52.5455 148.065 52.8232 148.735 53.3176 149.23C53.8121 149.724 54.4826 150.002 55.1818 150.002H144.818C145.517 150.002 146.188 149.724 146.682 149.23C147.177 148.735 147.455 148.065 147.455 147.366V105.184H155.364C156.063 105.184 156.733 104.906 157.228 104.412C157.722 103.917 158 103.247 158 102.547V92.0019C158.001 91.6784 157.942 91.3575 157.826 91.0554L144.644 56.7827ZM123.727 141.882L104.218 126.275L123.727 110.667V141.882ZM118.85 144.729H81.15L100 129.649L118.85 144.729ZM100 122.9L81.15 107.82H118.85L100 122.9ZM95.7818 126.275L76.2727 141.882V110.667L95.7818 126.275ZM142.182 144.729H129V105.184C128.971 104.494 128.685 103.839 128.196 103.351C127.708 102.863 127.054 102.576 126.364 102.547H73.6364C73.1038 102.637 71.2346 102.832 71 105.184V144.729H57.8182C57.8024 137.237 57.8314 99.0911 57.8182 92.5081L67.8179 67.5048L100 50.1786L132.182 67.5074L142.182 92.5081C142.169 98.8933 142.192 137.474 142.182 144.729ZM152.727 99.911H147.455V92.0019C147.455 91.6671 147.391 91.3349 147.267 91.0211L136.722 64.6575C136.492 64.0833 136.067 63.6083 135.522 63.3156L101.25 44.8611C100.865 44.6548 100.436 44.5468 100 44.5468C99.5639 44.5468 99.1346 44.6548 98.7504 44.8611L64.4776 63.3156C63.9335 63.6092 63.5091 64.0839 63.2781 64.6575L52.7327 91.0211C52.2449 91.6064 52.6984 99.1227 52.5455 99.911H47.2727V92.4922L59.9115 59.6326L100 39.5857L140.089 59.63L152.727 92.4922V99.911Z" fill="white"/>
<path d="M114.539 68.652L101.357 60.7429C100.947 60.4971 100.478 60.3672 100.001 60.3672C99.5228 60.3672 99.054 60.4971 98.6442 60.7429L85.4624 68.652C85.0715 68.8854 84.7478 69.2163 84.5232 69.6123C84.2986 70.0084 84.1807 70.456 84.1812 70.9113V81.4568C84.1812 82.156 84.4589 82.8266 84.9533 83.321C85.4477 83.8154 86.1183 84.0932 86.8175 84.0932H113.181C113.88 84.0932 114.551 83.8154 115.045 83.321C115.54 82.8266 115.818 82.156 115.818 81.4568V70.9113C115.818 70.4564 115.7 70.0091 115.476 69.6132C115.252 69.2172 114.929 68.8861 114.539 68.652ZM110.545 78.8204H89.4539V72.4035L99.9993 66.0763L110.545 72.4035V78.8204Z" fill="white"/>
</svg>
