<svg width="200" height="200" viewBox="0 0 200 200" fill="none" xmlns="http://www.w3.org/2000/svg">
<circle cx="100" cy="100" r="100" fill="#0ABF9E"/>
<path d="M90.8765 80.9839C76.9542 80.9839 65.6265 93.0669 65.6265 107.917C65.6265 122.768 76.9542 134.851 90.8765 134.851C104.799 134.851 116.126 122.768 116.126 107.917C116.126 93.0669 104.799 80.9839 90.8765 80.9839ZM90.8765 131.484C78.6933 131.484 68.7827 120.913 68.7827 107.917C68.7827 94.9219 78.6933 84.3506 90.8765 84.3506C103.06 84.3506 112.97 94.9219 112.97 107.917C112.97 120.913 103.06 131.484 90.8765 131.484Z" fill="white"/>
<path d="M90.8765 89.3994C81.3036 89.3994 73.5171 97.7067 73.5171 107.916C73.5171 118.125 81.3036 126.433 90.8765 126.433C100.448 126.433 108.236 118.125 108.236 107.916C108.236 97.7067 100.448 89.3994 90.8765 89.3994ZM90.8765 123.066C83.0442 123.066 76.6733 116.27 76.6733 107.916C76.6733 99.5617 83.0442 92.7661 90.8765 92.7661C98.7087 92.7661 105.08 99.5617 105.08 107.916C105.08 116.27 98.7087 123.066 90.8765 123.066Z" fill="white"/>
<path d="M100.345 106.234C99.9267 106.234 99.5253 106.411 99.2293 106.727C98.9334 107.043 98.7671 107.471 98.7671 107.917C98.7671 112.558 95.2274 116.334 90.8765 116.334C90.4579 116.334 90.0565 116.511 89.7606 116.827C89.4646 117.143 89.2983 117.571 89.2983 118.017C89.2983 118.464 89.4646 118.892 89.7606 119.208C90.0565 119.523 90.4579 119.701 90.8765 119.701C96.9664 119.701 101.923 114.413 101.923 107.917C101.923 107.471 101.757 107.043 101.461 106.727C101.165 106.411 100.764 106.234 100.345 106.234Z" fill="white"/>
<path d="M152.422 126.433H150.552C150.73 125.905 150.844 125.344 150.844 124.75V123.067C150.84 121.82 150.401 120.62 149.613 119.7C150.401 118.78 150.84 117.58 150.844 116.333V114.65C150.844 111.866 148.72 109.6 146.109 109.6H128.752V55.7333C128.752 52.0199 125.92 49 122.439 49H59.3141C55.8327 49 53.0016 52.0199 53.0016 55.7333V70.8749L53 70.8833L53.0016 70.8918V143.267C53.0016 146.98 55.8327 150 59.3141 150H147.687C151.169 150 154 146.98 154 143.267V128.117C154 127.67 153.834 127.242 153.538 126.926C153.242 126.611 152.84 126.433 152.422 126.433ZM122.437 124.75V123.067C122.437 122.62 122.604 122.192 122.9 121.876C123.196 121.561 123.597 121.383 124.016 121.383H146.109C146.528 121.383 146.929 121.561 147.225 121.876C147.521 122.192 147.687 122.62 147.687 123.067V124.75C147.687 125.196 147.521 125.625 147.225 125.94C146.929 126.256 146.528 126.433 146.109 126.433H124.016C123.597 126.433 123.196 126.256 122.9 125.94C122.604 125.625 122.437 125.196 122.437 124.75ZM147.687 114.65V116.333C147.687 116.78 147.521 117.208 147.225 117.524C146.929 117.839 146.528 118.017 146.109 118.017H124.016C123.597 118.017 123.196 117.839 122.9 117.524C122.604 117.208 122.437 116.78 122.437 116.333V114.65C122.437 114.204 122.604 113.775 122.9 113.46C123.196 113.144 123.597 112.967 124.016 112.967H146.109C146.528 112.967 146.929 113.144 147.225 113.46C147.521 113.775 147.687 114.204 147.687 114.65ZM59.3141 52.3667H122.439C124.178 52.3667 125.595 53.8783 125.595 55.7333V69.2H56.1578V55.7333C56.1578 53.8783 57.5734 52.3667 59.3141 52.3667ZM56.1578 143.267V72.5667H125.595V109.6H124.016C121.405 109.6 119.281 111.866 119.281 114.65V116.333C119.281 117.631 119.756 118.804 120.512 119.7C119.724 120.62 119.285 121.82 119.281 123.067V124.75C119.281 125.344 119.395 125.905 119.573 126.433H117.703C117.285 126.433 116.883 126.611 116.587 126.926C116.291 127.242 116.125 127.67 116.125 128.117V143.267C116.125 144.497 116.46 145.638 117.004 146.633H59.3141C57.5734 146.633 56.1578 145.123 56.1578 143.267ZM150.844 143.267C150.844 145.123 149.427 146.633 147.687 146.633H122.437C120.697 146.633 119.281 145.123 119.281 143.267V129.8H150.844V143.267Z" fill="white"/>
<path d="M64.0469 65.8339C66.6571 65.8339 68.7812 63.5681 68.7812 60.7839C68.7812 57.9997 66.6571 55.7339 64.0469 55.7339C61.4367 55.7339 59.3125 57.9997 59.3125 60.7839C59.3125 63.5681 61.4367 65.8339 64.0469 65.8339ZM64.0469 59.1006C64.4654 59.1006 64.8668 59.2779 65.1628 59.5936C65.4587 59.9093 65.625 60.3374 65.625 60.7839C65.625 61.2303 65.4587 61.6585 65.1628 61.9742C64.8668 62.2899 64.4654 62.4672 64.0469 62.4672C63.6283 62.4672 63.2269 62.2899 62.931 61.9742C62.635 61.6585 62.4688 61.2303 62.4688 60.7839C62.4688 60.3374 62.635 59.9093 62.931 59.5936C63.2269 59.2779 63.6283 59.1006 64.0469 59.1006ZM117.703 65.8339C120.313 65.8339 122.438 63.5681 122.438 60.7839C122.438 57.9997 120.313 55.7339 117.703 55.7339C115.093 55.7339 112.969 57.9997 112.969 60.7839C112.969 63.5681 115.093 65.8339 117.703 65.8339ZM117.703 59.1006C118.122 59.1006 118.523 59.2779 118.819 59.5936C119.115 59.9093 119.281 60.3374 119.281 60.7839C119.281 61.2303 119.115 61.6585 118.819 61.9742C118.523 62.2899 118.122 62.4672 117.703 62.4672C117.285 62.4672 116.883 62.2899 116.587 61.9742C116.291 61.6585 116.125 61.2303 116.125 60.7839C116.125 60.3374 116.291 59.9093 116.587 59.5936C116.883 59.2779 117.285 59.1006 117.703 59.1006ZM95.6094 65.8339H105.078C107.688 65.8339 109.812 63.5681 109.812 60.7839C109.812 57.9997 107.688 55.7339 105.078 55.7339H95.6094C92.9992 55.7339 90.875 57.9997 90.875 60.7839C90.875 63.5681 92.9992 65.8339 95.6094 65.8339ZM95.6094 59.1006H105.078C105.497 59.1006 105.898 59.2779 106.194 59.5936C106.49 59.9093 106.656 60.3374 106.656 60.7839C106.656 61.2303 106.49 61.6585 106.194 61.9742C105.898 62.2899 105.497 62.4672 105.078 62.4672H95.6094C95.1908 62.4672 94.7894 62.2899 94.4935 61.9742C94.1975 61.6585 94.0312 61.2303 94.0312 60.7839C94.0312 60.3374 94.1975 59.9093 94.4935 59.5936C94.7894 59.2779 95.1908 59.1006 95.6094 59.1006Z" fill="white"/>
</svg>
