<svg width="200" height="200" viewBox="0 0 200 200" fill="none" xmlns="http://www.w3.org/2000/svg">
<circle cx="100" cy="100" r="100" fill="#0094FF"/>
<path d="M142.005 62.5761H140.275V60.6087H141.151C141.552 60.6087 141.937 60.449 142.221 60.1647C142.504 59.8803 142.664 59.4947 142.664 59.0926V56.5638C142.664 54.3334 140.854 52.5188 138.629 52.5188H134.095C131.87 52.5188 130.06 54.3332 130.06 56.5638V59.0928C130.06 59.4949 130.219 59.8805 130.503 60.1649C130.787 60.4492 131.171 60.609 131.572 60.609H132.449V62.5763H127.54V61.4946C127.54 59.2262 125.699 57.3806 123.436 57.3806H120.167V54.4861C122.304 54.2676 123.977 52.4529 123.977 50.254C123.977 47.9082 122.074 46 119.734 46H107.759C105.419 46 103.516 47.9085 103.516 50.254C103.516 52.4529 105.189 54.2676 107.326 54.4861V57.3806H104.057C101.794 57.3806 99.9532 59.2262 99.9532 61.4946V62.5763H85.4881C81.0796 62.5763 77.4931 66.1717 77.4931 70.5909V128.247H75.4364C72.6366 128.247 70.3583 130.528 70.3549 133.335H68.4124C65.7911 133.335 63.6583 131.196 63.6583 128.569V91.1425C65.1651 90.3807 66.2036 88.8186 66.2036 87.0146V83.5693H67.9029C69.5712 83.5693 70.9283 82.2087 70.9283 80.5363V77.7792C70.9283 76.1069 69.571 74.7462 67.9029 74.7462H66.2036V71.301C66.2036 69.4969 65.1651 67.9348 63.6583 67.173V55.836C63.6583 51.2971 59.9748 47.6046 55.447 47.6046H52.3605C51.3672 46.6136 49.9989 46 48.4901 46H44.5125C44.1113 46 43.7266 46.1597 43.443 46.4441C43.1593 46.7284 43 47.1141 43 47.5162V55.4907C43 55.8928 43.1593 56.2785 43.443 56.5628C43.7266 56.8472 44.1113 57.0069 44.5125 57.0069H48.4901C49.9989 57.0069 51.3675 56.3933 52.3607 55.4024H55.447C55.6817 55.4024 55.8798 55.601 55.8798 55.836V67.1732C54.373 67.935 53.3345 69.4971 53.3345 71.3012V87.0146C53.3345 88.8186 54.373 90.3807 55.8798 91.1425V128.568C55.8798 135.496 61.5019 141.132 68.4124 141.132H70.3549C70.3583 143.938 72.6366 146.22 75.4364 146.22H77.588C78.1822 150.055 81.4984 153 85.4881 153H142.005C146.413 153 150 149.404 150 144.985V70.5909C150 66.1714 146.413 62.5761 142.005 62.5761ZM133.085 56.5638C133.085 56.0149 133.547 55.5512 134.095 55.5512H138.629C139.176 55.5512 139.639 56.0149 139.639 56.5638V57.5766H133.085V56.5638ZM135.474 60.609H137.25V62.5763H135.474V60.609ZM106.541 50.254C106.541 49.5804 107.087 49.0324 107.759 49.0324H119.734C120.406 49.0324 120.952 49.5804 120.952 50.254C120.952 50.9276 120.406 51.4758 119.734 51.4758H107.759C107.436 51.4754 107.126 51.3466 106.898 51.1175C106.67 50.8885 106.541 50.5779 106.541 50.254ZM110.351 54.5082H117.143V57.3806H110.351V54.5082ZM102.978 61.4946C102.979 61.2079 103.093 60.9329 103.295 60.7301C103.497 60.5274 103.771 60.4133 104.057 60.4129H123.436C123.722 60.4133 123.996 60.5274 124.199 60.7301C124.401 60.9329 124.515 61.2079 124.515 61.4946V62.5763H102.979V61.4946H102.978ZM85.4881 65.6085H142.005C144.745 65.6085 146.975 67.8436 146.975 70.5907V72.6831H80.5181V70.5907C80.5181 67.8436 82.7477 65.6085 85.4881 65.6085ZM146.975 75.7157V139.86H80.5181V75.7157H146.975ZM57.9476 88.6066C57.0719 88.6066 56.3595 87.8924 56.3595 87.0146V71.3012C56.3595 70.4233 57.0719 69.7092 57.9476 69.7092H61.5907C62.4662 69.7092 63.1786 70.4233 63.1786 71.3012V87.0146C63.1786 87.8924 62.4662 88.6066 61.5907 88.6066H57.9476ZM67.9036 77.7792L67.9032 80.537H66.2038V77.779L67.9036 77.7792ZM48.4901 53.9745H46.025V49.0324H48.4901C49.8494 49.0324 50.955 50.1409 50.955 51.5036C50.955 52.866 49.8491 53.9745 48.4901 53.9745ZM55.447 52.37H53.9112C53.956 52.0875 53.9799 51.7984 53.9799 51.5036C53.9799 51.2088 53.956 50.9194 53.9112 50.6372H55.447C58.3067 50.6372 60.6333 52.9695 60.6333 55.8362V66.677H58.9048V55.8362C58.9048 53.9247 57.3536 52.37 55.447 52.37ZM58.9048 128.568V91.639H60.6333V128.569C60.6333 132.869 64.123 136.367 68.4124 136.367H70.3549V138.1H68.4124C63.17 138.099 58.9048 133.824 58.9048 128.568ZM73.3798 141.125V133.341C73.3798 132.204 74.3024 131.279 75.4366 131.279H77.4933V143.187H75.4366C74.3024 143.187 73.3798 142.262 73.3798 141.125ZM142.005 149.968H85.4881C82.7475 149.968 80.5181 147.733 80.5181 144.985V142.893H146.975V144.985C146.975 147.733 144.745 149.968 142.005 149.968ZM113.747 132.527C127.354 132.527 138.425 121.429 138.425 107.788C138.425 94.1468 127.354 83.0489 113.747 83.0489C100.139 83.0489 89.0681 94.1468 89.0681 107.788C89.0681 121.429 100.139 132.527 113.747 132.527ZM113.747 86.0812C125.686 86.0812 135.4 95.8189 135.4 107.788C135.4 119.757 125.686 129.495 113.747 129.495C101.807 129.495 92.0931 119.757 92.0931 107.788C92.0931 95.8189 101.807 86.0812 113.747 86.0812ZM98.2497 97.8759L130.062 116.288C130.248 116.395 130.454 116.462 130.668 116.483C130.882 116.505 131.097 116.48 131.301 116.412C131.504 116.343 131.69 116.232 131.848 116.085C132.005 115.939 132.129 115.761 132.212 115.562C133.246 113.097 133.77 110.482 133.77 107.788C133.77 96.7193 124.788 87.7144 113.746 87.7144C107.438 87.7144 101.627 90.6049 97.802 95.6448C97.6719 95.8161 97.5797 96.0132 97.5316 96.2231C97.4834 96.433 97.4804 96.6507 97.5228 96.8618C97.5651 97.0729 97.6519 97.2725 97.7772 97.4474C97.9026 97.6223 98.0636 97.7684 98.2497 97.8759ZM117.475 102.728C118.45 103.292 118.958 104.643 118.918 106.337L113.635 103.279C115.078 102.398 116.5 102.164 117.475 102.728ZM113.747 90.747C123.12 90.747 130.746 98.3914 130.746 107.788C130.746 109.49 130.499 111.155 130.012 112.758L122.722 108.538L124.688 108.01C125.074 107.905 125.403 107.65 125.603 107.302C125.802 106.955 125.856 106.542 125.753 106.154C125.649 105.767 125.397 105.436 125.05 105.235C124.704 105.034 124.292 104.978 123.905 105.081L121.929 105.612C121.866 104.457 121.606 103.404 121.166 102.502L124.333 99.3278C124.612 99.0425 124.767 98.6584 124.765 98.2589C124.763 97.8594 124.604 97.4768 124.322 97.1944C124.041 96.9119 123.659 96.7523 123.26 96.7503C122.862 96.7483 122.479 96.904 122.194 97.1837L119.167 100.219C119.107 100.18 119.05 100.137 118.988 100.101C118.925 100.066 118.862 100.032 118.798 99.9988L119.905 95.8588C120.007 95.4709 119.952 95.0581 119.751 94.711C119.55 94.3639 119.221 94.1107 118.834 94.0069C118.447 93.9031 118.036 93.9571 117.689 94.1571C117.342 94.3571 117.088 94.6868 116.983 95.074L115.824 99.409C114.884 99.4738 113.907 99.7458 112.937 100.213L112.469 98.4621C112.364 98.0749 112.111 97.7452 111.764 97.5451C111.417 97.3451 111.005 97.2911 110.618 97.3949C110.232 97.4988 109.902 97.752 109.701 98.0991C109.501 98.4462 109.445 98.8589 109.547 99.2468L110.074 101.218L101.324 96.154C104.533 92.6981 108.972 90.747 113.747 90.747ZM113.747 127.861C120.055 127.861 125.866 124.971 129.691 119.931C129.821 119.76 129.913 119.563 129.961 119.353C130.009 119.143 130.012 118.925 129.97 118.714C129.927 118.503 129.841 118.304 129.716 118.129C129.59 117.954 129.429 117.808 129.243 117.7L97.4313 99.2882C97.2454 99.1806 97.0389 99.1139 96.8253 99.0926C96.6118 99.0712 96.3962 99.0956 96.1928 99.1642C95.9894 99.2328 95.8029 99.344 95.6457 99.4904C95.4885 99.6368 95.3642 99.8151 95.2809 100.013C94.2468 102.478 93.7227 105.093 93.7227 107.788C93.7224 118.857 102.705 127.861 113.747 127.861ZM111.352 116.392L113.747 112.233L115.954 113.51C114.511 115.185 112.792 116.247 111.352 116.392ZM108.745 114.854C108.184 113.574 108.165 111.599 108.918 109.438L111.128 110.717L108.745 114.854ZM97.4807 102.819L106.261 107.9C105.954 108.678 105.72 109.454 105.56 110.214L102.805 110.954C102.419 111.06 102.09 111.314 101.89 111.662C101.691 112.01 101.637 112.422 101.741 112.81C101.844 113.198 102.097 113.528 102.443 113.729C102.789 113.931 103.201 113.986 103.588 113.883L105.322 113.418C105.494 115.754 106.488 117.695 108.263 118.723C109.094 119.204 110.019 119.433 110.988 119.433C112.125 119.433 113.32 119.113 114.493 118.516L115.024 120.503C115.128 120.891 115.381 121.222 115.729 121.423C116.076 121.624 116.489 121.679 116.876 121.575C117.264 121.471 117.594 121.217 117.795 120.868C117.995 120.52 118.05 120.106 117.946 119.718L117.127 116.655C117.662 116.158 118.158 115.621 118.612 115.049L126.169 119.423C122.961 122.878 118.521 124.829 113.747 124.829C104.374 124.829 96.7476 117.185 96.7476 107.788C96.7474 106.085 96.9935 104.42 97.4807 102.819Z" fill="white"/>
</svg>
