<svg width="200" height="200" viewBox="0 0 200 200" fill="none" xmlns="http://www.w3.org/2000/svg">
<circle cx="100" cy="100" r="100" fill="#46C3F8"/>
<path d="M140.404 75.6348V58.4571C140.404 57.9093 140.622 57.384 141.009 56.9967C141.396 56.6093 141.922 56.3917 142.47 56.3917C143.017 56.3917 143.543 56.6093 143.93 56.9967C144.317 57.384 144.535 57.9093 144.535 58.4571C144.535 60.1004 145.188 61.6764 146.35 62.8384C147.512 64.0004 149.088 64.6532 150.731 64.6532C152.374 64.6532 153.95 64.0004 155.112 62.8384C156.274 61.6764 156.927 60.1004 156.927 58.4571C156.93 55.2937 155.895 52.2167 153.979 49.6989C152.064 47.1811 149.375 45.3617 146.326 44.5203C143.276 43.6789 140.035 43.8619 137.099 45.0413C134.164 46.2207 131.697 48.3312 130.077 51.0486C128.458 48.3312 125.991 46.2207 123.055 45.0413C120.12 43.8619 116.879 43.6789 113.829 44.5203C110.78 45.3617 108.091 47.1811 106.175 49.6989C104.26 52.2167 103.225 55.2937 103.228 58.4571V71.4173C100.351 72.4979 97.6017 73.89 95.0281 75.5687C92.3707 77.2758 89.3798 78.3967 86.2549 78.8565C83.1301 79.3162 79.9431 79.1044 76.9066 78.2351C71.991 76.8691 66.826 76.6595 61.8159 77.6226C56.8058 78.5857 52.0866 80.6954 48.0278 83.7865C43.9691 86.8777 40.6809 90.8663 38.4207 95.4402C36.1606 100.014 34.9898 105.049 35.0001 110.151C35.0103 115.253 36.2014 120.283 38.4799 124.848C40.7584 129.412 44.0626 133.388 48.1338 136.463C52.205 139.537 56.9326 141.628 61.9465 142.571C66.9605 143.514 72.1246 143.284 77.0346 141.898C80.0546 141.038 83.224 140.837 86.3283 141.309C89.4327 141.78 92.3995 142.913 95.0281 144.63C101.717 149.059 109.566 151.414 117.588 151.399C119.238 151.399 120.886 151.301 122.526 151.111C130.939 150.127 138.844 146.578 145.17 140.946C151.496 135.315 155.937 127.873 157.889 119.632C159.841 111.39 159.21 102.748 156.082 94.877C152.954 87.0062 147.481 80.2882 140.404 75.6348ZM109.424 93.5683C110.701 93.563 111.945 93.1633 112.986 92.4239C114.027 91.6845 114.814 90.6415 115.24 89.4376H128.392C128.768 90.513 129.435 91.4631 130.318 92.1827C131.201 92.9023 132.267 93.3632 133.396 93.5142C134.525 93.6652 135.674 93.5005 136.715 93.0383C137.757 92.5761 138.65 91.8345 139.295 90.8957C142.006 93.9179 144.043 97.4815 145.273 101.35C146.502 105.219 146.895 109.306 146.427 113.338C145.691 119.812 142.793 125.848 138.202 130.471C133.611 135.094 127.595 138.033 121.126 138.814C119.984 138.944 118.834 139.008 117.685 139.006C112.052 139.015 106.541 137.362 101.842 134.256C97.7238 131.582 93.0831 129.817 88.2291 129.079C83.3752 128.341 78.4196 128.646 73.6929 129.975C70.9915 130.726 68.1674 130.93 65.386 130.576C62.5973 130.181 59.9186 129.221 57.5147 127.754C55.1108 126.286 53.0324 124.343 51.4073 122.042C49.7822 119.742 48.6447 117.134 48.0648 114.378C47.4849 111.622 47.4748 108.776 48.0351 106.016C48.5955 103.256 49.7144 100.639 51.3232 98.3276C52.9319 96.0159 54.9965 94.0576 57.39 92.5731C59.7834 91.0887 62.4552 90.1094 65.2411 89.6956C68.0269 89.2818 70.868 89.4421 73.5896 90.1667C78.3321 91.5016 83.3042 91.8127 88.1761 91.0796C93.0481 90.3464 97.7084 88.5856 101.848 85.9141C102.296 85.6167 102.765 85.3564 103.228 85.0879V87.3722C103.228 89.0155 103.88 90.5915 105.042 91.7535C106.204 92.9155 107.78 93.5683 109.424 93.5683ZM115.62 85.3069V81.1761H128.012V85.3069H115.62ZM128.012 77.0454H115.62V72.9147H128.012V77.0454ZM128.012 68.7839H115.62V58.4571C115.62 57.9093 115.837 57.384 116.225 56.9967C116.612 56.6093 117.137 56.3917 117.685 56.3917C118.233 56.3917 118.758 56.6093 119.146 56.9967C119.533 57.384 119.751 57.9093 119.751 58.4571C119.751 60.1004 120.403 61.6764 121.565 62.8384C122.727 64.0004 124.303 64.6532 125.947 64.6532C126.651 64.647 127.351 64.5169 128.012 64.2732V68.7839ZM142.47 48.1303C145.207 48.1336 147.832 49.2226 149.768 51.1586C151.704 53.0945 152.793 55.7193 152.796 58.4571C152.796 59.0049 152.579 59.5302 152.191 59.9175C151.804 60.3049 151.279 60.5225 150.731 60.5225C150.183 60.5225 149.658 60.3049 149.271 59.9175C148.883 59.5302 148.666 59.0049 148.666 58.4571C148.666 56.8138 148.013 55.2378 146.851 54.0758C145.689 52.9138 144.113 52.261 142.47 52.261C140.826 52.261 139.25 52.9138 138.088 54.0758C136.926 55.2378 136.273 56.8138 136.273 58.4571V87.3722C136.273 87.92 136.056 88.4453 135.669 88.8327C135.281 89.22 134.756 89.4376 134.208 89.4376C133.66 89.4376 133.135 89.22 132.748 88.8327C132.36 88.4453 132.143 87.92 132.143 87.3722V58.4571C132.146 55.7193 133.235 53.0945 135.171 51.1586C137.107 49.2226 139.732 48.1336 142.47 48.1303ZM117.685 48.1303C120.423 48.1336 123.048 49.2226 124.984 51.1586C126.92 53.0945 128.009 55.7193 128.012 58.4571C128.012 59.0049 127.794 59.5302 127.407 59.9175C127.02 60.3049 126.494 60.5225 125.947 60.5225C125.399 60.5225 124.874 60.3049 124.486 59.9175C124.099 59.5302 123.881 59.0049 123.881 58.4571C123.881 56.8138 123.228 55.2378 122.066 54.0758C120.904 52.9138 119.328 52.261 117.685 52.261C116.042 52.261 114.466 52.9138 113.304 54.0758C112.142 55.2378 111.489 56.8138 111.489 58.4571V87.3722C111.489 87.92 111.271 88.4453 110.884 88.8327C110.497 89.22 109.971 89.4376 109.424 89.4376C108.876 89.4376 108.351 89.22 107.963 88.8327C107.576 88.4453 107.358 87.92 107.358 87.3722V58.4571C107.362 55.7193 108.451 53.0945 110.387 51.1586C112.323 49.2226 114.947 48.1336 117.685 48.1303ZM154.655 114.222C153.71 122.559 149.978 130.333 144.062 136.284C138.147 142.234 130.395 146.013 122.064 147.008C113.382 148.065 104.608 145.999 97.3103 141.179C94.1863 139.139 90.6611 137.792 86.9724 137.231C83.2837 136.669 79.5174 136.904 75.9276 137.922C71.8852 139.066 67.6418 139.313 63.4938 138.647C59.3459 137.981 55.3934 136.417 51.9125 134.065C48.4316 131.713 45.5062 128.629 43.3406 125.029C41.1751 121.429 39.8216 117.4 39.3748 113.222C38.919 109.178 39.3297 105.082 40.5797 101.209C41.8297 97.3355 43.8902 93.7726 46.6242 90.7574C50.215 86.7618 54.8479 83.8455 60.0033 82.3356C65.1588 80.8256 70.633 80.7817 75.8119 82.2088C79.4136 83.2344 83.1926 83.4799 86.8966 82.9289C90.6007 82.3779 94.1446 81.0432 97.2917 79.0137C99.1738 77.7899 101.16 76.7346 103.228 75.8599V80.4202C101.966 81.0186 100.746 81.701 99.576 82.4629C95.9313 84.8139 91.8276 86.3615 87.538 87.0025C83.2484 87.6436 78.8715 87.3633 74.6987 86.1805C71.4222 85.281 67.9957 85.0645 64.632 85.5445C61.2683 86.0245 58.0391 87.1907 55.1449 88.9708C52.2507 90.7509 49.7533 93.1068 47.8076 95.8923C45.862 98.6779 44.5096 101.834 43.8344 105.164C43.1592 108.494 43.1757 111.927 43.8828 115.25C44.5898 118.574 45.9724 121.716 47.9448 124.483C49.9171 127.25 52.437 129.582 55.3481 131.334C58.2592 133.086 61.4994 134.221 64.8676 134.669C68.1928 135.088 71.5697 134.845 74.7999 133.95C78.9588 132.78 83.3192 132.511 87.5905 133.159C91.8618 133.808 95.9457 135.36 99.5698 137.711C104.944 141.26 111.245 143.147 117.685 143.137C118.996 143.14 120.307 143.067 121.609 142.918C129.004 142.021 135.879 138.658 141.126 133.371C146.373 128.084 149.684 121.183 150.524 113.782C151.115 108.702 150.507 103.554 148.749 98.7514C146.992 93.9486 144.134 89.6242 140.404 86.1247V80.7011C145.469 84.5846 149.444 89.7125 151.941 95.5862C154.438 101.46 155.373 107.88 154.655 114.222Z" fill="white"/>
<path d="M92.9006 114.222C92.2752 114.215 91.6586 114.073 91.0927 113.806C90.5268 113.54 90.0249 113.155 89.6208 112.677C88.8448 111.86 87.9107 111.21 86.8753 110.765C85.84 110.321 84.725 110.091 83.5982 110.091C82.4715 110.091 81.3565 110.321 80.3211 110.765C79.2858 111.21 78.3517 111.86 77.5756 112.677C77.1774 113.16 76.6773 113.549 76.1112 113.816C75.5451 114.083 74.9269 114.221 74.301 114.221C73.6751 114.221 73.0569 114.083 72.4908 113.816C71.9246 113.549 71.4246 113.16 71.0263 112.677C70.2519 111.86 69.319 111.209 68.2846 110.764C67.2502 110.319 66.136 110.09 65.0099 110.09C63.8839 110.09 62.7697 110.319 61.7353 110.764C60.7009 111.209 59.768 111.86 58.9935 112.677C58.5918 113.155 58.0917 113.54 57.5275 113.806C56.9632 114.073 56.3481 114.215 55.7241 114.222C55.1763 114.222 54.651 114.44 54.2636 114.827C53.8763 115.214 53.6587 115.74 53.6587 116.287C53.6587 116.835 53.8763 117.36 54.2636 117.748C54.651 118.135 55.1763 118.353 55.7241 118.353C56.8495 118.349 57.9625 118.117 58.9964 117.673C60.0302 117.228 60.9636 116.579 61.7405 115.765C62.1381 115.282 62.6375 114.894 63.2029 114.627C63.7684 114.36 64.3858 114.222 65.011 114.222C65.6361 114.222 66.2536 114.36 66.819 114.627C67.3844 114.894 67.8839 115.282 68.2815 115.765C69.0565 116.582 69.9898 117.233 71.0245 117.678C72.0592 118.122 73.1737 118.352 74.3 118.352C75.4262 118.352 76.5407 118.122 77.5754 117.678C78.6101 117.233 79.5434 116.582 80.3184 115.765C80.7176 115.282 81.2186 114.893 81.7856 114.626C82.3526 114.359 82.9715 114.22 83.5982 114.22C84.2249 114.22 84.8439 114.359 85.4109 114.626C85.9778 114.893 86.4788 115.282 86.878 115.765C87.6561 116.579 88.5905 117.228 89.6254 117.673C90.6603 118.118 91.7743 118.349 92.9006 118.353C93.4484 118.353 93.9737 118.135 94.3611 117.748C94.7484 117.36 94.966 116.835 94.966 116.287C94.966 115.74 94.7484 115.214 94.3611 114.827C93.9737 114.44 93.4484 114.222 92.9006 114.222ZM99.0802 101.83C98.4563 101.823 97.8413 101.681 97.2771 101.415C96.7128 101.149 96.2127 100.764 95.8107 100.287C95.0363 99.4696 94.1033 98.8186 93.0689 98.3737C92.0345 97.9288 90.9203 97.6994 89.7943 97.6994C88.6683 97.6994 87.5541 97.9288 86.5197 98.3737C85.4853 98.8186 84.5524 99.4696 83.7779 100.287C83.376 100.764 82.8758 101.149 82.3116 101.415C81.7473 101.681 81.1323 101.823 80.5084 101.83C79.9607 101.83 79.4353 102.047 79.048 102.435C78.6607 102.822 78.4431 103.347 78.4431 103.895C78.4431 104.443 78.6607 104.968 79.048 105.356C79.4353 105.743 79.9607 105.96 80.5084 105.96C81.6339 105.956 82.7469 105.725 83.7807 105.281C84.8146 104.836 85.748 104.187 86.5248 103.373C86.9225 102.89 87.4219 102.502 87.9873 102.235C88.5527 101.968 89.1702 101.83 89.7954 101.83C90.4205 101.83 91.038 101.968 91.6034 102.235C92.1688 102.502 92.6682 102.89 93.0659 103.373C93.8409 104.19 94.7742 104.841 95.8089 105.285C96.8436 105.73 97.9581 105.959 99.0843 105.959C100.211 105.959 101.325 105.73 102.36 105.285C103.395 104.841 104.328 104.19 105.103 103.373C105.502 102.889 106.003 102.501 106.57 102.234C107.137 101.967 107.756 101.828 108.383 101.828C109.009 101.828 109.628 101.967 110.195 102.234C110.762 102.501 111.263 102.889 111.662 103.373C112.44 104.187 113.375 104.836 114.41 105.281C115.445 105.725 116.559 105.957 117.685 105.96C118.233 105.96 118.758 105.743 119.145 105.356C119.533 104.968 119.75 104.443 119.75 103.895C119.75 103.347 119.533 102.822 119.145 102.435C118.758 102.047 118.233 101.83 117.685 101.83C117.06 101.822 116.443 101.681 115.877 101.414C115.311 101.147 114.809 100.762 114.405 100.285C113.629 99.468 112.695 98.8175 111.66 98.3729C110.624 97.9284 109.509 97.6992 108.383 97.6992C107.256 97.6992 106.141 97.9284 105.106 98.3729C104.07 98.8175 103.136 99.468 102.36 100.285C101.542 101.251 100.346 101.813 99.0802 101.83ZM112.511 110.091C111.386 110.095 110.273 110.326 109.24 110.771C108.206 111.216 107.273 111.865 106.497 112.679C106.095 113.156 105.595 113.541 105.031 113.807C104.466 114.074 103.851 114.215 103.227 114.222C102.68 114.222 102.154 114.44 101.767 114.827C101.38 115.214 101.162 115.74 101.162 116.287C101.162 116.835 101.38 117.36 101.767 117.748C102.154 118.135 102.68 118.353 103.227 118.353C104.353 118.349 105.466 118.117 106.5 117.673C107.534 117.228 108.467 116.579 109.244 115.765C109.641 115.282 110.141 114.894 110.706 114.627C111.272 114.36 111.889 114.222 112.514 114.222C113.14 114.222 113.757 114.36 114.322 114.627C114.888 114.894 115.387 115.282 115.785 115.765C116.56 116.582 117.493 117.233 118.528 117.678C119.563 118.122 120.677 118.352 121.803 118.352C122.93 118.352 124.044 118.122 125.079 117.678C126.114 117.233 127.047 116.582 127.822 115.765C128.221 115.282 128.722 114.893 129.289 114.626C129.856 114.359 130.475 114.22 131.102 114.22C131.728 114.22 132.347 114.359 132.914 114.626C133.481 114.893 133.982 115.282 134.381 115.765C135.159 116.579 136.094 117.228 137.129 117.673C138.164 118.118 139.278 118.349 140.404 118.353C140.952 118.353 141.477 118.135 141.864 117.748C142.252 117.36 142.469 116.835 142.469 116.287C142.469 115.74 142.252 115.214 141.864 114.827C141.477 114.44 140.952 114.222 140.404 114.222C139.779 114.215 139.162 114.073 138.596 113.806C138.03 113.54 137.528 113.155 137.124 112.677C136.348 111.86 135.414 111.21 134.379 110.765C133.343 110.321 132.228 110.091 131.102 110.091C129.975 110.091 128.86 110.321 127.825 110.765C126.789 111.21 125.855 111.86 125.079 112.677C124.681 113.16 124.181 113.549 123.615 113.816C123.048 114.083 122.43 114.221 121.804 114.221C121.178 114.221 120.56 114.083 119.994 113.816C119.428 113.549 118.928 113.16 118.53 112.677C117.752 111.863 116.818 111.215 115.784 110.77C114.75 110.326 113.637 110.095 112.511 110.091Z" fill="white"/>
</svg>
