<svg width="38" height="38" viewBox="0 0 38 38" fill="none" xmlns="http://www.w3.org/2000/svg">
<path d="M10.2275 20.1128C10.2275 19.8053 9.97839 19.5562 9.6709 19.5562C9.36341 19.5562 9.11426 19.8053 9.11426 20.1128V21.2187C9.11426 21.5261 9.36341 21.7753 9.6709 21.7753C9.97839 21.7753 10.2275 21.5261 10.2275 21.2187V20.1128ZM14.9416 20.1128C14.9416 19.8053 14.6925 19.5562 14.385 19.5562C14.0775 19.5562 13.8283 19.8053 13.8283 20.1128V21.2187C13.8283 21.5261 14.0775 21.7753 14.385 21.7753C14.6925 21.7753 14.9416 21.5261 14.9416 21.2187V20.1128ZM19.0989 21.7754C19.4064 21.7754 19.6555 21.5262 19.6555 21.2187V20.1129C19.6555 19.8054 19.4064 19.5562 19.0989 19.5562C18.7914 19.5562 18.5423 19.8054 18.5423 20.1129V21.2187C18.5423 21.3664 18.6009 21.5079 18.7053 21.6123C18.8097 21.7167 18.9513 21.7754 19.0989 21.7754ZM10.2275 24.6106C10.2275 24.3031 9.97839 24.054 9.6709 24.054C9.36341 24.054 9.11426 24.3031 9.11426 24.6106V25.7164C9.11426 26.0239 9.36341 26.273 9.6709 26.273C9.97839 26.273 10.2275 26.0239 10.2275 25.7164V24.6106ZM14.9416 24.6106C14.9416 24.3031 14.6925 24.054 14.385 24.054C14.0775 24.054 13.8283 24.3031 13.8283 24.6106V25.7164C13.8283 26.0239 14.0775 26.273 14.385 26.273C14.6925 26.273 14.9416 26.0239 14.9416 25.7164V24.6106ZM18.5423 25.7164C18.5423 26.0239 18.7914 26.273 19.0989 26.273C19.4064 26.273 19.6555 26.0239 19.6555 25.7164V24.6106C19.6555 24.3031 19.4064 24.054 19.0989 24.054C18.7914 24.054 18.5423 24.3031 18.5423 24.6106V25.7164ZM23.813 26.273C24.1205 26.273 24.3696 26.0239 24.3696 25.7164V24.6106C24.3696 24.3031 24.1205 24.054 23.813 24.054C23.5055 24.054 23.2563 24.3031 23.2563 24.6106V25.7164C23.2563 26.0239 23.5055 26.273 23.813 26.273ZM28.527 26.273C28.8345 26.273 29.0836 26.0239 29.0836 25.7164V24.6106C29.0836 24.3031 28.8345 24.054 28.527 24.054C28.2195 24.054 27.9703 24.3031 27.9703 24.6106V25.7164C27.9703 25.864 28.029 26.0056 28.1334 26.11C28.2378 26.2144 28.3794 26.273 28.527 26.273ZM10.2275 29.1083C10.2275 28.8008 9.97839 28.5516 9.6709 28.5516C9.36341 28.5516 9.11426 28.8008 9.11426 29.1083V30.2141C9.11426 30.5216 9.36341 30.7708 9.6709 30.7708C9.97839 30.7708 10.2275 30.5216 10.2275 30.2141V29.1083ZM14.9416 29.1083C14.9416 28.8008 14.6925 28.5516 14.385 28.5516C14.0775 28.5516 13.8283 28.8008 13.8283 29.1083V30.2141C13.8283 30.5216 14.0775 30.7708 14.385 30.7708C14.6925 30.7708 14.9416 30.5216 14.9416 30.2141V29.1083ZM18.5423 30.2142C18.5423 30.5217 18.7914 30.7708 19.0989 30.7708C19.4064 30.7708 19.6555 30.5217 19.6555 30.2142V29.1083C19.6555 28.8008 19.4064 28.5517 19.0989 28.5517C18.7914 28.5517 18.5423 28.8008 18.5423 29.1083V30.2142ZM23.2563 30.2142C23.2563 30.5217 23.5055 30.7708 23.813 30.7708C24.1205 30.7708 24.3696 30.5217 24.3696 30.2142V29.1083C24.3696 28.8008 24.1205 28.5517 23.813 28.5517C23.5055 28.5517 23.2563 28.8008 23.2563 29.1083V30.2142ZM27.9703 30.2142C27.9703 30.5217 28.2195 30.7708 28.527 30.7708C28.8345 30.7708 29.0836 30.5217 29.0836 30.2142V29.1083C29.0836 28.8008 28.8345 28.5517 28.527 28.5517C28.2195 28.5517 27.9703 28.8008 27.9703 29.1083V30.2142ZM9.6709 33.0494C9.5978 33.0494 9.52541 33.0638 9.45787 33.0918C9.39033 33.1197 9.32896 33.1607 9.27727 33.2124C9.22558 33.2641 9.18458 33.3255 9.15661 33.393C9.12864 33.4606 9.11425 33.533 9.11426 33.6061V34.7119C9.11426 35.0194 9.36341 35.2686 9.6709 35.2686C9.97839 35.2686 10.2275 35.0194 10.2275 34.7119V33.6061C10.2275 33.4584 10.1689 33.3168 10.0645 33.2125C9.96011 33.1081 9.81853 33.0494 9.6709 33.0494ZM14.385 33.0494C14.3119 33.0494 14.2395 33.0638 14.1719 33.0918C14.1044 33.1197 14.043 33.1607 13.9914 33.2124C13.9397 33.2641 13.8987 33.3255 13.8707 33.393C13.8427 33.4606 13.8283 33.533 13.8283 33.6061V34.7119C13.8283 35.0194 14.0775 35.2686 14.385 35.2686C14.6925 35.2686 14.9416 35.0194 14.9416 34.7119V33.6061C14.9416 33.4584 14.883 33.3168 14.7786 33.2125C14.6742 33.1081 14.5326 33.0494 14.385 33.0494ZM18.5423 34.7119C18.5423 35.0194 18.7914 35.2686 19.0989 35.2686C19.4064 35.2686 19.6555 35.0194 19.6555 34.7119V33.6061C19.6555 33.2986 19.4064 33.0494 19.0989 33.0494C18.7914 33.0494 18.5423 33.2986 18.5423 33.6061V34.7119ZM23.2563 34.7119C23.2563 35.0194 23.5055 35.2686 23.813 35.2686C24.1205 35.2686 24.3696 35.0194 24.3696 34.7119V33.6061C24.3696 33.2986 24.1205 33.0494 23.813 33.0494C23.5055 33.0494 23.2563 33.2986 23.2563 33.6061V34.7119ZM27.9703 34.7119C27.9703 35.0194 28.2195 35.2686 28.527 35.2686C28.8345 35.2686 29.0836 35.0194 29.0836 34.7119V33.6061C29.0836 33.2986 28.8345 33.0494 28.527 33.0494C28.2195 33.0494 27.9703 33.2986 27.9703 33.6061V34.7119Z" fill="#78EDFD"/>
<path d="M15.9922 16.4604C15.9922 16.153 15.7431 15.9038 15.4356 15.9038H6.01367C5.94057 15.9038 5.86818 15.9182 5.80064 15.9462C5.7331 15.9741 5.67174 16.0151 5.62005 16.0668C5.56835 16.1185 5.52735 16.1799 5.49938 16.2474C5.47141 16.315 5.45702 16.3873 5.45703 16.4604V31.6287C5.45703 31.9362 5.70618 32.1853 6.01367 32.1853C6.32116 32.1853 6.57031 31.9362 6.57031 31.6287V17.0171H15.4355C15.5086 17.0171 15.581 17.0027 15.6486 16.9747C15.7161 16.9468 15.7775 16.9058 15.8292 16.8541C15.8809 16.8024 15.9219 16.741 15.9499 16.6735C15.9778 16.6059 15.9922 16.5336 15.9922 16.4604Z" fill="#78EDFD"/>
<path d="M37.4434 36.8867H31.8009V22.2425C31.8009 21.9351 31.5517 21.6859 31.2442 21.6859H28.8845V7.03957H30.4469C30.7544 7.03957 31.0035 6.79042 31.0035 6.48293V3.4056C31.0035 3.09796 30.7508 2.84896 30.4469 2.84896H28.8845V1.48282C28.8845 0.665148 28.2192 0 27.4016 0H24.9254C24.6179 0 24.3688 0.249152 24.3688 0.556641C24.3688 0.864129 24.6179 1.11328 24.9254 1.11328H27.4016C27.4995 1.11338 27.5935 1.15234 27.6628 1.22162C27.732 1.2909 27.771 1.38484 27.7711 1.48282V2.84896H20.7134V1.48282C20.7135 1.38485 20.7525 1.29092 20.8218 1.22165C20.8911 1.15237 20.985 1.1134 21.0829 1.11328H22.6997C23.0072 1.11328 23.2564 0.864129 23.2564 0.556641C23.2564 0.249152 23.0072 0 22.6997 0H21.0829C20.2653 0 19.6001 0.665148 19.6001 1.48282V2.84896H3.20855C2.9067 2.84896 2.65191 3.09411 2.65191 3.4056V6.48293C2.65191 6.79042 2.90106 7.03957 3.20855 7.03957H7.60364V7.46477C7.60364 8.2503 8.24266 8.88933 9.02819 8.88933H10.5005V11.2882H8.58748C8.51438 11.2882 8.44199 11.3026 8.37445 11.3306C8.30691 11.3585 8.24555 11.3996 8.19385 11.4512C8.14216 11.5029 8.10116 11.5643 8.07319 11.6318C8.04522 11.6994 8.03083 11.7718 8.03084 11.8449V14.7893C8.03084 15.0968 8.27999 15.3459 8.58748 15.3459H13.5267C13.8342 15.3459 14.0834 15.0968 14.0834 14.7893V11.8449C14.0834 11.5374 13.8342 11.2882 13.5267 11.2882H11.6137V8.88933H13.086C13.8715 8.88933 14.5105 8.2503 14.5105 7.46477V7.03957H24.3552V21.686H21.9587V16.4605C21.9587 16.153 21.7095 15.9038 21.402 15.9038H17.6611C17.3536 15.9038 17.1045 16.153 17.1045 16.4605C17.1045 16.7679 17.3536 17.0171 17.6611 17.0171H20.8454V22.2426C20.8454 22.5501 21.0945 22.7993 21.402 22.7993H30.6875V36.8867H6.57029V33.8543C6.57029 33.5468 6.32114 33.2976 6.01365 33.2976C5.70616 33.2976 5.45701 33.5468 5.45701 33.8543V36.8867H0.556641C0.249152 36.8867 0 37.1359 0 37.4434C0 37.7508 0.249152 38 0.556641 38H37.4434C37.7508 38 38 37.7508 38 37.4434C38 37.1359 37.7508 36.8867 37.4434 36.8867ZM12.9701 14.2327H9.14412V12.4016H12.9701V14.2327ZM8.05927 5.92629L10.018 4.15588L11.9766 5.92629H8.05927ZM6.61319 5.73258L4.65455 3.96217H8.57189L6.61319 5.73258ZM11.4639 3.96224H15.3812L13.4225 5.73266L11.4639 3.96224ZM16.8272 4.15588L18.7859 5.92629H14.8685L16.8272 4.15588ZM21.678 5.92629L23.6367 4.15588L25.5957 5.92629H21.678ZM27.4146 9.10931L25.4685 10.6056V7.61299L27.4146 9.10931ZM27.7712 13.2322L25.8251 11.7358L27.7712 10.2394V13.2322ZM27.4146 14.3624L25.4685 15.8588V12.866L27.4146 14.3624ZM25.825 16.9888L27.7712 15.4924V18.4854L25.825 16.9888ZM27.4146 19.6157L25.4685 21.1123V18.1192L27.4146 19.6157ZM27.7712 7.97926L26.549 7.03957H27.7712V7.97926ZM28.4878 5.92629L29.8902 4.65893V5.92629H28.4878ZM29.0008 3.96224L27.0417 5.73266L25.0827 3.96224H29.0008ZM22.1906 3.96224L20.2319 5.73266L18.2732 3.96224H22.1906ZM3.76519 4.65908L5.16718 5.92629H3.76519V4.65908ZM13.3973 7.46477C13.3972 7.54729 13.3644 7.62641 13.3061 7.68476C13.2477 7.74312 13.1686 7.77595 13.0861 7.77605H9.02827C8.94574 7.77595 8.86662 7.74312 8.80827 7.68477C8.74992 7.62641 8.71709 7.5473 8.71699 7.46477V7.03957H13.3974L13.3973 7.46477ZM26.5489 21.6859L27.7712 20.7459V21.6859H26.5489Z" fill="#78EDFD"/>
</svg>
