<svg width="48" height="49" viewBox="0 0 48 49" fill="none" xmlns="http://www.w3.org/2000/svg">
<path fill-rule="evenodd" clip-rule="evenodd" d="M13.8021 44.9923C13.6555 44.9923 13.5149 44.934 13.4111 44.8304C13.3074 44.7267 13.2491 44.5861 13.249 44.4395V3.53871C13.249 3.39202 13.3073 3.25133 13.411 3.1476C13.5148 3.04387 13.6554 2.9856 13.8021 2.9856C13.9488 2.9856 14.0895 3.04387 14.1933 3.1476C14.297 3.25133 14.3553 3.39202 14.3553 3.53871V44.4388C14.3553 44.7446 14.1076 44.9923 13.8021 44.9923ZM18.0436 12.0748H21.3617V8.75699H18.0436V12.0748ZM21.9145 13.181H17.4905C17.3438 13.181 17.2031 13.1227 17.0994 13.019C16.9957 12.9153 16.9374 12.7746 16.9374 12.6279V8.20388C16.9374 7.89845 17.1851 7.65107 17.4905 7.65107H21.9148C22.2202 7.65107 22.4679 7.89876 22.4679 8.20419V12.6279C22.4679 12.9333 22.2202 13.181 21.9148 13.181H21.9145ZM25.1575 12.0748H28.4743V8.75699H25.1575V12.0748ZM29.0274 13.181H24.6043C24.5317 13.1811 24.4597 13.1668 24.3926 13.1391C24.3254 13.1113 24.2644 13.0705 24.213 13.0192C24.1617 12.9678 24.1209 12.9068 24.0932 12.8396C24.0654 12.7725 24.0511 12.7005 24.0512 12.6279V8.20388C24.0512 8.13124 24.0655 8.05932 24.0933 7.99221C24.121 7.9251 24.1618 7.86413 24.2132 7.81278C24.2645 7.76144 24.3255 7.72073 24.3926 7.69298C24.4598 7.66523 24.5317 7.65099 24.6043 7.65107H29.0274C29.3325 7.65107 29.5802 7.89876 29.5802 8.20419V12.6279C29.5802 12.9333 29.3325 13.181 29.0274 13.181ZM18.0436 21.1198H21.3617V17.8024H18.0436V21.1198ZM21.9145 22.2261H17.4905C17.3438 22.226 17.2032 22.1677 17.0995 22.064C16.9958 21.9603 16.9375 21.8196 16.9374 21.673V17.2493C16.9374 16.9435 17.1851 16.6962 17.4905 16.6962H21.9148C22.2202 16.6962 22.4679 16.9438 22.4679 17.2493V21.6726C22.4679 21.9784 22.2202 22.2261 21.9148 22.2261H21.9145ZM25.1575 21.1198H28.4743V17.8024H25.1575V21.1198ZM29.0274 22.2261H24.6043C24.5317 22.2262 24.4597 22.2119 24.3926 22.1841C24.3254 22.1564 24.2644 22.1156 24.213 22.0642C24.1617 22.0129 24.1209 21.9519 24.0932 21.8847C24.0654 21.8176 24.0511 21.7456 24.0512 21.673V17.2493C24.0511 17.1766 24.0654 17.1047 24.0932 17.0375C24.1209 16.9704 24.1617 16.9094 24.213 16.858C24.2644 16.8066 24.3254 16.7659 24.3926 16.7381C24.4597 16.7103 24.5317 16.6961 24.6043 16.6962H29.0274C29.3325 16.6962 29.5802 16.9438 29.5802 17.2493V21.6726C29.5802 21.9784 29.3325 22.2261 29.0274 22.2261ZM18.0436 30.1541H21.3617V26.8366H18.0436V30.1541ZM21.9145 31.2603H17.4905C17.3438 31.2603 17.2031 31.202 17.0994 31.0983C16.9957 30.9946 16.9374 30.8539 16.9374 30.7072V26.2835C16.9374 25.9778 17.1851 25.7304 17.4905 25.7304H21.9148C22.2202 25.7304 22.4679 25.9778 22.4679 26.2832V30.7069C22.4679 31.0126 22.2202 31.2603 21.9148 31.2603H21.9145ZM25.1575 30.1541H28.4743V26.8366H25.1575V30.1541ZM29.0274 31.2603H24.6043C24.5317 31.2604 24.4597 31.2461 24.3926 31.2184C24.3254 31.1906 24.2644 31.1498 24.213 31.0985C24.1617 31.0471 24.1209 30.9861 24.0932 30.9189C24.0654 30.8518 24.0511 30.7798 24.0512 30.7072V26.2835C24.0511 26.2108 24.0654 26.1389 24.0932 26.0717C24.1209 26.0046 24.1617 25.9436 24.213 25.8922C24.2644 25.8408 24.3254 25.8001 24.3926 25.7723C24.4597 25.7445 24.5317 25.7303 24.6043 25.7304H29.0274C29.3325 25.7304 29.5802 25.9778 29.5802 26.2832V30.7069C29.5802 31.0126 29.3325 31.2603 29.0274 31.2603ZM27.0952 44.9923C26.9486 44.9923 26.8079 44.934 26.7042 44.8304C26.6005 44.7267 26.5422 44.5861 26.5421 44.4395V36.035H19.9758V44.4392C19.971 44.5826 19.9106 44.7186 19.8074 44.8184C19.7042 44.9183 19.5663 44.974 19.4227 44.974C19.2791 44.974 19.1412 44.9183 19.038 44.8184C18.9348 44.7186 18.8744 44.5826 18.8696 44.4392V35.4819C18.8696 35.1765 19.1173 34.9291 19.4227 34.9291H27.0955C27.1681 34.9291 27.24 34.9434 27.3071 34.9712C27.3742 34.999 27.4351 35.0398 27.4864 35.0911C27.5377 35.1425 27.5784 35.2035 27.6062 35.2706C27.6339 35.3377 27.6481 35.4096 27.648 35.4822L27.6483 44.4392C27.6484 44.5118 27.6342 44.5838 27.6064 44.6509C27.5786 44.7181 27.5379 44.7791 27.4865 44.8304C27.4351 44.8818 27.3741 44.9226 27.307 44.9503C27.2398 44.9781 27.1679 44.9924 27.0952 44.9923Z" fill="#78EDFD"/>
<path fill-rule="evenodd" clip-rule="evenodd" d="M23.2529 44.9923C23.1063 44.9923 22.9656 44.9341 22.8619 44.8304C22.7582 44.7268 22.6999 44.5862 22.6998 44.4395V35.482C22.6998 35.3353 22.7581 35.1946 22.8618 35.0908C22.9655 34.9871 23.1062 34.9288 23.2529 34.9288C23.3996 34.9288 23.5403 34.9871 23.644 35.0908C23.7477 35.1946 23.806 35.3353 23.806 35.482V44.4392C23.8061 44.5119 23.7918 44.5838 23.7641 44.651C23.7363 44.7181 23.6956 44.7791 23.6442 44.8305C23.5928 44.8819 23.5318 44.9226 23.4647 44.9504C23.3975 44.9782 23.3256 44.9924 23.2529 44.9923ZM13.0885 1.10623C12.8598 1.10656 12.6406 1.19759 12.4789 1.35935C12.3172 1.52111 12.2262 1.74039 12.226 1.96912V2.12276C12.2262 2.35143 12.3171 2.57067 12.4788 2.73242C12.6404 2.89417 12.8596 2.98523 13.0882 2.98564H33.4287C33.6576 2.98548 33.877 2.89453 34.0388 2.73275C34.2006 2.57097 34.2917 2.35159 34.2919 2.12276V1.96881C34.2916 1.74003 34.2005 1.52073 34.0387 1.35902C33.8769 1.19731 33.6575 1.1064 33.4287 1.10623H13.0885ZM33.4287 4.09219H13.0885C12.5664 4.09169 12.0658 3.88402 11.6967 3.51477C11.3276 3.14552 11.1201 2.64488 11.1197 2.12276V1.96881C11.1201 1.44683 11.3277 0.946338 11.6967 0.577213C12.0658 0.208089 12.5663 0.000493203 13.0882 0H33.4287C34.5151 0 35.3982 0.883371 35.3982 1.96912V2.12276C35.3975 2.64485 35.1898 3.14537 34.8206 3.51452C34.4514 3.88367 33.9508 4.0913 33.4287 4.09188V4.09219ZM3.18709 13.236H2.04548C1.48739 13.236 0.973698 13.0212 0.597194 12.6307C0.407475 12.4419 0.257027 12.2173 0.15453 11.97C0.0520323 11.7227 -0.000486503 11.4576 3.39598e-06 11.1899C0.000414205 10.6475 0.216031 10.1274 0.599525 9.74375C0.983018 9.36014 1.50305 9.14436 2.04548 9.14379H13.7913C13.938 9.14379 14.0787 9.20208 14.1825 9.30584C14.2862 9.4096 14.3445 9.55032 14.3445 9.69706C14.3445 9.8438 14.2862 9.98452 14.1825 10.0883C14.0787 10.192 13.938 10.2503 13.7913 10.2503H2.04548C1.79642 10.2507 1.55766 10.3498 1.38159 10.5259C1.20551 10.702 1.10648 10.9408 1.10623 11.1899C1.10614 11.315 1.13124 11.4389 1.18003 11.5541C1.22882 11.6694 1.30031 11.7736 1.39024 11.8606C1.55754 12.0341 1.78971 12.1297 2.04517 12.1297H3.18709C3.33379 12.1297 3.47447 12.188 3.5782 12.2917C3.68193 12.3955 3.74021 12.5362 3.74021 12.6829C3.74021 12.8296 3.68193 12.9702 3.5782 13.074C3.47447 13.1777 3.33379 13.236 3.18709 13.236Z" fill="#78EDFD"/>
<path fill-rule="evenodd" clip-rule="evenodd" d="M30.663 44.9924H3.7363C3.44408 44.9921 3.16389 44.876 2.9572 44.6694C2.75051 44.4628 2.6342 44.1827 2.63379 43.8905V12.6826C2.63379 12.5359 2.69206 12.3952 2.79579 12.2915C2.89952 12.1878 3.04021 12.1295 3.1869 12.1295C3.3336 12.1295 3.47429 12.1878 3.57802 12.2915C3.68175 12.3952 3.74002 12.5359 3.74002 12.6826V43.8905L13.7911 43.8861H30.663C30.8097 43.8861 30.9503 43.9444 31.0541 44.0482C31.1578 44.1519 31.2161 44.2926 31.2161 44.4393C31.2161 44.586 31.1578 44.7266 31.0541 44.8304C30.9503 44.9341 30.8097 44.9924 30.663 44.9924ZM32.7153 35.3877C32.5686 35.3877 32.4279 35.3294 32.3242 35.2257C32.2204 35.1219 32.1621 34.9812 32.1621 34.8345V3.53944C32.1621 3.39275 32.2204 3.25206 32.3242 3.14833C32.4279 3.0446 32.5686 2.98633 32.7153 2.98633C32.862 2.98633 33.0026 3.0446 33.1064 3.14833C33.2101 3.25206 33.2684 3.39275 33.2684 3.53944V34.8349C33.2684 35.1403 33.0207 35.3877 32.7153 35.3877Z" fill="#78EDFD"/>
<path fill-rule="evenodd" clip-rule="evenodd" d="M6.83585 21.1744H10.1539V17.8573H6.83554L6.83585 21.1744ZM10.7067 22.281H6.28305C6.13635 22.281 5.99567 22.2227 5.89194 22.119C5.78821 22.0152 5.72993 21.8745 5.72993 21.7278V17.3038C5.72993 16.9984 5.97762 16.7507 6.28305 16.7507H10.707C11.0125 16.7507 11.2602 16.9984 11.2602 17.3042V21.7278C11.2602 22.033 11.0122 22.281 10.7067 22.281ZM6.83585 30.2086H10.1539V26.8912H6.83554L6.83585 30.2086ZM10.7067 31.3149H6.28305C6.13641 31.3149 5.99577 31.2566 5.89205 31.153C5.78832 31.0493 5.73001 30.9087 5.72993 30.7621V26.3381C5.72993 26.0326 5.97762 25.7853 6.28305 25.7853H10.707C11.0125 25.7853 11.2602 26.0326 11.2602 26.3384V30.7617C11.2602 31.0672 11.0122 31.3152 10.7067 31.3149ZM6.83585 39.2537H10.1539V35.9363H6.83554L6.83585 39.2537ZM10.7067 40.3599H6.28305C6.13641 40.3599 5.99577 40.3017 5.89205 40.1981C5.78832 40.0944 5.73001 39.9538 5.72993 39.8071V35.3831C5.72993 35.0777 5.97762 34.83 6.28305 34.83H10.707C11.0125 34.83 11.2602 35.0777 11.2602 35.3831V39.8068C11.2602 40.1123 11.0122 40.3599 10.7067 40.3599ZM13.8016 13.2359H3.1869C3.04021 13.2359 2.89952 13.1776 2.79579 13.0739C2.69206 12.9701 2.63379 12.8294 2.63379 12.6828C2.63379 12.5361 2.69206 12.3954 2.79579 12.2916C2.89952 12.1879 3.04021 12.1296 3.1869 12.1296H13.8016C13.9483 12.1296 14.089 12.1879 14.1927 12.2916C14.2965 12.3954 14.3547 12.5361 14.3547 12.6828C14.3547 12.8294 14.2965 12.9701 14.1927 13.0739C14.089 13.1776 13.9483 13.2359 13.8016 13.2359ZM45.4704 48.3075H31.1788C31.0118 48.3075 30.8466 48.2734 30.6932 48.2075C30.5398 48.1415 30.4014 48.045 30.2865 47.9238C30.1722 47.8041 30.084 47.662 30.0274 47.5065C29.9707 47.351 29.9469 47.1855 29.9574 47.0203L30.5497 37.3032C30.554 37.2307 30.5726 37.1598 30.6044 37.0944C30.6362 37.0291 30.6806 36.9707 30.735 36.9226C30.7894 36.8744 30.8528 36.8375 30.9215 36.8138C30.9902 36.7902 31.0629 36.7804 31.1354 36.7849C31.4399 36.8035 31.6724 37.0658 31.6537 37.3709L31.0615 47.0855C31.0605 47.0999 31.0625 47.1144 31.0675 47.128C31.0725 47.1416 31.0803 47.154 31.0904 47.1643C31.1037 47.178 31.1326 47.2013 31.1785 47.2013H45.4704C45.5164 47.2013 45.5449 47.1783 45.5586 47.164C45.5688 47.1533 45.5767 47.1406 45.5818 47.1267C45.5869 47.1129 45.5892 47.0981 45.5884 47.0833L44.9952 37.3709C44.9863 37.2245 45.0359 37.0805 45.1331 36.9707C45.2303 36.8608 45.3672 36.7941 45.5136 36.7852C45.5861 36.7808 45.6587 36.7907 45.7274 36.8143C45.7961 36.838 45.8594 36.8749 45.9138 36.9231C46.0236 37.0203 46.0904 37.1571 46.0993 37.3035L46.6928 47.0181C46.7031 47.1837 46.679 47.3496 46.6222 47.5055C46.5654 47.6613 46.477 47.8038 46.3625 47.9238C46.2476 48.045 46.1093 48.1414 45.9559 48.2074C45.8026 48.2734 45.6374 48.3074 45.4704 48.3075Z" fill="#78EDFD"/>
<path fill-rule="evenodd" clip-rule="evenodd" d="M30.4537 35.3875C30.0688 35.3875 29.7553 35.701 29.7553 36.0859C29.7556 36.4707 30.0688 36.7842 30.4537 36.7842H46.1955C46.3806 36.7842 46.5582 36.7105 46.6891 36.5796C46.82 36.4486 46.8935 36.271 46.8935 36.0859C46.8935 35.701 46.5804 35.3875 46.1952 35.3875H30.4537ZM46.1955 37.8902H30.4537C29.9754 37.8896 29.5168 37.6993 29.1785 37.3611C28.8403 37.0228 28.65 36.5642 28.6494 36.0859C28.6499 35.6075 28.8401 35.1488 29.1784 34.8105C29.5167 34.4721 29.9753 34.2818 30.4537 34.2812H46.1955C46.6739 34.2818 47.1325 34.4721 47.4708 34.8105C47.809 35.1488 47.9993 35.6075 47.9998 36.0859C47.9992 36.5642 47.8089 37.0228 47.4707 37.3611C47.1324 37.6993 46.6738 37.8896 46.1955 37.8902ZM34.7135 48.3075C34.5668 48.3074 34.4262 48.2491 34.3225 48.1454C34.2188 48.0417 34.1605 47.901 34.1604 47.7544V41.5192C34.1604 41.3725 34.2187 41.2319 34.3224 41.1281C34.4261 41.0244 34.5668 40.9661 34.7135 40.9661C34.8602 40.9661 35.0009 41.0244 35.1046 41.1281C35.2084 41.2319 35.2666 41.3725 35.2666 41.5192V47.7544C35.2666 48.0598 35.0186 48.3075 34.7135 48.3075ZM38.3252 48.3075C38.2525 48.3076 38.1805 48.2934 38.1133 48.2656C38.0462 48.2379 37.9851 48.1971 37.9337 48.1458C37.8823 48.0944 37.8415 48.0334 37.8138 47.9662C37.786 47.899 37.7717 47.827 37.7718 47.7544L37.7721 41.5192C37.7704 41.4455 37.7834 41.3722 37.8104 41.3036C37.8374 41.235 37.8778 41.1724 37.9293 41.1197C37.9809 41.0669 38.0424 41.025 38.1104 40.9964C38.1783 40.9678 38.2513 40.953 38.3251 40.953C38.3988 40.953 38.4718 40.9678 38.5397 40.9964C38.6077 41.025 38.6693 41.0669 38.7208 41.1197C38.7723 41.1724 38.8127 41.235 38.8397 41.3036C38.8668 41.3722 38.8798 41.4455 38.878 41.5192L38.8783 47.7544C38.8783 48.0598 38.6303 48.3075 38.3252 48.3075ZM41.9357 48.3075C41.863 48.3075 41.7911 48.2932 41.724 48.2654C41.6569 48.2376 41.5959 48.1968 41.5446 48.1455C41.4932 48.0941 41.4525 48.0331 41.4247 47.966C41.3969 47.8989 41.3826 47.827 41.3826 47.7544V41.5192C41.3826 41.3726 41.4408 41.2319 41.5445 41.1282C41.6482 41.0245 41.7889 40.9663 41.9355 40.9663C42.0822 40.9663 42.2228 41.0245 42.3265 41.1282C42.4302 41.2319 42.4885 41.3726 42.4885 41.5192L42.4888 47.7544C42.4888 48.0598 42.2417 48.3075 41.9357 48.3075Z" fill="#78EDFD"/>
<path fill-rule="evenodd" clip-rule="evenodd" d="M37.2601 35.3877C37.1135 35.3877 36.9728 35.3294 36.869 35.2257C36.7653 35.122 36.707 34.9813 36.707 34.8346V17.6448C36.7075 17.114 36.9186 16.6051 37.294 16.2298C37.6693 15.8544 38.1782 15.6433 38.7091 15.6428C39.2296 15.6428 39.7277 15.8458 40.112 16.2139L40.1207 16.222C40.4944 16.5954 40.6996 17.097 40.6996 17.634V34.8132C40.6948 34.9566 40.6344 35.0926 40.5312 35.1925C40.428 35.2923 40.29 35.348 40.1465 35.348C40.0029 35.348 39.8649 35.2923 39.7617 35.1925C39.6585 35.0926 39.5982 34.9566 39.5934 34.8132V17.6337C39.5956 17.4003 39.5056 17.1755 39.3429 17.0082C39.1721 16.8446 38.9456 16.7519 38.7091 16.7487C38.4714 16.7488 38.2435 16.8433 38.0755 17.0113C37.9075 17.1793 37.813 17.4072 37.813 17.6448L37.8133 34.8346C37.8133 35.14 37.5653 35.388 37.2601 35.3877ZM38.4601 9.24475L39.2938 9.83977C39.3497 9.87919 39.3963 9.92916 39.4335 9.98565L39.7737 10.5015L40.1126 9.98565C40.1499 9.92885 40.1971 9.8795 40.2529 9.83977L41.0866 9.24475L40.2511 8.64167C40.197 8.60279 40.1504 8.55441 40.1136 8.49889L39.7737 7.98581L39.4329 8.4992C39.3966 8.55445 39.3491 8.60287 39.2954 8.64198L38.4601 9.24475ZM39.7737 12.0615C39.5875 12.0615 39.4136 11.9678 39.3109 11.8123L38.5669 10.68L37.1909 9.69699C37.1194 9.64609 37.061 9.57884 37.0207 9.50082C36.9803 9.42281 36.9592 9.3363 36.9591 9.24848C36.9586 9.16057 36.9793 9.07384 37.0192 8.99554C37.0592 8.91724 37.1173 8.84965 37.1888 8.79841L38.5669 7.80361L39.3131 6.68C39.3634 6.6039 39.4318 6.54147 39.5122 6.4983C39.5926 6.45513 39.6824 6.43256 39.7737 6.43262C39.9593 6.43262 40.1319 6.52573 40.2337 6.68L40.9799 7.80361L42.358 8.79841C42.5029 8.90301 42.5883 9.07031 42.5874 9.24848C42.5874 9.42664 42.5008 9.59363 42.3558 9.6973L40.9799 10.68L40.2359 11.812C40.1854 11.8885 40.1168 11.9514 40.0362 11.9949C39.9555 12.0385 39.8653 12.0614 39.7737 12.0615ZM42.5157 14.8917L43.3556 15.4932C43.4115 15.5333 43.4593 15.5832 43.4968 15.6403L43.8271 16.1454L44.1642 15.6372C44.2017 15.5814 44.2486 15.5326 44.3035 15.4935L45.1428 14.8914L44.3054 14.2976C44.249 14.2581 44.2007 14.2082 44.1632 14.1505L43.8271 13.6393L43.4981 14.1474C43.4596 14.2063 43.4105 14.2572 43.3537 14.2976L42.5157 14.8917ZM43.8243 17.7038H43.8224C43.7309 17.7035 43.6409 17.6805 43.5604 17.6368C43.48 17.5932 43.4116 17.5302 43.3615 17.4536L42.6277 16.3325L41.2403 15.339C41.1687 15.2876 41.1104 15.2199 41.0702 15.1414C41.0301 15.063 41.0094 14.9761 41.0097 14.888C41.0097 14.7092 41.0972 14.5416 41.2431 14.4379L42.6271 13.4564L43.3596 12.3266C43.4614 12.1702 43.6349 12.0752 43.8221 12.0752H43.8243C44.0099 12.0749 44.1834 12.1683 44.2861 12.3241L45.0305 13.4555L46.416 14.4382C46.488 14.4892 46.5467 14.5566 46.5872 14.6349C46.6278 14.7131 46.649 14.8 46.6492 14.8881C46.6494 14.9763 46.6285 15.0632 46.5883 15.1416C46.548 15.22 46.4896 15.2877 46.4179 15.339L45.0305 16.3334L44.2852 17.4561C44.1828 17.6107 44.0096 17.7038 43.8243 17.7038Z" fill="#78EDFD"/>
</svg>
