<svg width="200" height="200" viewBox="0 0 200 200" fill="none" xmlns="http://www.w3.org/2000/svg">
<circle cx="100" cy="100" r="100" fill="#FFDC64"/>
<path d="M85.0644 174.644C87.0511 175.492 89.361 174.784 90.5214 172.953L143.32 89.1642C143.741 88.4993 143.975 87.734 143.998 86.948C144.021 86.1621 143.833 85.3842 143.453 84.6956C143.073 84.007 142.515 83.4328 141.837 83.0329C141.159 82.633 140.386 82.4221 139.599 82.4221H104.361L117.466 30.4761C117.995 28.3776 116.925 26.2102 114.936 25.3562C112.959 24.5066 110.635 25.2188 109.479 27.0469L56.6797 110.836C56.2594 111.501 56.0253 112.266 56.0019 113.052C55.9786 113.838 56.1667 114.616 56.5468 115.305C56.9269 115.993 57.4849 116.567 58.1628 116.967C58.8407 117.367 59.6136 117.578 60.4008 117.578H95.6388L82.5335 169.524C82.005 171.623 83.0747 173.79 85.0644 174.644Z" fill="white"/>
</svg>
