<svg width="37" height="37" viewBox="0 0 37 37" fill="none" xmlns="http://www.w3.org/2000/svg">
<path d="M32.7394 7.26678C32.664 7.07097 32.5183 6.91029 32.3308 6.81606L18.8764 0.0888962C18.7596 0.0304366 18.6308 0 18.5001 0C18.3695 0 18.2406 0.0304366 18.1238 0.0888962L4.6695 6.81606C4.48199 6.91029 4.3363 7.07097 4.26082 7.26678L0.0563449 18.1984C0.0187577 18.2946 -0.000356085 18.397 5.02259e-06 18.5003V21.8639C5.02259e-06 22.0869 0.0885991 22.3008 0.246298 22.4585C0.403996 22.6162 0.617881 22.7048 0.8409 22.7048H3.36359V36.1591C3.36359 36.3821 3.45218 36.596 3.60988 36.7537C3.76758 36.9114 3.98146 37 4.20448 37H32.7949C33.0179 37 33.2318 36.9114 33.3895 36.7537C33.5472 36.596 33.6358 36.3821 33.6358 36.1591V22.7048H36.1585C36.3815 22.7048 36.5954 22.6162 36.7531 22.4585C36.9108 22.3008 36.9994 22.0869 36.9994 21.8639V18.5003C36.9996 18.3971 36.9808 18.2948 36.9439 18.1984L32.7394 7.26678ZM26.0678 34.41L19.8451 29.4319L26.0678 24.4538V34.41ZM24.5121 35.3182H12.4873L18.4997 30.5083L24.5121 35.3182ZM18.4997 28.3556L12.4873 23.5457H24.5121L18.4997 28.3556ZM17.1543 29.4319L10.9316 34.41V24.4538L17.1543 29.4319ZM31.954 35.3182H27.7496V22.7048C27.7405 22.4847 27.6489 22.276 27.4932 22.1203C27.3374 21.9645 27.1288 21.873 26.9087 21.8639H10.0907C9.92089 21.8925 9.32469 21.9547 9.24985 22.7048V35.3182H5.04538C5.04033 32.9284 5.04958 20.7615 5.04538 18.6618L8.23489 10.6867L18.4997 5.16034L28.7645 10.6875L31.954 18.6618C31.9498 20.6984 31.9574 33.0041 31.954 35.3182ZM35.3176 21.023H33.6358V18.5003C33.6358 18.3935 33.6156 18.2876 33.5761 18.1875L30.2125 9.77853C30.1392 9.5954 30.0037 9.44389 29.8299 9.35052L18.8983 3.46425C18.7757 3.39845 18.6388 3.36401 18.4997 3.36401C18.3606 3.36401 18.2237 3.39845 18.1011 3.46425L7.16948 9.35052C6.99591 9.44417 6.86056 9.59559 6.78687 9.77853L3.42329 18.1875C3.26772 18.3742 3.41236 20.7716 3.36359 21.023H1.6818V18.6567L5.71305 8.17579L18.4997 1.78162L31.2864 8.17495L35.3176 18.6567V21.023Z" fill="#78EDFD"/>
<path d="M23.137 11.0524L18.9325 8.52975C18.8018 8.45133 18.6523 8.40991 18.4999 8.40991C18.3475 8.40991 18.1979 8.45133 18.0673 8.52975L13.8628 11.0524C13.7381 11.1269 13.6348 11.2324 13.5632 11.3588C13.4916 11.4851 13.454 11.6279 13.4541 11.7731V15.1367C13.4541 15.3597 13.5427 15.5736 13.7004 15.7313C13.8581 15.889 14.072 15.9776 14.295 15.9776H22.704C22.927 15.9776 23.1409 15.889 23.2986 15.7313C23.4563 15.5736 23.5448 15.3597 23.5448 15.1367V11.7731C23.5449 11.628 23.5074 11.4853 23.4359 11.359C23.3644 11.2327 23.2614 11.1271 23.137 11.0524ZM21.8631 14.2958H15.1359V12.249L18.4995 10.2309L21.8631 12.249V14.2958Z" fill="#78EDFD"/>
</svg>
