<svg width="48" height="48" viewBox="0 0 48 48" fill="none" xmlns="http://www.w3.org/2000/svg">
<path d="M44.4134 7.43602H43.6373V6.55346H44.0305C44.2105 6.55346 44.383 6.4818 44.5103 6.35424C44.6375 6.22669 44.709 6.05369 44.709 5.8733V4.73888C44.709 3.73836 43.897 2.92431 42.8989 2.92431H40.865C39.867 2.92431 39.0549 3.73827 39.0549 4.73888V5.87339C39.0549 6.05378 39.1264 6.22678 39.2536 6.35434C39.3809 6.48189 39.5535 6.55355 39.7334 6.55355H40.1267V7.43611H37.9244V6.95087C37.9244 5.93325 37.0985 5.1053 36.0834 5.1053H34.6172V3.80687C35.5758 3.70883 36.3263 2.89477 36.3263 1.90834C36.3263 0.856032 35.4723 0 34.4225 0H29.0509C28.0012 0 27.1472 0.85613 27.1472 1.90834C27.1472 2.89477 27.8978 3.70883 28.8564 3.80687V5.1053H27.3901C26.375 5.1053 25.5491 5.93325 25.5491 6.95087V7.43611H19.0601C17.0825 7.43611 15.4736 9.04897 15.4736 11.0314V36.8958H14.5509C13.2949 36.8958 12.2729 37.9193 12.2713 39.1781H11.4C10.224 39.1781 9.26727 38.219 9.26727 37.0402V20.2509C9.94324 19.9091 10.4091 19.2084 10.4091 18.3991V16.8535H11.1714C11.9198 16.8535 12.5286 16.2431 12.5286 15.4929V14.2561C12.5286 13.5059 11.9197 12.8955 11.1714 12.8955H10.4091V11.35C10.4091 10.5407 9.94324 9.8399 9.26727 9.49817V4.41241C9.26727 2.37629 7.61484 0.719806 5.58372 0.719806H4.19911C3.75353 0.275271 3.13968 0 2.46284 0H0.678495C0.498547 0 0.325969 0.0716598 0.198726 0.199215C0.0714841 0.32677 0 0.499772 0 0.680162V4.25752C0 4.43791 0.0714841 4.61091 0.198726 4.73847C0.325969 4.86602 0.498547 4.93768 0.678495 4.93768H2.46284C3.13968 4.93768 3.75363 4.66241 4.1992 4.21788H5.58372C5.68898 4.21788 5.77787 4.30698 5.77787 4.41241V9.49827C5.10189 9.84 4.63606 10.5408 4.63606 11.3501V18.3991C4.63606 19.2084 5.10189 19.9091 5.77787 20.2509V37.0401C5.77787 40.1477 8.29993 42.676 11.4 42.676H12.2713C12.2729 43.9347 13.2949 44.9583 14.5509 44.9583H15.5161C15.7827 46.6788 17.2703 48 19.0601 48H44.4134C46.391 48 48 46.387 48 44.4046V11.0314C48 9.04887 46.3911 7.43602 44.4134 7.43602ZM40.4119 4.73888C40.4119 4.49266 40.6194 4.28463 40.865 4.28463H42.8989C43.1445 4.28463 43.352 4.49266 43.352 4.73888V5.19323H40.4119V4.73888ZM41.4836 6.55355H42.2803V7.43611H41.4836V6.55355ZM28.5042 1.90834C28.5042 1.60615 28.7495 1.36032 29.0509 1.36032H34.4225C34.724 1.36032 34.9693 1.60615 34.9693 1.90834C34.9693 2.21053 34.7241 2.45645 34.4225 2.45645H29.0509C28.906 2.45627 28.767 2.39847 28.6645 2.29571C28.562 2.19296 28.5044 2.05364 28.5042 1.90834ZM30.2134 3.81678H33.2602V5.1053H30.2134V3.81678ZM26.9062 6.95087C26.9063 6.82222 26.9574 6.69888 27.0481 6.60792C27.1389 6.51695 27.2619 6.46577 27.3902 6.46562H36.0835C36.2118 6.46577 36.3349 6.51695 36.4256 6.60792C36.5164 6.69888 36.5674 6.82222 36.5676 6.95087V7.43611H26.9063L26.9062 6.95087ZM19.0601 8.79634H44.4134C45.6428 8.79634 46.643 9.799 46.643 11.0314V11.97H16.8305V11.0314C16.8305 9.799 17.8307 8.79634 19.0601 8.79634ZM46.643 13.3304V42.1056H16.8305V13.3304H46.643ZM6.70546 19.1132C6.31262 19.1132 5.99305 18.7929 5.99305 18.3991V11.3501C5.99305 10.9562 6.31262 10.6359 6.70546 10.6359H8.33976C8.73252 10.6359 9.05209 10.9562 9.05209 11.3501V18.3991C9.05209 18.7929 8.73252 19.1132 8.33976 19.1132H6.70546ZM11.1717 14.2561L11.1715 15.4932H10.4092V14.256L11.1717 14.2561ZM2.46284 3.57736H1.35699V1.36032H2.46284C3.07261 1.36032 3.56859 1.85762 3.56859 2.46889C3.56859 3.08007 3.07251 3.57736 2.46284 3.57736ZM5.58372 2.85755H4.89476C4.91482 2.73085 4.92558 2.60113 4.92558 2.46889C4.92558 2.33665 4.91482 2.20683 4.89476 2.08023H5.58372C6.86656 2.08023 7.91028 3.12651 7.91028 4.4125V9.27566H7.13485V4.4125C7.13485 3.55501 6.43901 2.85755 5.58372 2.85755ZM7.13485 37.0401V20.4736H7.91028V37.0402C7.91028 38.9691 9.47576 40.5384 11.4 40.5384H12.2713V41.3158H11.4C9.04821 41.3157 7.13485 39.3976 7.13485 37.0401ZM13.6283 42.6731V39.1809C13.6283 38.6709 14.0422 38.256 14.551 38.256H15.4736V43.598H14.551C14.0422 43.598 13.6283 43.1831 13.6283 42.6731ZM44.4134 46.6397H19.0601C17.8306 46.6397 16.8305 45.637 16.8305 44.4046V43.4659H46.643V44.4046C46.643 45.637 45.6428 46.6397 44.4134 46.6397ZM31.7368 38.8159C37.8412 38.8159 42.8075 33.8374 42.8075 27.718C42.8075 21.5985 37.8412 16.62 31.7368 16.62C25.6324 16.62 20.6661 21.5985 20.6661 27.718C20.6661 33.8374 25.6325 38.8159 31.7368 38.8159ZM31.7368 17.9804C37.093 17.9804 41.4505 22.3487 41.4505 27.718C41.4505 33.0873 37.0929 37.4555 31.7368 37.4555C26.3806 37.4555 22.0231 33.0873 22.0231 27.718C22.0231 22.3487 26.3806 17.9804 31.7368 17.9804ZM24.7849 23.2715L39.0559 31.5309C39.1393 31.5792 39.2319 31.6091 39.3277 31.6187C39.4235 31.6283 39.5202 31.6173 39.6115 31.5865C39.7027 31.5557 39.7864 31.5058 39.8569 31.4402C39.9274 31.3745 39.9832 31.2945 40.0205 31.2055C40.4843 30.0998 40.7195 28.9263 40.7195 27.7179C40.7195 22.7526 36.6898 18.713 31.7367 18.713C28.907 18.713 26.2999 20.0097 24.5841 22.2705C24.5257 22.3474 24.4844 22.4358 24.4628 22.53C24.4411 22.6241 24.4398 22.7218 24.4588 22.8165C24.4778 22.9112 24.5167 23.0008 24.573 23.0792C24.6292 23.1577 24.7014 23.2232 24.7849 23.2715ZM33.4094 25.448C33.8465 25.701 34.0748 26.3073 34.0567 27.067L31.6869 25.6954C32.3341 25.3 32.9721 25.195 33.4094 25.448ZM31.7368 20.0734C35.9416 20.0734 39.3626 23.5027 39.3626 27.718C39.3626 28.4817 39.2521 29.2286 39.0335 29.9473L35.763 28.0544L36.6452 27.8175C36.8185 27.7703 36.966 27.6562 37.0555 27.5002C37.145 27.3441 37.1692 27.1589 37.1227 26.9851C37.0763 26.8112 36.963 26.6629 36.8076 26.5726C36.6523 26.4824 36.4676 26.4575 36.294 26.5035L35.4074 26.7416C35.3791 26.2238 35.2625 25.7511 35.0653 25.3469L36.4859 23.9228C36.611 23.7948 36.6807 23.6224 36.6798 23.4432C36.6789 23.264 36.6075 23.0924 36.4811 22.9657C36.3547 22.839 36.1835 22.7674 36.0047 22.7665C35.8259 22.7656 35.654 22.8355 35.5264 22.9609L34.1683 24.3224C34.1413 24.3052 34.1157 24.286 34.0879 24.2698C34.0599 24.2539 34.0316 24.2385 34.003 24.2238L34.4994 22.3665C34.5453 22.1925 34.5205 22.0074 34.4304 21.8517C34.3404 21.696 34.1924 21.5824 34.019 21.5358C33.8456 21.4892 33.6608 21.5135 33.5052 21.6032C33.3495 21.6929 33.2357 21.8408 33.1887 22.0145L32.6688 23.9592C32.2472 23.9882 31.8087 24.1103 31.3738 24.32L31.1638 23.5344C31.1168 23.3607 31.003 23.2128 30.8473 23.1231C30.6917 23.0333 30.5069 23.0091 30.3335 23.0557C30.1601 23.1023 30.0121 23.2158 29.9221 23.3715C29.832 23.5273 29.8072 23.7124 29.8531 23.8864L30.0895 24.7708L26.1641 22.499C27.6034 20.9487 29.5951 20.0734 31.7368 20.0734ZM31.7368 36.7228C34.5666 36.7228 37.1736 35.4261 38.8893 33.1654C38.9476 33.0885 38.9889 33.0001 39.0105 32.906C39.0321 32.8119 39.0335 32.7142 39.0145 32.6195C38.9955 32.5249 38.9566 32.4353 38.9004 32.3569C38.8443 32.2784 38.772 32.2129 38.6886 32.1646L24.4178 23.905C24.3344 23.8567 24.2417 23.8268 24.1459 23.8172C24.0502 23.8076 23.9534 23.8186 23.8622 23.8494C23.771 23.8801 23.6873 23.93 23.6168 23.9957C23.5462 24.0614 23.4905 24.1413 23.4531 24.2303C22.9892 25.3357 22.7541 26.5091 22.7541 27.718C22.754 32.6833 26.7837 36.7228 31.7368 36.7228ZM30.6625 31.5776L31.737 29.7119L32.727 30.2849C32.0798 31.0365 31.3084 31.5127 30.6625 31.5776ZM29.4929 30.8879C29.2413 30.3134 29.233 29.4277 29.5706 28.4581L30.5619 29.0317L29.4929 30.8879ZM24.44 25.4887L28.3786 27.7683C28.2412 28.1171 28.1362 28.4652 28.0645 28.8064L26.8284 29.1384C26.6552 29.1856 26.5076 29.2997 26.4181 29.4557C26.3286 29.6118 26.3045 29.797 26.3509 29.9708C26.3974 30.1447 26.5107 30.293 26.666 30.3832C26.8213 30.4735 27.006 30.4984 27.1796 30.4524L27.9575 30.2435C28.0348 31.2917 28.4804 32.1622 29.277 32.6233C29.6498 32.839 30.0648 32.9419 30.4992 32.9419C31.0091 32.9419 31.5455 32.7982 32.0717 32.5307L32.3098 33.4217C32.3564 33.5959 32.4702 33.7444 32.626 33.8346C32.7818 33.9248 32.967 33.9493 33.1408 33.9027C33.3146 33.856 33.4628 33.742 33.5528 33.5858C33.6427 33.4296 33.6671 33.2439 33.6206 33.0697L33.2533 31.6955C33.4932 31.4727 33.7158 31.2318 33.9192 30.9751L37.3095 32.9372C35.8703 34.4875 33.8787 35.3627 31.7369 35.3627C27.532 35.3627 24.1111 31.9334 24.1111 27.7182C24.111 26.954 24.2214 26.2072 24.44 25.4887Z" fill="#78EDFD"/>
</svg>
