<svg width="37" height="37" viewBox="0 0 37 37" fill="none" xmlns="http://www.w3.org/2000/svg">
<path d="M25.1903 23.4332H11.8087C11.5362 23.4329 11.2703 23.5167 11.0472 23.6731C10.8241 23.8295 10.6546 24.0509 10.5619 24.3071C10.4692 24.5633 10.4578 24.8419 10.5291 25.1048C10.6005 25.3678 10.7512 25.6024 10.9608 25.7765L12.9594 27.4415C13.1976 27.6406 13.4981 27.7497 13.8085 27.7498H23.1905C23.5008 27.7498 23.8011 27.6406 24.039 27.4415L26.0383 25.7765C26.2479 25.6024 26.3987 25.3678 26.4701 25.1049C26.5415 24.8419 26.5301 24.5633 26.4373 24.307C26.3446 24.0508 26.1751 23.8294 25.952 23.673C25.7288 23.5166 25.4628 23.4329 25.1903 23.4332ZM25.252 24.8293L23.2528 26.4943C23.2354 26.5084 23.2135 26.5159 23.1911 26.5152H13.8098C13.7872 26.5159 13.7653 26.5082 13.7481 26.4936L11.7489 24.8286C11.7328 24.8176 11.7213 24.8013 11.7162 24.7825C11.7111 24.7638 11.7129 24.7438 11.7211 24.7262C11.7257 24.7073 11.737 24.6907 11.7528 24.6794C11.7687 24.6681 11.788 24.6628 11.8074 24.6646H25.1891C25.2084 24.6628 25.2278 24.6681 25.2437 24.6794C25.2595 24.6907 25.2707 24.7073 25.2754 24.7262C25.293 24.7624 25.2817 24.806 25.2488 24.8292H25.252V24.8293ZM29.618 23.7415L27.6126 25.4065C27.4024 25.5803 27.251 25.8149 27.1792 26.078C27.1074 26.3412 27.1187 26.6202 27.2115 26.8767C27.3043 27.1332 27.4741 27.3547 27.6977 27.511C27.9213 27.6673 28.1877 27.7507 28.4605 27.7498H33.3001C33.9813 27.7498 34.5335 27.1976 34.5335 26.5164V24.6665C34.5335 23.9853 33.9813 23.4331 33.3001 23.4331H30.4665C30.1564 23.434 29.8563 23.5431 29.618 23.7415ZM33.3002 24.6665V26.5164H28.4605C28.4411 26.5183 28.4215 26.5132 28.4056 26.5018C28.3896 26.4905 28.3782 26.4738 28.3736 26.4548C28.3654 26.4377 28.3637 26.4182 28.3688 26.3999C28.3739 26.3817 28.3855 26.3659 28.4013 26.3555L30.4073 24.6868C30.4245 24.6721 30.4465 24.6644 30.469 24.6652L33.3002 24.6665ZM7.38228 23.7415C7.1449 23.5435 6.84592 23.4345 6.53682 23.4332H3.70014C3.01898 23.4332 2.4668 23.9854 2.4668 24.6665V26.5165C2.4668 27.1977 3.01898 27.7498 3.70014 27.7498H8.53849C8.81119 27.7506 9.07747 27.6671 9.30094 27.5109C9.52441 27.3546 9.69417 27.1331 9.78702 26.8767C9.87987 26.6203 9.89128 26.3414 9.81969 26.0783C9.7481 25.8152 9.597 25.5806 9.38704 25.4065L7.38228 23.7415ZM8.62673 26.4548C8.62208 26.4738 8.61072 26.4905 8.59475 26.5018C8.57877 26.5132 8.55925 26.5183 8.53976 26.5164H3.70014V24.6665H6.53682C6.55934 24.6657 6.58137 24.6734 6.59849 24.6881L8.60513 26.3568C8.61954 26.3681 8.62958 26.384 8.63353 26.4019C8.63747 26.4198 8.63507 26.4385 8.62673 26.4548Z" fill="#78EDFD"/>
<path fill-rule="evenodd" clip-rule="evenodd" d="M8.01634 29.6001H3.69965C3.3591 29.6001 3.08301 29.8762 3.08301 30.2167C3.08301 30.5573 3.3591 30.8334 3.69965 30.8334H8.01634C8.35688 30.8334 8.63298 30.5573 8.63298 30.2167C8.63298 29.8762 8.35688 29.6001 8.01634 29.6001ZM33.2997 29.6001H28.983C28.6424 29.6001 28.3663 29.8762 28.3663 30.2167C28.3663 30.5573 28.6424 30.8334 28.983 30.8334H33.2997C33.6402 30.8334 33.9163 30.5573 33.9163 30.2167C33.9163 29.8762 33.6402 29.6001 33.2997 29.6001ZM24.0497 29.6001H12.9497C12.6091 29.6001 12.333 29.8762 12.333 30.2167C12.333 30.5573 12.6091 30.8334 12.9497 30.8334H24.0497C24.3902 30.8334 24.6663 30.5573 24.6663 30.2167C24.6663 29.8762 24.3902 29.6001 24.0497 29.6001Z" fill="#78EDFD"/>
<path d="M37 17.8833C37 16.8616 36.1717 16.0333 35.15 16.0333H33.9167C33.6511 16.0343 33.389 16.0927 33.1482 16.2045C32.9074 16.3164 32.6937 16.4791 32.5217 16.6815L31.3637 13.2078C30.9449 11.9482 29.7661 11.0987 28.4388 11.1001H8.56115C7.23379 11.0987 6.05501 11.9482 5.63628 13.2078L4.4782 16.6815C4.30626 16.4791 4.09255 16.3165 3.85175 16.2046C3.61096 16.0927 3.3488 16.0343 3.08329 16.0333H1.85C0.82829 16.0333 9.36511e-06 16.8616 9.36511e-06 17.8833C9.36511e-06 18.905 0.82829 19.7333 1.85 19.7333H2.82801L0.542061 22.0193C0.36958 22.1907 0.232848 22.3946 0.139798 22.6192C0.0467481 22.8439 -0.000767112 23.0847 9.36511e-06 23.3279V31.45C0.00159388 31.8312 0.120935 32.2027 0.341706 32.5135C0.562476 32.8244 0.873894 33.0594 1.23336 33.1865V35.15C1.23336 36.1717 2.06164 37 3.08335 37H7.40003C8.42174 37 9.25002 36.1717 9.25002 35.15V33.3H27.75V35.15C27.75 36.1717 28.5783 37 29.6 37H33.9167C34.9384 37 35.7666 36.1717 35.7666 35.15V33.1865C36.1261 33.0594 36.4375 32.8244 36.6583 32.5135C36.8791 32.2027 36.9984 31.8312 37 31.45V23.3279C37.0008 23.0847 36.9533 22.8439 36.8602 22.6192C36.7672 22.3946 36.6304 22.1907 36.4579 22.0193L34.172 19.7333H35.15C36.1717 19.7333 37 18.905 37 17.8833ZM6.80615 13.5981C6.92896 13.2298 7.16454 12.9095 7.47952 12.6825C7.79449 12.4555 8.1729 12.3333 8.56115 12.3333H28.4388C28.827 12.3333 29.2054 12.4555 29.5204 12.6825C29.8354 12.9095 30.071 13.2298 30.1938 13.5981L31.8274 18.5H5.17259L6.80615 13.5981ZM1.85 18.5C1.50945 18.5 1.23336 18.2239 1.23336 17.8833C1.23336 17.5428 1.50945 17.2667 1.85 17.2667H3.08335C3.4239 17.2667 3.69999 17.5428 3.69999 17.8833V18.5H1.85ZM8.01667 35.15C8.01667 35.4905 7.74058 35.7666 7.40003 35.7666H3.08335C2.7428 35.7666 2.4667 35.4905 2.4667 35.15V33.3H8.01667V35.15ZM34.5333 35.15C34.5333 35.4905 34.2572 35.7666 33.9167 35.7666H29.6C29.2594 35.7666 28.9833 35.4905 28.9833 35.15V33.3H34.5333V35.15ZM35.586 22.8913C35.6433 22.9486 35.6888 23.0167 35.7198 23.0916C35.7508 23.1665 35.7667 23.2468 35.7666 23.3279V31.45C35.7666 31.7906 35.4906 32.0667 35.15 32.0667H1.85C1.50945 32.0667 1.23336 31.7906 1.23336 31.45V23.3279C1.2333 23.2468 1.24923 23.1665 1.28023 23.0916C1.31123 23.0166 1.3567 22.9486 1.41404 22.8912L4.57197 19.7333H32.428L35.586 22.8913ZM33.3 18.5V17.8833C33.3 17.5428 33.5761 17.2667 33.9167 17.2667H35.15C35.4906 17.2667 35.7666 17.5428 35.7666 17.8833C35.7666 18.2239 35.4906 18.5 35.15 18.5H33.3ZM35.7666 0H1.23336C0.552196 0 9.36511e-06 0.552187 9.36511e-06 1.23335V2.46669C9.36511e-06 3.82901 1.10438 4.93339 2.4667 4.93339H5.55004V5.55003C5.55004 5.89058 5.82613 6.16667 6.16668 6.16667C6.50723 6.16667 6.78333 5.89058 6.78333 5.55003V4.93339H10.4833V5.55003C10.4833 5.89058 10.7594 6.16667 11.0999 6.16667C11.4405 6.16667 11.7166 5.89058 11.7166 5.55003V4.93339H15.4166V5.55003C15.4166 5.89058 15.6927 6.16667 16.0332 6.16667C16.3738 6.16667 16.6499 5.89058 16.6499 5.55003V4.93339H20.3498V5.55003C20.3498 5.89058 20.6259 6.16667 20.9665 6.16667C21.307 6.16667 21.5831 5.89058 21.5831 5.55003V4.93339H25.2831V5.55003C25.2831 5.89058 25.5592 6.16667 25.8997 6.16667C26.2403 6.16667 26.5164 5.89058 26.5164 5.55003V4.93339H30.2164V5.55003C30.2164 5.89058 30.4925 6.16667 30.833 6.16667C31.1736 6.16667 31.4497 5.89058 31.4497 5.55003V4.93339H34.533C35.8953 4.93339 36.9997 3.82901 36.9997 2.46669V1.23335C37 0.552187 36.4478 0 35.7666 0ZM35.7666 2.46669C35.7666 3.14785 35.2145 3.70004 34.5333 3.70004H2.4667C1.78554 3.70004 1.23336 3.14785 1.23336 2.46669V1.23335H35.7666V2.46669Z" fill="#78EDFD"/>
<path fill-rule="evenodd" clip-rule="evenodd" d="M9.24962 8.01649V6.78315C9.24962 6.4426 8.97353 6.1665 8.63298 6.1665C8.29243 6.1665 8.01633 6.4426 8.01633 6.78315V8.01649C8.01633 8.35704 8.29243 8.63314 8.63298 8.63314C8.97353 8.63314 9.24962 8.35704 9.24962 8.01649ZM4.31629 8.01649V6.78315C4.31629 6.4426 4.0402 6.1665 3.69965 6.1665C3.3591 6.1665 3.08301 6.4426 3.08301 6.78315V8.01649C3.08301 8.35704 3.3591 8.63314 3.69965 8.63314C4.0402 8.63314 4.31629 8.35704 4.31629 8.01649ZM33.9163 8.01649V6.78315C33.9163 6.4426 33.6402 6.1665 33.2996 6.1665C32.9591 6.1665 32.683 6.4426 32.683 6.78315V8.01649C32.683 8.35704 32.9591 8.63314 33.2996 8.63314C33.6402 8.63314 33.9163 8.35704 33.9163 8.01649ZM14.1829 8.01649V6.78315C14.1829 6.4426 13.9069 6.1665 13.5663 6.1665C13.2258 6.1665 12.9497 6.4426 12.9497 6.78315V8.01649C12.9497 8.35704 13.2258 8.63314 13.5663 8.63314C13.9069 8.63314 14.1829 8.35704 14.1829 8.01649ZM19.1163 8.01649V6.78315C19.1163 6.4426 18.8402 6.1665 18.4996 6.1665C18.1591 6.1665 17.883 6.4426 17.883 6.78315V8.01649C17.883 8.35704 18.1591 8.63314 18.4996 8.63314C18.8402 8.63314 19.1163 8.35704 19.1163 8.01649ZM24.0496 8.01649V6.78315C24.0496 6.4426 23.7735 6.1665 23.433 6.1665C23.0924 6.1665 22.8163 6.4426 22.8163 6.78315V8.01649C22.8163 8.35704 23.0924 8.63314 23.433 8.63314C23.7735 8.63314 24.0496 8.35704 24.0496 8.01649ZM28.9829 8.01649V6.78315C28.9829 6.4426 28.7068 6.1665 28.3663 6.1665C28.0257 6.1665 27.7496 6.4426 27.7496 6.78315V8.01649C27.7496 8.35704 28.0257 8.63314 28.3663 8.63314C28.7068 8.63314 28.9829 8.35704 28.9829 8.01649ZM11.7163 9.24984V8.01649C11.7163 7.67594 11.4402 7.39985 11.0996 7.39985C10.7591 7.39985 10.483 7.67594 10.483 8.01649V9.24984C10.483 9.59039 10.7591 9.86648 11.0996 9.86648C11.4402 9.86648 11.7163 9.59039 11.7163 9.24984ZM6.16628 9.86648C6.50683 9.86648 6.78293 9.59039 6.78293 9.24984V8.01649C6.78293 7.67594 6.50683 7.39985 6.16628 7.39985C5.82573 7.39985 5.54964 7.67594 5.54964 8.01649V9.24984C5.54964 9.59039 5.82573 9.86648 6.16628 9.86648ZM16.6496 9.24984V8.01649C16.6496 7.67594 16.3735 7.39985 16.0329 7.39985C15.6924 7.39985 15.4163 7.67594 15.4163 8.01649V9.24984C15.4163 9.59039 15.6924 9.86648 16.0329 9.86648C16.3735 9.86648 16.6496 9.59039 16.6496 9.24984ZM21.5829 9.24984V8.01649C21.5829 7.67594 21.3068 7.39985 20.9663 7.39985C20.6257 7.39985 20.3496 7.67594 20.3496 8.01649V9.24984C20.3496 9.59039 20.6257 9.86648 20.9663 9.86648C21.3068 9.86648 21.5829 9.59039 21.5829 9.24984ZM26.5162 9.24984V8.01649C26.5162 7.67594 26.2401 7.39985 25.8996 7.39985C25.559 7.39985 25.2829 7.67594 25.2829 8.01649V9.24984C25.2829 9.59039 25.559 9.86648 25.8996 9.86648C26.2401 9.86648 26.5162 9.59039 26.5162 9.24984ZM31.4496 9.24984V8.01649C31.4496 7.67594 31.1735 7.39985 30.8329 7.39985C30.4924 7.39985 30.2163 7.67594 30.2163 8.01649V9.24984C30.2163 9.59039 30.4924 9.86648 30.8329 9.86648C31.1735 9.86648 31.4496 9.59039 31.4496 9.24984Z" fill="#78EDFD"/>
</svg>
