<svg width="200" height="200" viewBox="0 0 200 200" fill="none" xmlns="http://www.w3.org/2000/svg">
<circle cx="100" cy="100" r="100" fill="#46C3F8"/>
<path d="M153.327 58.2144C153.219 57.4383 152.887 56.7108 152.371 56.1211C151.855 55.5314 151.178 55.1054 150.423 54.8953L100.987 41.1471C100.282 40.951 99.5374 40.951 98.8326 41.1471L49.3967 54.8953C48.6418 55.1052 47.9647 55.5313 47.4487 56.1209C46.9327 56.7106 46.6003 57.4383 46.4924 58.2144C46.2056 60.2762 39.6644 108.992 56.4423 133.226C73.2003 157.432 97.922 163.635 98.966 163.887C99.5863 164.038 100.233 164.038 100.854 163.887C101.898 163.635 126.62 157.432 143.377 133.226C160.155 108.992 153.614 60.2767 153.327 58.2144ZM131.79 86.6551L98.0694 120.375C97.2848 121.16 96.2557 121.553 95.2273 121.553C94.1988 121.553 93.1697 121.16 92.3851 120.375L71.5362 99.5264C71.1628 99.1533 70.8666 98.7102 70.6645 98.2225C70.4624 97.7349 70.3584 97.2121 70.3584 96.6843C70.3584 96.1564 70.4624 95.6337 70.6645 95.146C70.8666 94.6583 71.1628 94.2153 71.5362 93.8421L75.6759 89.7025C76.4297 88.9487 77.452 88.5253 78.518 88.5253C79.584 88.5253 80.6063 88.9487 81.3601 89.7025L95.2273 103.57L121.966 76.8306C122.339 76.4572 122.782 76.161 123.27 75.9589C123.757 75.7568 124.28 75.6528 124.808 75.6528C125.336 75.6528 125.858 75.7568 126.346 75.9589C126.834 76.161 127.277 76.4572 127.65 76.8306L131.79 80.9702C132.163 81.3435 132.459 81.7866 132.661 82.2743C132.863 82.762 132.967 83.2848 132.967 83.8127C132.967 84.3405 132.863 84.8633 132.661 85.351C132.459 85.8387 132.163 86.2818 131.79 86.6551Z" fill="white"/>
</svg>
