<svg width="40" height="35" viewBox="0 0 40 35" fill="none" xmlns="http://www.w3.org/2000/svg">
<path d="M35.6604 27.0754C35.0049 27.0773 34.3602 27.2418 33.7839 27.5541C33.2077 27.8664 32.7179 28.3169 32.3585 28.865V25.7546C32.7088 25.7546 33.0447 25.6155 33.2924 25.3678C33.5401 25.1201 33.6792 24.7841 33.6792 24.4339V21.7923C33.6805 21.715 33.6647 21.6384 33.633 21.5678V21.5282C33.6198 21.4876 33.5997 21.4496 33.5736 21.4159C32.8935 20.5096 32.0122 19.7736 30.9992 19.2659C29.9861 18.7582 28.869 18.4928 27.7359 18.4905H22.4528C21.9274 18.4905 21.4235 18.6992 21.052 19.0707C20.6804 19.4423 20.4717 19.9462 20.4717 20.4716V22.9018C17.5594 20.7027 12.5472 16.7471 8.58491 13.564V9.90555C8.58491 9.73041 8.51533 9.56244 8.39149 9.4386C8.26764 9.31475 8.09967 9.24518 7.92453 9.24518C7.74939 9.24518 7.58142 9.31475 7.45757 9.4386C7.33373 9.56244 7.26415 9.73041 7.26415 9.90555V12.5074L3.87642 9.79329C3.93167 9.61576 3.96059 9.4311 3.96226 9.24518V5.94329C3.96226 5.41786 3.75354 4.91395 3.382 4.54242C3.01047 4.17088 2.50656 3.96216 1.98113 3.96216C1.4557 3.96216 0.951795 4.17088 0.58026 4.54242C0.208726 4.91395 0 5.41786 0 5.94329L0 9.24518C0 9.77061 0.208726 10.2745 0.58026 10.646C0.951795 11.0176 1.4557 11.2263 1.98113 11.2263C2.3851 11.2254 2.77912 11.1009 3.11038 10.8697C6.74245 13.7952 16.5821 21.6735 20.4849 24.5593C20.516 24.8852 20.667 25.1879 20.9086 25.4087C21.1502 25.6295 21.4651 25.7528 21.7925 25.7546V26.5008L20.4123 26.1706C19.9222 25.6295 19.3254 25.1957 18.6593 24.8968C17.9933 24.5979 17.2725 24.4403 16.5425 24.4339L3.8566 14.6339L1.16226 12.5471C1.02378 12.4406 0.84873 12.3933 0.675448 12.4155C0.502166 12.4378 0.344773 12.5279 0.237736 12.6659C0.182936 12.7349 0.142484 12.8141 0.118761 12.8989C0.0950378 12.9838 0.0885225 13.0725 0.0995987 13.1598C0.110675 13.2472 0.139119 13.3315 0.183256 13.4077C0.227393 13.4839 0.286332 13.5506 0.356604 13.6037L2.33774 15.1027C0.904717 16.3706 0.726415 18.4905 0.660377 19.7122C0.343396 23.1131 0.884906 25.9989 2.25189 28.2046C4.62264 32.0282 9.01415 32.9461 12.4085 33.0188C13.1789 33.9895 14.269 34.6552 15.4845 34.8971C16.7 35.139 17.9619 34.9414 19.0453 34.3395H33.5009C34.14 34.7676 34.8912 34.9974 35.6604 34.9999C36.1807 34.9999 36.6959 34.8974 37.1767 34.6983C37.6574 34.4992 38.0942 34.2073 38.4621 33.8394C38.8301 33.4714 39.1219 33.0346 39.321 32.5539C39.5202 32.0732 39.6226 31.558 39.6226 31.0376C39.6226 30.5173 39.5202 30.0021 39.321 29.5213C39.1219 29.0406 38.8301 28.6038 38.4621 28.2359C38.0942 27.868 37.6574 27.5761 37.1767 27.377C36.6959 27.1779 36.1807 27.0754 35.6604 27.0754ZM1.32075 9.24518V5.94329C1.32075 5.76815 1.39033 5.60018 1.51417 5.47633C1.63802 5.35249 1.80599 5.28291 1.98113 5.28291C2.15628 5.28291 2.32424 5.35249 2.44809 5.47633C2.57193 5.60018 2.64151 5.76815 2.64151 5.94329V9.24518C2.64151 9.42032 2.57193 9.58829 2.44809 9.71213C2.32424 9.83598 2.15628 9.90555 1.98113 9.90555C1.80599 9.90555 1.63802 9.83598 1.51417 9.71213C1.39033 9.58829 1.32075 9.42032 1.32075 9.24518ZM31.5462 30.1593L31.7906 30.2188C31.7334 30.4881 31.7024 30.7623 31.6981 31.0376C31.6993 31.7335 31.8838 32.4168 32.233 33.0188H20.617C21.2134 32.2916 21.6025 31.417 21.7431 30.4871C21.8837 29.5573 21.7707 28.6067 21.416 27.7357C23.8462 28.3499 28.5745 29.4725 31.5462 30.1593ZM32.3585 24.4339H21.7925V22.4527H32.3585V24.4339ZM21.7925 20.4716C21.7925 20.2964 21.862 20.1285 21.9859 20.0046C22.1097 19.8808 22.2777 19.8112 22.4528 19.8112H27.7359C29.0939 19.8122 30.4107 20.2784 31.467 21.132H21.7925V20.4716ZM23.1132 25.7546H31.0377V28.6867C28.6142 28.1254 25.4113 27.3659 23.1132 26.8178V25.7546ZM3.37453 27.5112C2.16604 25.5301 1.67736 22.9612 1.94151 19.8178C2.06698 18.3452 2.29811 16.7339 3.38113 15.9414L14.766 24.731C13.7319 25.0925 12.8358 25.7666 12.2016 26.6598C11.5675 27.5531 11.2267 28.6214 11.2264 29.7169C11.2285 30.3961 11.3608 31.0686 11.616 31.698C8.69717 31.4735 5.28302 30.5423 3.37453 27.5112ZM13.2802 31.9952L13.2274 31.9291C12.8337 31.3458 12.6025 30.6682 12.5576 29.9659C12.5126 29.2636 12.6555 28.562 12.9716 27.9332C13.2876 27.3044 13.7655 26.7712 14.3559 26.3883C14.9464 26.0054 15.6281 25.7867 16.3311 25.7546C16.3906 25.7612 16.45 25.7612 16.5094 25.7546C17.1903 25.7536 17.8599 25.928 18.4537 26.2611C19.0475 26.5942 19.5454 27.0746 19.8995 27.6561C20.2536 28.2376 20.4519 28.9005 20.4753 29.581C20.4986 30.2614 20.3462 30.9364 20.0328 31.5408C19.7194 32.1452 19.2556 32.6586 18.686 33.0316C18.1165 33.4046 17.4604 33.6245 16.7811 33.6702C16.1018 33.7159 15.4222 33.5857 14.8078 33.2923C14.1935 32.9989 13.6651 32.5522 13.2736 31.9952H13.2802ZM35.6604 33.6791C34.9598 33.6791 34.2879 33.4008 33.7925 32.9055C33.2972 32.4101 33.0189 31.7382 33.0189 31.0376C33.0189 30.3371 33.2972 29.6652 33.7925 29.1698C34.2879 28.6744 34.9598 28.3961 35.6604 28.3961C36.361 28.3961 37.0328 28.6744 37.5282 29.1698C38.0236 29.6652 38.3019 30.3371 38.3019 31.0376C38.3019 31.7382 38.0236 32.4101 37.5282 32.9055C37.0328 33.4008 36.361 33.6791 35.6604 33.6791Z" fill="#78EDFD"/>
<path d="M8.77623 28.4953C7.6629 28.1555 6.67641 27.491 5.94321 26.5869C4.62245 24.8699 4.45075 22.3274 4.54321 20.5048C4.54728 20.3329 4.48431 20.1662 4.36762 20.04C4.25093 19.9137 4.08969 19.8378 3.91803 19.8284C3.74638 19.819 3.57779 19.8767 3.44796 19.9894C3.31813 20.1021 3.23725 20.2609 3.22245 20.4321C3.11679 22.4859 3.32151 25.352 4.89321 27.3925C5.79187 28.492 6.99592 29.3008 8.35358 29.717C8.42094 29.7435 8.49226 29.7567 8.56491 29.7567C8.73801 29.7802 8.91344 29.7351 9.05372 29.631C9.19399 29.5269 9.28797 29.372 9.31557 29.1995C9.34317 29.027 9.3022 28.8505 9.20141 28.7079C9.10063 28.5652 8.94803 28.4676 8.77623 28.4359V28.4953ZM16.5092 27.7359C15.9838 27.7359 15.4799 27.9446 15.1084 28.3162C14.7368 28.6877 14.5281 29.1916 14.5281 29.717C14.5281 30.2425 14.7368 30.7464 15.1084 31.1179C15.4799 31.4895 15.9838 31.6982 16.5092 31.6982C17.0347 31.6982 17.5386 31.4895 17.9101 31.1179C18.2817 30.7464 18.4904 30.2425 18.4904 29.717C18.4904 29.1916 18.2817 28.6877 17.9101 28.3162C17.5386 27.9446 17.0347 27.7359 16.5092 27.7359ZM16.5092 30.3774C16.3341 30.3774 16.1661 30.3078 16.0423 30.184C15.9184 30.0602 15.8489 29.8922 15.8489 29.717C15.8489 29.5419 15.9184 29.3739 16.0423 29.2501C16.1661 29.1262 16.3341 29.0567 16.5092 29.0567C16.6844 29.0567 16.8524 29.1262 16.9762 29.2501C17.1 29.3739 17.1696 29.5419 17.1696 29.717C17.1696 29.8922 17.1 30.0602 16.9762 30.184C16.8524 30.3078 16.6844 30.3774 16.5092 30.3774Z" fill="#78EDFD"/>
<path d="M35.6604 31.6982C36.0251 31.6982 36.3208 31.4025 36.3208 31.0378C36.3208 30.6731 36.0251 30.3774 35.6604 30.3774C35.2957 30.3774 35 30.6731 35 31.0378C35 31.4025 35.2957 31.6982 35.6604 31.6982Z" fill="#78EDFD"/>
<path d="M14.5284 1.32075H15.1888C15.364 1.32075 15.5319 1.25118 15.6558 1.12733C15.7796 1.00349 15.8492 0.83552 15.8492 0.660377C15.8492 0.485234 15.7796 0.317265 15.6558 0.19342C15.5319 0.0695753 15.364 0 15.1888 0L14.5284 0C14.3533 0 14.1853 0.0695753 14.0615 0.19342C13.9376 0.317265 13.8681 0.485234 13.8681 0.660377C13.8681 0.83552 13.9376 1.00349 14.0615 1.12733C14.1853 1.25118 14.3533 1.32075 14.5284 1.32075ZM25.2596 6.3C25.3211 6.37783 25.3993 6.4408 25.4885 6.48425C25.5777 6.52769 25.6755 6.55049 25.7747 6.55094C25.8991 6.55013 26.0207 6.51418 26.1256 6.44725C26.2305 6.38033 26.3143 6.28514 26.3674 6.17265C26.4206 6.06016 26.4409 5.93495 26.4259 5.81144C26.411 5.68793 26.3615 5.57114 26.2832 5.47453C25.986 5.10472 25.669 4.74811 25.352 4.41132C25.2906 4.34942 25.2176 4.3003 25.1371 4.26677C25.0567 4.23324 24.9703 4.21598 24.8832 4.21598C24.796 4.21598 24.7097 4.23324 24.6292 4.26677C24.5487 4.3003 24.4757 4.34942 24.4143 4.41132C24.3524 4.47271 24.3033 4.54575 24.2697 4.62622C24.2362 4.7067 24.219 4.79301 24.219 4.88019C24.219 4.96737 24.2362 5.05368 24.2697 5.13415C24.3033 5.21463 24.3524 5.28767 24.4143 5.34906C24.6983 5.63962 24.9822 5.9434 25.2596 6.3ZM28.2511 12.0519C28.3766 12.4679 28.4888 12.8972 28.5879 13.3198C28.6227 13.4676 28.7074 13.5988 28.8277 13.6914C28.948 13.784 29.0965 13.8324 29.2483 13.8283H29.4001C29.5697 13.7875 29.7163 13.6813 29.8079 13.5328C29.8994 13.3844 29.9285 13.2057 29.8888 13.0358C29.7832 12.5868 29.6643 12.1311 29.5256 11.7151C29.5048 11.6273 29.4663 11.5448 29.4124 11.4725C29.3585 11.4002 29.2903 11.3397 29.2121 11.2947C29.1339 11.2498 29.0474 11.2213 28.9578 11.2111C28.8682 11.2009 28.7774 11.2092 28.6911 11.2354C28.6048 11.2616 28.5248 11.3052 28.456 11.3635C28.3872 11.4218 28.3311 11.4936 28.2911 11.5744C28.2511 11.6553 28.2281 11.7434 28.2235 11.8335C28.2189 11.9236 28.2328 12.0136 28.2643 12.0981L28.2511 12.0519ZM27.3134 9.61509C27.3669 9.72747 27.4511 9.82244 27.5562 9.88903C27.6614 9.95563 27.7832 9.99116 27.9077 9.99151C28.0054 9.99151 28.1018 9.9717 28.1917 9.93208C28.3501 9.85762 28.4726 9.72326 28.532 9.55856C28.5914 9.39385 28.583 9.21228 28.5086 9.05377C28.3105 8.62453 28.0926 8.20849 27.8483 7.80566C27.8049 7.73021 27.7471 7.66404 27.6782 7.61093C27.6092 7.55782 27.5305 7.51881 27.4465 7.49612C27.3625 7.47343 27.2748 7.46751 27.1885 7.4787C27.1022 7.48988 27.019 7.51796 26.9435 7.56132C26.8681 7.60468 26.8019 7.66248 26.7488 7.73141C26.6957 7.80035 26.6567 7.87906 26.634 7.96308C26.6113 8.04709 26.6054 8.13474 26.6166 8.22104C26.6278 8.30734 26.6558 8.39059 26.6992 8.46604C26.9237 8.82925 27.1284 9.24528 27.3134 9.61509ZM17.7313 1.65094C18.1539 1.73679 18.57 1.84906 18.9794 1.97453C19.0361 1.9842 19.0938 1.98642 19.1511 1.98113C19.2912 1.98058 19.4274 1.9355 19.5402 1.8524C19.653 1.7693 19.7364 1.6525 19.7784 1.51887C19.8051 1.43606 19.8152 1.34879 19.808 1.26208C19.8009 1.17537 19.7767 1.09093 19.7368 1.01361C19.6969 0.936293 19.6421 0.867616 19.5756 0.81153C19.5091 0.755443 19.4321 0.713052 19.3492 0.686792C18.9001 0.548113 18.4445 0.429245 17.9756 0.330189C17.8049 0.294952 17.6272 0.328632 17.4812 0.423885C17.3353 0.519139 17.2329 0.66824 17.1964 0.838679C17.1742 0.927367 17.1706 1.0197 17.1859 1.10983C17.2013 1.19996 17.2352 1.28592 17.2854 1.36228C17.3357 1.43864 17.4013 1.50372 17.4781 1.55341C17.5548 1.6031 17.641 1.63631 17.7313 1.65094ZM21.3435 2.98491C21.72 3.19623 22.0832 3.42075 22.4398 3.64528C22.5502 3.72236 22.6815 3.76383 22.8162 3.76415C22.9566 3.76382 23.0932 3.71875 23.2063 3.6355C23.3193 3.55224 23.4029 3.43512 23.4448 3.30114C23.4868 3.16717 23.4849 3.0233 23.4396 2.89044C23.3942 2.75757 23.3077 2.64262 23.1926 2.56226C22.803 2.29151 22.3935 2.04057 21.9841 1.80943C21.9082 1.76734 21.8248 1.7406 21.7386 1.73076C21.6524 1.72093 21.5651 1.72817 21.4817 1.75209C21.3983 1.77601 21.3204 1.81613 21.2525 1.87016C21.1846 1.92419 21.128 1.99107 21.086 2.06698C21.0407 2.14369 21.0115 2.22877 21 2.31708C20.9884 2.4054 20.9949 2.49513 21.019 2.58088C21.043 2.66663 21.0842 2.74663 21.14 2.81606C21.1957 2.88549 21.265 2.94293 21.3435 2.98491ZM29.0171 15.9085V16.5491C29.0222 16.6358 29.0443 16.7208 29.0823 16.799C29.1202 16.8772 29.1732 16.9471 29.2382 17.0048C29.3033 17.0624 29.3791 17.1067 29.4612 17.135C29.5434 17.1634 29.6304 17.1752 29.7171 17.1698H29.7568C29.8441 17.1648 29.9296 17.1424 30.0083 17.1041C30.0869 17.0657 30.1572 17.0121 30.2149 16.9464C30.2727 16.8806 30.3168 16.8041 30.3447 16.7211C30.3726 16.6382 30.3838 16.5505 30.3775 16.4632V15.7962C30.3714 15.7044 30.3461 15.6148 30.3033 15.5333C30.2605 15.4518 30.2011 15.3801 30.129 15.3229C30.0568 15.2657 29.9735 15.2242 29.8844 15.2011C29.7953 15.178 29.7023 15.1737 29.6115 15.1887C29.4372 15.2054 29.2768 15.2906 29.1653 15.4256C29.0539 15.5605 29.0006 15.7342 29.0171 15.9085ZM13.2077 3.96226H13.8681C13.9548 3.96443 14.0411 3.9495 14.122 3.91831C14.203 3.88713 14.277 3.84031 14.3399 3.78052C14.4027 3.72073 14.4532 3.64915 14.4884 3.56986C14.5236 3.49056 14.5428 3.40512 14.545 3.3184C14.5471 3.23167 14.5322 3.14537 14.501 3.06442C14.4698 2.98347 14.423 2.90946 14.3632 2.8466C14.3034 2.78375 14.2318 2.73329 14.1525 2.6981C14.0733 2.66291 13.9878 2.64368 13.9011 2.64151H13.2077C13.0326 2.64151 12.8646 2.71108 12.7407 2.83493C12.6169 2.95877 12.5473 3.12674 12.5473 3.30189C12.5473 3.47703 12.6169 3.645 12.7407 3.76884C12.8646 3.89269 13.0326 3.96226 13.2077 3.96226ZM19.6398 5.03208C19.5429 5.17607 19.5066 5.3524 19.5387 5.52294C19.5709 5.69349 19.6688 5.84452 19.8115 5.9434C20.1568 6.18972 20.4857 6.45849 20.7954 6.74906C20.9182 6.86068 21.0785 6.92198 21.2445 6.92075C21.335 6.92046 21.4246 6.90155 21.5075 6.8652C21.5904 6.82885 21.665 6.77583 21.7266 6.70943C21.8496 6.5857 21.9186 6.41833 21.9186 6.24387C21.9186 6.06941 21.8496 5.90203 21.7266 5.7783C21.377 5.45274 21.0064 5.15051 20.6171 4.87359C20.5447 4.81421 20.4605 4.77092 20.3701 4.74658C20.2797 4.72223 20.1851 4.71739 20.0927 4.73238C20.0003 4.74737 19.9121 4.78184 19.834 4.83351C19.7559 4.88518 19.6897 4.95287 19.6398 5.03208ZM25.3851 13.8283C25.5527 13.7819 25.6952 13.6713 25.7818 13.5205C25.8683 13.3696 25.8919 13.1907 25.8473 13.0226C25.7284 12.567 25.5832 12.1179 25.4313 11.7019C25.4018 11.6199 25.3565 11.5446 25.2979 11.4802C25.2392 11.4157 25.1685 11.3635 25.0897 11.3264C25.0109 11.2893 24.9256 11.2681 24.8386 11.2639C24.7516 11.2598 24.6646 11.2729 24.5827 11.3024C24.5007 11.3318 24.4254 11.3772 24.361 11.4358C24.2965 11.4944 24.2443 11.5651 24.2072 11.6439C24.1701 11.7227 24.1489 11.808 24.1447 11.895C24.1406 11.982 24.1537 12.069 24.1832 12.1509C24.3284 12.5538 24.4605 12.9698 24.5728 13.3858C24.6115 13.5299 24.6978 13.6566 24.8177 13.7454C24.9377 13.8341 25.0841 13.8796 25.2332 13.8745C25.2858 13.8667 25.337 13.8511 25.3851 13.8283ZM16.3643 4.35189C16.7747 4.45684 17.1783 4.58696 17.5728 4.74151C17.7338 4.79677 17.9099 4.78775 18.0643 4.71633C18.2188 4.64491 18.3398 4.5166 18.4019 4.35818C18.4641 4.19975 18.4627 4.02343 18.3981 3.866C18.3334 3.70857 18.2105 3.58219 18.0549 3.51321C17.612 3.34105 17.1601 3.19335 16.7011 3.07075C16.6167 3.04774 16.5285 3.04167 16.4418 3.05291C16.355 3.06414 16.2713 3.09246 16.1956 3.13622C16.1198 3.17997 16.0535 3.23831 16.0004 3.30785C15.9473 3.37739 15.9085 3.45676 15.8862 3.54138C15.864 3.626 15.8587 3.71418 15.8708 3.80084C15.8828 3.8875 15.9119 3.97092 15.9563 4.04628C16.0008 4.12164 16.0597 4.18745 16.1297 4.2399C16.1998 4.29236 16.2795 4.33042 16.3643 4.35189ZM22.5983 7.76604C22.458 7.86903 22.364 8.02323 22.3368 8.19512C22.3096 8.36701 22.3514 8.54269 22.453 8.68396C22.6973 9.02736 22.9218 9.39717 23.1134 9.77359C23.1707 9.87559 23.2541 9.96053 23.3551 10.0197C23.456 10.0789 23.5709 10.1102 23.6879 10.1104C23.8001 10.1104 23.9118 10.0826 24.0115 10.0311C24.0877 9.98855 24.1547 9.93127 24.2087 9.86261C24.2626 9.79395 24.3024 9.71528 24.3257 9.63114C24.3491 9.547 24.3555 9.45907 24.3446 9.37244C24.3337 9.2858 24.3058 9.20218 24.2624 9.12642C24.0313 8.71038 23.7737 8.30755 23.5162 7.93113C23.4162 7.78771 23.2634 7.68979 23.0913 7.65884C22.9193 7.62789 22.742 7.66644 22.5983 7.76604ZM25.7549 17.1698H25.7879C25.9572 17.1613 26.1168 17.088 26.2336 16.9651C26.3504 16.8422 26.4155 16.679 26.4152 16.5094C26.4152 16.2915 26.4152 16.0604 26.3624 15.8491C26.3567 15.7608 26.3334 15.6746 26.2937 15.5955C26.2541 15.5165 26.199 15.4462 26.1317 15.3888C26.0643 15.3315 25.9862 15.2883 25.9018 15.2617C25.8175 15.2351 25.7287 15.2257 25.6406 15.2341C25.5526 15.2425 25.4671 15.2686 25.3894 15.3106C25.3116 15.3527 25.243 15.4099 25.1878 15.479C25.1325 15.548 25.0917 15.6275 25.0677 15.7126C25.0438 15.7977 25.0371 15.8868 25.0483 15.9745C25.0483 16.1925 25.0813 16.4038 25.0945 16.6019C25.1169 16.7606 25.1963 16.9057 25.3178 17.0102C25.4393 17.1146 25.5946 17.1714 25.7549 17.1698ZM21.7926 17.1698H21.8322C21.9196 17.1648 22.0051 17.1424 22.0837 17.1041C22.1624 17.0657 22.2327 17.0121 22.2904 16.9464C22.3482 16.8806 22.3923 16.8041 22.4202 16.7211C22.4481 16.6382 22.4592 16.5505 22.453 16.4632C22.453 16.4632 22.453 16.2057 22.3737 15.7632C22.3457 15.5911 22.2515 15.4369 22.1112 15.3334C21.9708 15.23 21.7956 15.1856 21.6229 15.2097C21.4503 15.2339 21.2939 15.3247 21.1874 15.4627C21.0809 15.6007 21.0326 15.775 21.053 15.9481C21.1058 16.3113 21.119 16.5358 21.119 16.5491C21.1292 16.7195 21.2051 16.8795 21.3307 16.9952C21.4563 17.111 21.6218 17.1735 21.7926 17.1698ZM15.3935 5.84434C15.2285 5.7883 15.048 5.79974 14.8913 5.87616C14.7346 5.95257 14.6144 6.08779 14.557 6.25236C14.4995 6.41694 14.5094 6.59755 14.5844 6.75489C14.6595 6.91223 14.7936 7.03355 14.9577 7.09245C15.3473 7.22453 15.7251 7.39094 16.0869 7.58774C16.2411 7.67093 16.4219 7.68949 16.5897 7.63933C16.7575 7.58917 16.8986 7.47441 16.9818 7.32028C17.0649 7.16616 17.0835 6.9853 17.0333 6.81749C16.9832 6.64968 16.8684 6.50866 16.7143 6.42547C16.2901 6.19711 15.8485 6.00279 15.3935 5.84434ZM18.9926 8.17547C18.9328 8.1126 18.8611 8.06213 18.7818 8.02694C18.7024 7.99175 18.6169 7.97253 18.5302 7.97039C18.4434 7.96824 18.3571 7.98321 18.2761 8.01443C18.1951 8.04565 18.121 8.09252 18.0582 8.15236C17.9953 8.2122 17.9448 8.28383 17.9096 8.36318C17.8744 8.44252 17.8552 8.52802 17.8531 8.61479C17.8509 8.70156 17.8659 8.7879 17.8971 8.86889C17.9283 8.94988 17.9752 9.02392 18.0351 9.08679C18.3217 9.38671 18.5865 9.70671 18.8275 10.0443C18.8883 10.1297 18.9685 10.1994 19.0615 10.2476C19.1545 10.2958 19.2576 10.3212 19.3624 10.3217C19.5019 10.3196 19.6376 10.2759 19.752 10.1962C19.8224 10.1452 19.882 10.0807 19.9275 10.0066C19.9729 9.93243 20.0032 9.85004 20.0167 9.76414C20.0302 9.67824 20.0266 9.59052 20.0061 9.50601C19.9856 9.42151 19.9487 9.34188 19.8973 9.2717C19.6209 8.88627 19.3186 8.52003 18.9926 8.17547ZM20.4718 13.4519C20.5166 13.5898 20.6056 13.7092 20.7249 13.7915C20.8443 13.8739 20.9874 13.9146 21.1322 13.9075C21.1983 13.9208 21.2643 13.9208 21.3303 13.9075C21.4963 13.8544 21.6346 13.7379 21.715 13.5832C21.7954 13.4286 21.8114 13.2485 21.7596 13.0821C21.6143 12.6264 21.4492 12.1906 21.2775 11.7613C21.2072 11.6023 21.0773 11.4772 20.9157 11.413C20.754 11.3489 20.5737 11.3508 20.4134 11.4183C20.2532 11.4859 20.1259 11.6137 20.059 11.7742C19.9921 11.9347 19.991 12.1151 20.0558 12.2764C20.2143 12.633 20.3596 13.0359 20.4718 13.4519ZM11.8869 6.60377H12.5473C12.7225 6.60903 12.8925 6.54449 13.0201 6.42436C13.1476 6.30423 13.2223 6.13835 13.2275 5.96321C13.2328 5.78806 13.1682 5.61801 13.0481 5.49045C12.928 5.36289 12.7621 5.28827 12.5869 5.28302H11.8869C11.7118 5.28302 11.5438 5.35259 11.42 5.47644C11.2961 5.60028 11.2266 5.76825 11.2266 5.9434C11.2266 6.11854 11.2961 6.28651 11.42 6.41035C11.5438 6.5342 11.7118 6.60377 11.8869 6.60377Z" fill="#78EDFD"/>
</svg>
