<svg width="37" height="40" viewBox="0 0 37 40" fill="none" xmlns="http://www.w3.org/2000/svg">
<path d="M31.3854 26.7157V23.4598C31.3829 23.3094 31.3214 23.1659 31.2142 23.0604C31.1069 22.9549 30.9625 22.8958 30.812 22.8958C30.6615 22.8958 30.5171 22.9549 30.4098 23.0604C30.3026 23.1659 30.2411 23.3094 30.2386 23.4598V26.7157C27.0945 27.006 24.624 29.6574 24.624 32.8761C24.624 34.954 25.6547 36.7946 27.2303 37.9173H21.7083C20.2583 37.9173 18.8956 37.2774 17.9697 36.1617C17.0436 35.0461 16.6657 33.5888 16.9328 32.1636L18.0157 26.3857H24.058C25.2172 26.3857 26.1603 25.4426 26.1603 24.2834V16.6985C26.9489 16.5121 27.7564 16.418 28.5668 16.4181C29.4886 16.4181 30.2387 17.1682 30.2387 18.0901V21.1665C30.2412 21.317 30.3027 21.4604 30.4099 21.5659C30.5172 21.6715 30.6616 21.7306 30.8121 21.7306C30.9626 21.7306 31.107 21.6715 31.2143 21.5659C31.3215 21.4604 31.383 21.317 31.3855 21.1665V18.09C31.3855 16.9416 30.6947 15.9521 29.7072 15.5132V12.472C29.7071 12.32 29.6467 12.1741 29.5392 12.0666C29.4317 11.9591 29.2859 11.8987 29.1338 11.8987H29.1251V4.19351C29.125 1.88118 27.2438 0 24.9316 0C23.2795 0 21.7766 0.974693 21.1026 2.48331L17.8432 9.78042C17.7812 9.91926 17.7769 10.077 17.8312 10.2191C17.8855 10.3611 17.994 10.4757 18.1328 10.5377C18.2016 10.5685 18.2757 10.5854 18.351 10.5874C18.4262 10.5895 18.5012 10.5767 18.5715 10.5498C18.6418 10.5229 18.7062 10.4824 18.7609 10.4307C18.8155 10.3789 18.8595 10.3169 18.8902 10.2481L22.1496 2.95101C22.6392 1.85493 23.7312 1.14674 24.9315 1.14674C26.6116 1.14674 27.9784 2.51352 27.9784 4.19351V11.8987H26.8316V4.19351C26.8316 3.1458 25.9792 2.29341 24.9315 2.29341C24.5646 2.29369 24.2056 2.40006 23.8978 2.5997C23.59 2.79935 23.3465 3.08375 23.1966 3.41863L10.1032 32.7315H8.84737L17.9546 12.3425C17.9853 12.2738 18.0022 12.1997 18.0043 12.1244C18.0063 12.0491 17.9935 11.9742 17.9666 11.9039C17.9397 11.8336 17.8992 11.7692 17.8475 11.7145C17.7957 11.6599 17.7337 11.6159 17.6649 11.5852C17.5962 11.5545 17.5221 11.5376 17.4468 11.5355C17.3715 11.5334 17.2966 11.5462 17.2262 11.5731C17.1559 11.6 17.0916 11.6405 17.0369 11.6923C16.9822 11.744 16.9383 11.8061 16.9076 11.8748L7.59152 32.7315H7.28236C6.54473 32.7315 5.94457 33.3317 5.94457 34.0693V35.2676H3.99885C2.12592 35.2676 0.489119 36.5337 0.0183673 38.3465C-0.00361507 38.4313 -0.00589824 38.5199 0.011693 38.6057C0.0292842 38.6915 0.0662827 38.7721 0.119852 38.8413C0.17342 38.9106 0.242137 38.9667 0.320733 39.0052C0.39933 39.0438 0.485718 39.0639 0.573275 39.0639H9.58989C9.74195 39.0639 9.88779 39.0035 9.99532 38.896C10.1029 38.7885 10.1633 38.6426 10.1633 38.4906C10.1633 38.3385 10.1029 38.1927 9.99532 38.0851C9.88779 37.9776 9.74195 37.9172 9.58989 37.9172H1.41864C1.93563 37.0053 2.91216 36.4142 3.99885 36.4142H13.7198C14.1187 36.4142 14.5063 36.5467 14.8218 36.7907C15.1374 37.0348 15.3629 37.3767 15.4632 37.7628L15.5034 37.9172H11.8834C11.7329 37.9196 11.5895 37.9811 11.4839 38.0884C11.3784 38.1957 11.3193 38.3401 11.3193 38.4906C11.3193 38.641 11.3784 38.7855 11.4839 38.8927C11.5895 39 11.7329 39.0615 11.8834 39.0639H16.2446C16.3322 39.0639 16.4186 39.0439 16.4972 39.0053C16.5758 38.9667 16.6445 38.9106 16.6981 38.8414C16.7517 38.7721 16.7887 38.6915 16.8063 38.6057C16.8238 38.5199 16.8215 38.4312 16.7995 38.3464L16.573 37.4746C16.2357 36.1751 15.0624 35.2675 13.7198 35.2675H12.4567V34.0692C12.4567 33.4103 11.9774 32.8625 11.3495 32.7527L24.2435 3.88626C24.303 3.75346 24.3995 3.64069 24.5216 3.56153C24.6437 3.48236 24.786 3.44018 24.9315 3.44007C25.3469 3.44007 25.6849 3.77807 25.6849 4.19351V11.8987H25.5868C25.4348 11.8987 25.2889 11.9591 25.1814 12.0667C25.0739 12.1742 25.0135 12.32 25.0135 12.4721V15.8282C21.0478 17.1049 17.9584 20.4663 17.1572 24.7411L15.8056 31.9524C15.4755 33.7139 15.9427 35.5151 17.0872 36.8941C18.2319 38.2731 19.9161 39.064 21.7083 39.064H30.812C34.2241 39.064 37 36.2881 37 32.876C37 29.6574 34.5295 27.006 31.3854 26.7157ZM7.09116 35.2677V34.0694C7.09123 34.0187 7.11138 33.9701 7.14721 33.9343C7.18304 33.8985 7.23162 33.8783 7.28229 33.8783H11.1189C11.1695 33.8783 11.2181 33.8985 11.254 33.9343C11.2898 33.9701 11.3099 34.0187 11.31 34.0694V35.2677H7.09116ZM26.1603 13.0454H28.5604V15.2714C27.7538 15.2718 26.9494 15.3562 26.1603 15.5234V13.0454ZM25.0135 17.0398V24.2833C25.0135 24.8102 24.5849 25.2389 24.0579 25.2389H18.2305L18.2842 24.9523C18.9826 21.2269 21.6092 18.2713 25.0135 17.0398ZM30.812 37.9173C28.0322 37.9173 25.7708 35.6558 25.7708 32.8761C25.7708 30.0964 28.0323 27.8349 30.812 27.8349C33.5917 27.8349 35.8533 30.0964 35.8533 32.8761C35.8533 35.6558 33.5917 37.9173 30.812 37.9173Z" fill="#78EDFD"/>
<path d="M30.8116 30.3008C29.3915 30.3008 28.2363 31.4561 28.2363 32.876C28.2363 34.2961 29.3916 35.4513 30.8116 35.4513C32.2315 35.4513 33.3868 34.296 33.3868 32.876C33.3868 31.4561 32.2315 30.3008 30.8116 30.3008ZM30.8116 34.3046C30.0239 34.3046 29.383 33.6637 29.383 32.876C29.383 32.0883 30.0239 31.4474 30.8116 31.4474C31.5993 31.4474 32.2402 32.0883 32.2402 32.876C32.2402 33.6638 31.5993 34.3046 30.8116 34.3046Z" fill="#78EDFD"/>
</svg>
